G04 #@! TF.GenerationSoftware,KiCad,Pcbnew,(5.1.5)-3*
G04 #@! TF.CreationDate,2021-06-16T23:05:42+07:00*
G04 #@! TF.ProjectId,meteo_mini,6d657465-6f5f-46d6-996e-692e6b696361,rev?*
G04 #@! TF.SameCoordinates,Original*
G04 #@! TF.FileFunction,Legend,Top*
G04 #@! TF.FilePolarity,Positive*
%FSLAX46Y46*%
G04 Gerber Fmt 4.6, Leading zero omitted, Abs format (unit mm)*
G04 Created by KiCad (PCBNEW (5.1.5)-3) date 2021-06-16 23:05:42*
%MOMM*%
%LPD*%
G04 APERTURE LIST*
%ADD10C,0.120000*%
%ADD11C,0.100000*%
%ADD12C,0.150000*%
%ADD13O,1.800000X1.800000*%
%ADD14R,1.800000X1.800000*%
%ADD15O,3.600000X2.000000*%
%ADD16C,1.200000*%
%ADD17R,1.000000X0.900000*%
%ADD18R,0.600000X0.450000*%
%ADD19R,2.280000X1.700000*%
G04 APERTURE END LIST*
D10*
X105762303Y-46006344D02*
X106674471Y-46918512D01*
X105444105Y-46324542D02*
X105762303Y-46006344D01*
X105125907Y-46006344D02*
X105444105Y-46324542D01*
X100338794Y-41219231D02*
X100656992Y-40901033D01*
X100656992Y-41537429D02*
X100338794Y-41219231D01*
X110549416Y-41219231D02*
X110231218Y-41537429D01*
X110231218Y-40901033D02*
X110549416Y-41219231D01*
X105444105Y-36113920D02*
X105125907Y-36432118D01*
X105762303Y-36432118D02*
X105444105Y-36113920D01*
X89987221Y-48240000D02*
X90312779Y-48240000D01*
X89987221Y-49260000D02*
X90312779Y-49260000D01*
X89974721Y-46260000D02*
X90300279Y-46260000D01*
X89974721Y-45240000D02*
X90300279Y-45240000D01*
X90725279Y-37890000D02*
X90399721Y-37890000D01*
X90725279Y-38910000D02*
X90399721Y-38910000D01*
X97000279Y-42110000D02*
X96674721Y-42110000D01*
X97000279Y-41090000D02*
X96674721Y-41090000D01*
X97025279Y-38190000D02*
X96699721Y-38190000D01*
X97025279Y-39210000D02*
X96699721Y-39210000D01*
X110400279Y-49260000D02*
X110074721Y-49260000D01*
X110400279Y-48240000D02*
X110074721Y-48240000D01*
X118300279Y-40310000D02*
X117974721Y-40310000D01*
X118300279Y-39290000D02*
X117974721Y-39290000D01*
X118312779Y-42390000D02*
X117987221Y-42390000D01*
X118312779Y-43410000D02*
X117987221Y-43410000D01*
X114762500Y-36065000D02*
X112477500Y-36065000D01*
X112477500Y-36065000D02*
X112477500Y-37535000D01*
X112477500Y-37535000D02*
X114762500Y-37535000D01*
X100077500Y-49535000D02*
X102362500Y-49535000D01*
X100077500Y-48065000D02*
X100077500Y-49535000D01*
X102362500Y-48065000D02*
X100077500Y-48065000D01*
X126470000Y-44230000D02*
X129130000Y-44230000D01*
X126470000Y-36550000D02*
X126470000Y-44230000D01*
X129130000Y-36550000D02*
X129130000Y-44230000D01*
X126470000Y-36550000D02*
X129130000Y-36550000D01*
X126470000Y-35280000D02*
X126470000Y-33950000D01*
X126470000Y-33950000D02*
X127800000Y-33950000D01*
X89120000Y-35830000D02*
X89120000Y-34500000D01*
X90450000Y-35830000D02*
X89120000Y-35830000D01*
X91720000Y-35830000D02*
X91720000Y-33170000D01*
X91720000Y-33170000D02*
X99400000Y-33170000D01*
X91720000Y-35830000D02*
X99400000Y-35830000D01*
X99400000Y-35830000D02*
X99400000Y-33170000D01*
X97000279Y-46010000D02*
X96674721Y-46010000D01*
X97000279Y-44990000D02*
X96674721Y-44990000D01*
X113799721Y-43410000D02*
X114125279Y-43410000D01*
X113799721Y-42390000D02*
X114125279Y-42390000D01*
X122887221Y-40310000D02*
X123212779Y-40310000D01*
X122887221Y-39290000D02*
X123212779Y-39290000D01*
X122887221Y-42390000D02*
X123212779Y-42390000D01*
X122887221Y-43410000D02*
X123212779Y-43410000D01*
X113799721Y-40310000D02*
X114125279Y-40310000D01*
X113799721Y-39290000D02*
X114125279Y-39290000D01*
X97025279Y-49310000D02*
X96699721Y-49310000D01*
X97025279Y-48290000D02*
X96699721Y-48290000D01*
X89590000Y-40170000D02*
X91050000Y-40170000D01*
X89590000Y-43330000D02*
X91750000Y-43330000D01*
X89590000Y-43330000D02*
X89590000Y-42400000D01*
X89590000Y-40170000D02*
X89590000Y-41100000D01*
D11*
X121875000Y-36950000D02*
X121625000Y-36950000D01*
X121725000Y-34250000D02*
X121875000Y-34250000D01*
X121725000Y-34400000D02*
X121725000Y-34250000D01*
X124425000Y-34250000D02*
X124425000Y-34400000D01*
X124425000Y-34250000D02*
X124275000Y-34250000D01*
X124425000Y-36950000D02*
X124275000Y-36950000D01*
X124435000Y-36950000D02*
X124435000Y-36800000D01*
D10*
X115380000Y-49310000D02*
X115380000Y-45690000D01*
X121500000Y-49310000D02*
X115380000Y-49310000D01*
X121500000Y-45690000D02*
X121500000Y-49310000D01*
X115380000Y-45690000D02*
X121500000Y-45690000D01*
D12*
X104788095Y-40552380D02*
X104788095Y-41361904D01*
X104835714Y-41457142D01*
X104883333Y-41504761D01*
X104978571Y-41552380D01*
X105169047Y-41552380D01*
X105264285Y-41504761D01*
X105311904Y-41457142D01*
X105359523Y-41361904D01*
X105359523Y-40552380D01*
X105788095Y-40647619D02*
X105835714Y-40600000D01*
X105930952Y-40552380D01*
X106169047Y-40552380D01*
X106264285Y-40600000D01*
X106311904Y-40647619D01*
X106359523Y-40742857D01*
X106359523Y-40838095D01*
X106311904Y-40980952D01*
X105740476Y-41552380D01*
X106359523Y-41552380D01*
X90014333Y-47680142D02*
X89966714Y-47727761D01*
X89823857Y-47775380D01*
X89728619Y-47775380D01*
X89585761Y-47727761D01*
X89490523Y-47632523D01*
X89442904Y-47537285D01*
X89395285Y-47346809D01*
X89395285Y-47203952D01*
X89442904Y-47013476D01*
X89490523Y-46918238D01*
X89585761Y-46823000D01*
X89728619Y-46775380D01*
X89823857Y-46775380D01*
X89966714Y-46823000D01*
X90014333Y-46870619D01*
X90919095Y-46775380D02*
X90442904Y-46775380D01*
X90395285Y-47251571D01*
X90442904Y-47203952D01*
X90538142Y-47156333D01*
X90776238Y-47156333D01*
X90871476Y-47203952D01*
X90919095Y-47251571D01*
X90966714Y-47346809D01*
X90966714Y-47584904D01*
X90919095Y-47680142D01*
X90871476Y-47727761D01*
X90776238Y-47775380D01*
X90538142Y-47775380D01*
X90442904Y-47727761D01*
X90395285Y-47680142D01*
X89983333Y-44807142D02*
X89935714Y-44854761D01*
X89792857Y-44902380D01*
X89697619Y-44902380D01*
X89554761Y-44854761D01*
X89459523Y-44759523D01*
X89411904Y-44664285D01*
X89364285Y-44473809D01*
X89364285Y-44330952D01*
X89411904Y-44140476D01*
X89459523Y-44045238D01*
X89554761Y-43950000D01*
X89697619Y-43902380D01*
X89792857Y-43902380D01*
X89935714Y-43950000D01*
X89983333Y-43997619D01*
X90840476Y-43902380D02*
X90650000Y-43902380D01*
X90554761Y-43950000D01*
X90507142Y-43997619D01*
X90411904Y-44140476D01*
X90364285Y-44330952D01*
X90364285Y-44711904D01*
X90411904Y-44807142D01*
X90459523Y-44854761D01*
X90554761Y-44902380D01*
X90745238Y-44902380D01*
X90840476Y-44854761D01*
X90888095Y-44807142D01*
X90935714Y-44711904D01*
X90935714Y-44473809D01*
X90888095Y-44378571D01*
X90840476Y-44330952D01*
X90745238Y-44283333D01*
X90554761Y-44283333D01*
X90459523Y-44330952D01*
X90411904Y-44378571D01*
X90364285Y-44473809D01*
X90433333Y-37357142D02*
X90385714Y-37404761D01*
X90242857Y-37452380D01*
X90147619Y-37452380D01*
X90004761Y-37404761D01*
X89909523Y-37309523D01*
X89861904Y-37214285D01*
X89814285Y-37023809D01*
X89814285Y-36880952D01*
X89861904Y-36690476D01*
X89909523Y-36595238D01*
X90004761Y-36500000D01*
X90147619Y-36452380D01*
X90242857Y-36452380D01*
X90385714Y-36500000D01*
X90433333Y-36547619D01*
X91004761Y-36880952D02*
X90909523Y-36833333D01*
X90861904Y-36785714D01*
X90814285Y-36690476D01*
X90814285Y-36642857D01*
X90861904Y-36547619D01*
X90909523Y-36500000D01*
X91004761Y-36452380D01*
X91195238Y-36452380D01*
X91290476Y-36500000D01*
X91338095Y-36547619D01*
X91385714Y-36642857D01*
X91385714Y-36690476D01*
X91338095Y-36785714D01*
X91290476Y-36833333D01*
X91195238Y-36880952D01*
X91004761Y-36880952D01*
X90909523Y-36928571D01*
X90861904Y-36976190D01*
X90814285Y-37071428D01*
X90814285Y-37261904D01*
X90861904Y-37357142D01*
X90909523Y-37404761D01*
X91004761Y-37452380D01*
X91195238Y-37452380D01*
X91290476Y-37404761D01*
X91338095Y-37357142D01*
X91385714Y-37261904D01*
X91385714Y-37071428D01*
X91338095Y-36976190D01*
X91290476Y-36928571D01*
X91195238Y-36880952D01*
X96783333Y-40557142D02*
X96735714Y-40604761D01*
X96592857Y-40652380D01*
X96497619Y-40652380D01*
X96354761Y-40604761D01*
X96259523Y-40509523D01*
X96211904Y-40414285D01*
X96164285Y-40223809D01*
X96164285Y-40080952D01*
X96211904Y-39890476D01*
X96259523Y-39795238D01*
X96354761Y-39700000D01*
X96497619Y-39652380D01*
X96592857Y-39652380D01*
X96735714Y-39700000D01*
X96783333Y-39747619D01*
X97116666Y-39652380D02*
X97735714Y-39652380D01*
X97402380Y-40033333D01*
X97545238Y-40033333D01*
X97640476Y-40080952D01*
X97688095Y-40128571D01*
X97735714Y-40223809D01*
X97735714Y-40461904D01*
X97688095Y-40557142D01*
X97640476Y-40604761D01*
X97545238Y-40652380D01*
X97259523Y-40652380D01*
X97164285Y-40604761D01*
X97116666Y-40557142D01*
X96783333Y-37657142D02*
X96735714Y-37704761D01*
X96592857Y-37752380D01*
X96497619Y-37752380D01*
X96354761Y-37704761D01*
X96259523Y-37609523D01*
X96211904Y-37514285D01*
X96164285Y-37323809D01*
X96164285Y-37180952D01*
X96211904Y-36990476D01*
X96259523Y-36895238D01*
X96354761Y-36800000D01*
X96497619Y-36752380D01*
X96592857Y-36752380D01*
X96735714Y-36800000D01*
X96783333Y-36847619D01*
X97640476Y-37085714D02*
X97640476Y-37752380D01*
X97402380Y-36704761D02*
X97164285Y-37419047D01*
X97783333Y-37419047D01*
X110083333Y-47707142D02*
X110035714Y-47754761D01*
X109892857Y-47802380D01*
X109797619Y-47802380D01*
X109654761Y-47754761D01*
X109559523Y-47659523D01*
X109511904Y-47564285D01*
X109464285Y-47373809D01*
X109464285Y-47230952D01*
X109511904Y-47040476D01*
X109559523Y-46945238D01*
X109654761Y-46850000D01*
X109797619Y-46802380D01*
X109892857Y-46802380D01*
X110035714Y-46850000D01*
X110083333Y-46897619D01*
X110416666Y-46802380D02*
X111083333Y-46802380D01*
X110654761Y-47802380D01*
X117983333Y-38757142D02*
X117935714Y-38804761D01*
X117792857Y-38852380D01*
X117697619Y-38852380D01*
X117554761Y-38804761D01*
X117459523Y-38709523D01*
X117411904Y-38614285D01*
X117364285Y-38423809D01*
X117364285Y-38280952D01*
X117411904Y-38090476D01*
X117459523Y-37995238D01*
X117554761Y-37900000D01*
X117697619Y-37852380D01*
X117792857Y-37852380D01*
X117935714Y-37900000D01*
X117983333Y-37947619D01*
X118935714Y-38852380D02*
X118364285Y-38852380D01*
X118650000Y-38852380D02*
X118650000Y-37852380D01*
X118554761Y-37995238D01*
X118459523Y-38090476D01*
X118364285Y-38138095D01*
X117983333Y-41957142D02*
X117935714Y-42004761D01*
X117792857Y-42052380D01*
X117697619Y-42052380D01*
X117554761Y-42004761D01*
X117459523Y-41909523D01*
X117411904Y-41814285D01*
X117364285Y-41623809D01*
X117364285Y-41480952D01*
X117411904Y-41290476D01*
X117459523Y-41195238D01*
X117554761Y-41100000D01*
X117697619Y-41052380D01*
X117792857Y-41052380D01*
X117935714Y-41100000D01*
X117983333Y-41147619D01*
X118364285Y-41147619D02*
X118411904Y-41100000D01*
X118507142Y-41052380D01*
X118745238Y-41052380D01*
X118840476Y-41100000D01*
X118888095Y-41147619D01*
X118935714Y-41242857D01*
X118935714Y-41338095D01*
X118888095Y-41480952D01*
X118316666Y-42052380D01*
X118935714Y-42052380D01*
X113224404Y-35822380D02*
X113224404Y-34822380D01*
X113462500Y-34822380D01*
X113605357Y-34870000D01*
X113700595Y-34965238D01*
X113748214Y-35060476D01*
X113795833Y-35250952D01*
X113795833Y-35393809D01*
X113748214Y-35584285D01*
X113700595Y-35679523D01*
X113605357Y-35774761D01*
X113462500Y-35822380D01*
X113224404Y-35822380D01*
X114748214Y-35822380D02*
X114176785Y-35822380D01*
X114462500Y-35822380D02*
X114462500Y-34822380D01*
X114367261Y-34965238D01*
X114272023Y-35060476D01*
X114176785Y-35108095D01*
X100786904Y-47752380D02*
X100786904Y-46752380D01*
X101025000Y-46752380D01*
X101167857Y-46800000D01*
X101263095Y-46895238D01*
X101310714Y-46990476D01*
X101358333Y-47180952D01*
X101358333Y-47323809D01*
X101310714Y-47514285D01*
X101263095Y-47609523D01*
X101167857Y-47704761D01*
X101025000Y-47752380D01*
X100786904Y-47752380D01*
X101739285Y-46847619D02*
X101786904Y-46800000D01*
X101882142Y-46752380D01*
X102120238Y-46752380D01*
X102215476Y-46800000D01*
X102263095Y-46847619D01*
X102310714Y-46942857D01*
X102310714Y-47038095D01*
X102263095Y-47180952D01*
X101691666Y-47752380D01*
X102310714Y-47752380D01*
X96720833Y-44602380D02*
X96387500Y-44126190D01*
X96149404Y-44602380D02*
X96149404Y-43602380D01*
X96530357Y-43602380D01*
X96625595Y-43650000D01*
X96673214Y-43697619D01*
X96720833Y-43792857D01*
X96720833Y-43935714D01*
X96673214Y-44030952D01*
X96625595Y-44078571D01*
X96530357Y-44126190D01*
X96149404Y-44126190D01*
X97625595Y-43602380D02*
X97149404Y-43602380D01*
X97101785Y-44078571D01*
X97149404Y-44030952D01*
X97244642Y-43983333D01*
X97482738Y-43983333D01*
X97577976Y-44030952D01*
X97625595Y-44078571D01*
X97673214Y-44173809D01*
X97673214Y-44411904D01*
X97625595Y-44507142D01*
X97577976Y-44554761D01*
X97482738Y-44602380D01*
X97244642Y-44602380D01*
X97149404Y-44554761D01*
X97101785Y-44507142D01*
X113795833Y-41922380D02*
X113462500Y-41446190D01*
X113224404Y-41922380D02*
X113224404Y-40922380D01*
X113605357Y-40922380D01*
X113700595Y-40970000D01*
X113748214Y-41017619D01*
X113795833Y-41112857D01*
X113795833Y-41255714D01*
X113748214Y-41350952D01*
X113700595Y-41398571D01*
X113605357Y-41446190D01*
X113224404Y-41446190D01*
X114652976Y-40922380D02*
X114462500Y-40922380D01*
X114367261Y-40970000D01*
X114319642Y-41017619D01*
X114224404Y-41160476D01*
X114176785Y-41350952D01*
X114176785Y-41731904D01*
X114224404Y-41827142D01*
X114272023Y-41874761D01*
X114367261Y-41922380D01*
X114557738Y-41922380D01*
X114652976Y-41874761D01*
X114700595Y-41827142D01*
X114748214Y-41731904D01*
X114748214Y-41493809D01*
X114700595Y-41398571D01*
X114652976Y-41350952D01*
X114557738Y-41303333D01*
X114367261Y-41303333D01*
X114272023Y-41350952D01*
X114224404Y-41398571D01*
X114176785Y-41493809D01*
X122883333Y-38822380D02*
X122550000Y-38346190D01*
X122311904Y-38822380D02*
X122311904Y-37822380D01*
X122692857Y-37822380D01*
X122788095Y-37870000D01*
X122835714Y-37917619D01*
X122883333Y-38012857D01*
X122883333Y-38155714D01*
X122835714Y-38250952D01*
X122788095Y-38298571D01*
X122692857Y-38346190D01*
X122311904Y-38346190D01*
X123835714Y-38822380D02*
X123264285Y-38822380D01*
X123550000Y-38822380D02*
X123550000Y-37822380D01*
X123454761Y-37965238D01*
X123359523Y-38060476D01*
X123264285Y-38108095D01*
X122883333Y-41902380D02*
X122550000Y-41426190D01*
X122311904Y-41902380D02*
X122311904Y-40902380D01*
X122692857Y-40902380D01*
X122788095Y-40950000D01*
X122835714Y-40997619D01*
X122883333Y-41092857D01*
X122883333Y-41235714D01*
X122835714Y-41330952D01*
X122788095Y-41378571D01*
X122692857Y-41426190D01*
X122311904Y-41426190D01*
X123264285Y-40997619D02*
X123311904Y-40950000D01*
X123407142Y-40902380D01*
X123645238Y-40902380D01*
X123740476Y-40950000D01*
X123788095Y-40997619D01*
X123835714Y-41092857D01*
X123835714Y-41188095D01*
X123788095Y-41330952D01*
X123216666Y-41902380D01*
X123835714Y-41902380D01*
X113795833Y-38822380D02*
X113462500Y-38346190D01*
X113224404Y-38822380D02*
X113224404Y-37822380D01*
X113605357Y-37822380D01*
X113700595Y-37870000D01*
X113748214Y-37917619D01*
X113795833Y-38012857D01*
X113795833Y-38155714D01*
X113748214Y-38250952D01*
X113700595Y-38298571D01*
X113605357Y-38346190D01*
X113224404Y-38346190D01*
X114129166Y-37822380D02*
X114748214Y-37822380D01*
X114414880Y-38203333D01*
X114557738Y-38203333D01*
X114652976Y-38250952D01*
X114700595Y-38298571D01*
X114748214Y-38393809D01*
X114748214Y-38631904D01*
X114700595Y-38727142D01*
X114652976Y-38774761D01*
X114557738Y-38822380D01*
X114272023Y-38822380D01*
X114176785Y-38774761D01*
X114129166Y-38727142D01*
X96708333Y-47852380D02*
X96375000Y-47376190D01*
X96136904Y-47852380D02*
X96136904Y-46852380D01*
X96517857Y-46852380D01*
X96613095Y-46900000D01*
X96660714Y-46947619D01*
X96708333Y-47042857D01*
X96708333Y-47185714D01*
X96660714Y-47280952D01*
X96613095Y-47328571D01*
X96517857Y-47376190D01*
X96136904Y-47376190D01*
X97565476Y-47185714D02*
X97565476Y-47852380D01*
X97327380Y-46804761D02*
X97089285Y-47519047D01*
X97708333Y-47519047D01*
X92238095Y-41202380D02*
X92238095Y-42011904D01*
X92285714Y-42107142D01*
X92333333Y-42154761D01*
X92428571Y-42202380D01*
X92619047Y-42202380D01*
X92714285Y-42154761D01*
X92761904Y-42107142D01*
X92809523Y-42011904D01*
X92809523Y-41202380D01*
X93190476Y-41202380D02*
X93809523Y-41202380D01*
X93476190Y-41583333D01*
X93619047Y-41583333D01*
X93714285Y-41630952D01*
X93761904Y-41678571D01*
X93809523Y-41773809D01*
X93809523Y-42011904D01*
X93761904Y-42107142D01*
X93714285Y-42154761D01*
X93619047Y-42202380D01*
X93333333Y-42202380D01*
X93238095Y-42154761D01*
X93190476Y-42107142D01*
X119888095Y-36702380D02*
X119888095Y-37511904D01*
X119935714Y-37607142D01*
X119983333Y-37654761D01*
X120078571Y-37702380D01*
X120269047Y-37702380D01*
X120364285Y-37654761D01*
X120411904Y-37607142D01*
X120459523Y-37511904D01*
X120459523Y-36702380D01*
X121459523Y-37702380D02*
X120888095Y-37702380D01*
X121173809Y-37702380D02*
X121173809Y-36702380D01*
X121078571Y-36845238D01*
X120983333Y-36940476D01*
X120888095Y-36988095D01*
X117106666Y-45304761D02*
X117249523Y-45352380D01*
X117487619Y-45352380D01*
X117582857Y-45304761D01*
X117630476Y-45257142D01*
X117678095Y-45161904D01*
X117678095Y-45066666D01*
X117630476Y-44971428D01*
X117582857Y-44923809D01*
X117487619Y-44876190D01*
X117297142Y-44828571D01*
X117201904Y-44780952D01*
X117154285Y-44733333D01*
X117106666Y-44638095D01*
X117106666Y-44542857D01*
X117154285Y-44447619D01*
X117201904Y-44400000D01*
X117297142Y-44352380D01*
X117535238Y-44352380D01*
X117678095Y-44400000D01*
X118011428Y-44352380D02*
X118249523Y-45352380D01*
X118440000Y-44638095D01*
X118630476Y-45352380D01*
X118868571Y-44352380D01*
X119773333Y-45352380D02*
X119201904Y-45352380D01*
X119487619Y-45352380D02*
X119487619Y-44352380D01*
X119392380Y-44495238D01*
X119297142Y-44590476D01*
X119201904Y-44638095D01*
%LPC*%
D11*
G36*
X106037270Y-45450742D02*
G01*
X106046977Y-45452181D01*
X106056496Y-45454566D01*
X106065736Y-45457872D01*
X106074608Y-45462068D01*
X106083025Y-45467113D01*
X106090907Y-45472959D01*
X106098179Y-45479549D01*
X107070451Y-46451821D01*
X107077041Y-46459093D01*
X107082887Y-46466975D01*
X107087932Y-46475392D01*
X107092128Y-46484264D01*
X107095434Y-46493504D01*
X107097819Y-46503023D01*
X107099258Y-46512730D01*
X107099740Y-46522532D01*
X107099258Y-46532334D01*
X107097819Y-46542041D01*
X107095434Y-46551560D01*
X107092128Y-46560800D01*
X107087932Y-46569672D01*
X107082887Y-46578089D01*
X107077041Y-46585971D01*
X107070451Y-46593243D01*
X106929029Y-46734665D01*
X106921757Y-46741255D01*
X106913875Y-46747101D01*
X106905458Y-46752146D01*
X106896586Y-46756342D01*
X106887346Y-46759648D01*
X106877827Y-46762033D01*
X106868120Y-46763472D01*
X106858318Y-46763954D01*
X106848516Y-46763472D01*
X106838809Y-46762033D01*
X106829290Y-46759648D01*
X106820050Y-46756342D01*
X106811178Y-46752146D01*
X106802761Y-46747101D01*
X106794879Y-46741255D01*
X106787607Y-46734665D01*
X105815335Y-45762393D01*
X105808745Y-45755121D01*
X105802899Y-45747239D01*
X105797854Y-45738822D01*
X105793658Y-45729950D01*
X105790352Y-45720710D01*
X105787967Y-45711191D01*
X105786528Y-45701484D01*
X105786046Y-45691682D01*
X105786528Y-45681880D01*
X105787967Y-45672173D01*
X105790352Y-45662654D01*
X105793658Y-45653414D01*
X105797854Y-45644542D01*
X105802899Y-45636125D01*
X105808745Y-45628243D01*
X105815335Y-45620971D01*
X105956757Y-45479549D01*
X105964029Y-45472959D01*
X105971911Y-45467113D01*
X105980328Y-45462068D01*
X105989200Y-45457872D01*
X105998440Y-45454566D01*
X106007959Y-45452181D01*
X106017666Y-45450742D01*
X106027468Y-45450260D01*
X106037270Y-45450742D01*
G37*
G36*
X106390824Y-45097188D02*
G01*
X106400531Y-45098627D01*
X106410050Y-45101012D01*
X106419290Y-45104318D01*
X106428162Y-45108514D01*
X106436579Y-45113559D01*
X106444461Y-45119405D01*
X106451733Y-45125995D01*
X107424005Y-46098267D01*
X107430595Y-46105539D01*
X107436441Y-46113421D01*
X107441486Y-46121838D01*
X107445682Y-46130710D01*
X107448988Y-46139950D01*
X107451373Y-46149469D01*
X107452812Y-46159176D01*
X107453294Y-46168978D01*
X107452812Y-46178780D01*
X107451373Y-46188487D01*
X107448988Y-46198006D01*
X107445682Y-46207246D01*
X107441486Y-46216118D01*
X107436441Y-46224535D01*
X107430595Y-46232417D01*
X107424005Y-46239689D01*
X107282583Y-46381111D01*
X107275311Y-46387701D01*
X107267429Y-46393547D01*
X107259012Y-46398592D01*
X107250140Y-46402788D01*
X107240900Y-46406094D01*
X107231381Y-46408479D01*
X107221674Y-46409918D01*
X107211872Y-46410400D01*
X107202070Y-46409918D01*
X107192363Y-46408479D01*
X107182844Y-46406094D01*
X107173604Y-46402788D01*
X107164732Y-46398592D01*
X107156315Y-46393547D01*
X107148433Y-46387701D01*
X107141161Y-46381111D01*
X106168889Y-45408839D01*
X106162299Y-45401567D01*
X106156453Y-45393685D01*
X106151408Y-45385268D01*
X106147212Y-45376396D01*
X106143906Y-45367156D01*
X106141521Y-45357637D01*
X106140082Y-45347930D01*
X106139600Y-45338128D01*
X106140082Y-45328326D01*
X106141521Y-45318619D01*
X106143906Y-45309100D01*
X106147212Y-45299860D01*
X106151408Y-45290988D01*
X106156453Y-45282571D01*
X106162299Y-45274689D01*
X106168889Y-45267417D01*
X106310311Y-45125995D01*
X106317583Y-45119405D01*
X106325465Y-45113559D01*
X106333882Y-45108514D01*
X106342754Y-45104318D01*
X106351994Y-45101012D01*
X106361513Y-45098627D01*
X106371220Y-45097188D01*
X106381022Y-45096706D01*
X106390824Y-45097188D01*
G37*
G36*
X106744377Y-44743635D02*
G01*
X106754084Y-44745074D01*
X106763603Y-44747459D01*
X106772843Y-44750765D01*
X106781715Y-44754961D01*
X106790132Y-44760006D01*
X106798014Y-44765852D01*
X106805286Y-44772442D01*
X107777558Y-45744714D01*
X107784148Y-45751986D01*
X107789994Y-45759868D01*
X107795039Y-45768285D01*
X107799235Y-45777157D01*
X107802541Y-45786397D01*
X107804926Y-45795916D01*
X107806365Y-45805623D01*
X107806847Y-45815425D01*
X107806365Y-45825227D01*
X107804926Y-45834934D01*
X107802541Y-45844453D01*
X107799235Y-45853693D01*
X107795039Y-45862565D01*
X107789994Y-45870982D01*
X107784148Y-45878864D01*
X107777558Y-45886136D01*
X107636136Y-46027558D01*
X107628864Y-46034148D01*
X107620982Y-46039994D01*
X107612565Y-46045039D01*
X107603693Y-46049235D01*
X107594453Y-46052541D01*
X107584934Y-46054926D01*
X107575227Y-46056365D01*
X107565425Y-46056847D01*
X107555623Y-46056365D01*
X107545916Y-46054926D01*
X107536397Y-46052541D01*
X107527157Y-46049235D01*
X107518285Y-46045039D01*
X107509868Y-46039994D01*
X107501986Y-46034148D01*
X107494714Y-46027558D01*
X106522442Y-45055286D01*
X106515852Y-45048014D01*
X106510006Y-45040132D01*
X106504961Y-45031715D01*
X106500765Y-45022843D01*
X106497459Y-45013603D01*
X106495074Y-45004084D01*
X106493635Y-44994377D01*
X106493153Y-44984575D01*
X106493635Y-44974773D01*
X106495074Y-44965066D01*
X106497459Y-44955547D01*
X106500765Y-44946307D01*
X106504961Y-44937435D01*
X106510006Y-44929018D01*
X106515852Y-44921136D01*
X106522442Y-44913864D01*
X106663864Y-44772442D01*
X106671136Y-44765852D01*
X106679018Y-44760006D01*
X106687435Y-44754961D01*
X106696307Y-44750765D01*
X106705547Y-44747459D01*
X106715066Y-44745074D01*
X106724773Y-44743635D01*
X106734575Y-44743153D01*
X106744377Y-44743635D01*
G37*
G36*
X107097931Y-44390081D02*
G01*
X107107638Y-44391520D01*
X107117157Y-44393905D01*
X107126397Y-44397211D01*
X107135269Y-44401407D01*
X107143686Y-44406452D01*
X107151568Y-44412298D01*
X107158840Y-44418888D01*
X108131112Y-45391160D01*
X108137702Y-45398432D01*
X108143548Y-45406314D01*
X108148593Y-45414731D01*
X108152789Y-45423603D01*
X108156095Y-45432843D01*
X108158480Y-45442362D01*
X108159919Y-45452069D01*
X108160401Y-45461871D01*
X108159919Y-45471673D01*
X108158480Y-45481380D01*
X108156095Y-45490899D01*
X108152789Y-45500139D01*
X108148593Y-45509011D01*
X108143548Y-45517428D01*
X108137702Y-45525310D01*
X108131112Y-45532582D01*
X107989690Y-45674004D01*
X107982418Y-45680594D01*
X107974536Y-45686440D01*
X107966119Y-45691485D01*
X107957247Y-45695681D01*
X107948007Y-45698987D01*
X107938488Y-45701372D01*
X107928781Y-45702811D01*
X107918979Y-45703293D01*
X107909177Y-45702811D01*
X107899470Y-45701372D01*
X107889951Y-45698987D01*
X107880711Y-45695681D01*
X107871839Y-45691485D01*
X107863422Y-45686440D01*
X107855540Y-45680594D01*
X107848268Y-45674004D01*
X106875996Y-44701732D01*
X106869406Y-44694460D01*
X106863560Y-44686578D01*
X106858515Y-44678161D01*
X106854319Y-44669289D01*
X106851013Y-44660049D01*
X106848628Y-44650530D01*
X106847189Y-44640823D01*
X106846707Y-44631021D01*
X106847189Y-44621219D01*
X106848628Y-44611512D01*
X106851013Y-44601993D01*
X106854319Y-44592753D01*
X106858515Y-44583881D01*
X106863560Y-44575464D01*
X106869406Y-44567582D01*
X106875996Y-44560310D01*
X107017418Y-44418888D01*
X107024690Y-44412298D01*
X107032572Y-44406452D01*
X107040989Y-44401407D01*
X107049861Y-44397211D01*
X107059101Y-44393905D01*
X107068620Y-44391520D01*
X107078327Y-44390081D01*
X107088129Y-44389599D01*
X107097931Y-44390081D01*
G37*
G36*
X107451484Y-44036528D02*
G01*
X107461191Y-44037967D01*
X107470710Y-44040352D01*
X107479950Y-44043658D01*
X107488822Y-44047854D01*
X107497239Y-44052899D01*
X107505121Y-44058745D01*
X107512393Y-44065335D01*
X108484665Y-45037607D01*
X108491255Y-45044879D01*
X108497101Y-45052761D01*
X108502146Y-45061178D01*
X108506342Y-45070050D01*
X108509648Y-45079290D01*
X108512033Y-45088809D01*
X108513472Y-45098516D01*
X108513954Y-45108318D01*
X108513472Y-45118120D01*
X108512033Y-45127827D01*
X108509648Y-45137346D01*
X108506342Y-45146586D01*
X108502146Y-45155458D01*
X108497101Y-45163875D01*
X108491255Y-45171757D01*
X108484665Y-45179029D01*
X108343243Y-45320451D01*
X108335971Y-45327041D01*
X108328089Y-45332887D01*
X108319672Y-45337932D01*
X108310800Y-45342128D01*
X108301560Y-45345434D01*
X108292041Y-45347819D01*
X108282334Y-45349258D01*
X108272532Y-45349740D01*
X108262730Y-45349258D01*
X108253023Y-45347819D01*
X108243504Y-45345434D01*
X108234264Y-45342128D01*
X108225392Y-45337932D01*
X108216975Y-45332887D01*
X108209093Y-45327041D01*
X108201821Y-45320451D01*
X107229549Y-44348179D01*
X107222959Y-44340907D01*
X107217113Y-44333025D01*
X107212068Y-44324608D01*
X107207872Y-44315736D01*
X107204566Y-44306496D01*
X107202181Y-44296977D01*
X107200742Y-44287270D01*
X107200260Y-44277468D01*
X107200742Y-44267666D01*
X107202181Y-44257959D01*
X107204566Y-44248440D01*
X107207872Y-44239200D01*
X107212068Y-44230328D01*
X107217113Y-44221911D01*
X107222959Y-44214029D01*
X107229549Y-44206757D01*
X107370971Y-44065335D01*
X107378243Y-44058745D01*
X107386125Y-44052899D01*
X107394542Y-44047854D01*
X107403414Y-44043658D01*
X107412654Y-44040352D01*
X107422173Y-44037967D01*
X107431880Y-44036528D01*
X107441682Y-44036046D01*
X107451484Y-44036528D01*
G37*
G36*
X107805037Y-43682975D02*
G01*
X107814744Y-43684414D01*
X107824263Y-43686799D01*
X107833503Y-43690105D01*
X107842375Y-43694301D01*
X107850792Y-43699346D01*
X107858674Y-43705192D01*
X107865946Y-43711782D01*
X108838218Y-44684054D01*
X108844808Y-44691326D01*
X108850654Y-44699208D01*
X108855699Y-44707625D01*
X108859895Y-44716497D01*
X108863201Y-44725737D01*
X108865586Y-44735256D01*
X108867025Y-44744963D01*
X108867507Y-44754765D01*
X108867025Y-44764567D01*
X108865586Y-44774274D01*
X108863201Y-44783793D01*
X108859895Y-44793033D01*
X108855699Y-44801905D01*
X108850654Y-44810322D01*
X108844808Y-44818204D01*
X108838218Y-44825476D01*
X108696796Y-44966898D01*
X108689524Y-44973488D01*
X108681642Y-44979334D01*
X108673225Y-44984379D01*
X108664353Y-44988575D01*
X108655113Y-44991881D01*
X108645594Y-44994266D01*
X108635887Y-44995705D01*
X108626085Y-44996187D01*
X108616283Y-44995705D01*
X108606576Y-44994266D01*
X108597057Y-44991881D01*
X108587817Y-44988575D01*
X108578945Y-44984379D01*
X108570528Y-44979334D01*
X108562646Y-44973488D01*
X108555374Y-44966898D01*
X107583102Y-43994626D01*
X107576512Y-43987354D01*
X107570666Y-43979472D01*
X107565621Y-43971055D01*
X107561425Y-43962183D01*
X107558119Y-43952943D01*
X107555734Y-43943424D01*
X107554295Y-43933717D01*
X107553813Y-43923915D01*
X107554295Y-43914113D01*
X107555734Y-43904406D01*
X107558119Y-43894887D01*
X107561425Y-43885647D01*
X107565621Y-43876775D01*
X107570666Y-43868358D01*
X107576512Y-43860476D01*
X107583102Y-43853204D01*
X107724524Y-43711782D01*
X107731796Y-43705192D01*
X107739678Y-43699346D01*
X107748095Y-43694301D01*
X107756967Y-43690105D01*
X107766207Y-43686799D01*
X107775726Y-43684414D01*
X107785433Y-43682975D01*
X107795235Y-43682493D01*
X107805037Y-43682975D01*
G37*
G36*
X108158591Y-43329421D02*
G01*
X108168298Y-43330860D01*
X108177817Y-43333245D01*
X108187057Y-43336551D01*
X108195929Y-43340747D01*
X108204346Y-43345792D01*
X108212228Y-43351638D01*
X108219500Y-43358228D01*
X109191772Y-44330500D01*
X109198362Y-44337772D01*
X109204208Y-44345654D01*
X109209253Y-44354071D01*
X109213449Y-44362943D01*
X109216755Y-44372183D01*
X109219140Y-44381702D01*
X109220579Y-44391409D01*
X109221061Y-44401211D01*
X109220579Y-44411013D01*
X109219140Y-44420720D01*
X109216755Y-44430239D01*
X109213449Y-44439479D01*
X109209253Y-44448351D01*
X109204208Y-44456768D01*
X109198362Y-44464650D01*
X109191772Y-44471922D01*
X109050350Y-44613344D01*
X109043078Y-44619934D01*
X109035196Y-44625780D01*
X109026779Y-44630825D01*
X109017907Y-44635021D01*
X109008667Y-44638327D01*
X108999148Y-44640712D01*
X108989441Y-44642151D01*
X108979639Y-44642633D01*
X108969837Y-44642151D01*
X108960130Y-44640712D01*
X108950611Y-44638327D01*
X108941371Y-44635021D01*
X108932499Y-44630825D01*
X108924082Y-44625780D01*
X108916200Y-44619934D01*
X108908928Y-44613344D01*
X107936656Y-43641072D01*
X107930066Y-43633800D01*
X107924220Y-43625918D01*
X107919175Y-43617501D01*
X107914979Y-43608629D01*
X107911673Y-43599389D01*
X107909288Y-43589870D01*
X107907849Y-43580163D01*
X107907367Y-43570361D01*
X107907849Y-43560559D01*
X107909288Y-43550852D01*
X107911673Y-43541333D01*
X107914979Y-43532093D01*
X107919175Y-43523221D01*
X107924220Y-43514804D01*
X107930066Y-43506922D01*
X107936656Y-43499650D01*
X108078078Y-43358228D01*
X108085350Y-43351638D01*
X108093232Y-43345792D01*
X108101649Y-43340747D01*
X108110521Y-43336551D01*
X108119761Y-43333245D01*
X108129280Y-43330860D01*
X108138987Y-43329421D01*
X108148789Y-43328939D01*
X108158591Y-43329421D01*
G37*
G36*
X108512144Y-42975868D02*
G01*
X108521851Y-42977307D01*
X108531370Y-42979692D01*
X108540610Y-42982998D01*
X108549482Y-42987194D01*
X108557899Y-42992239D01*
X108565781Y-42998085D01*
X108573053Y-43004675D01*
X109545325Y-43976947D01*
X109551915Y-43984219D01*
X109557761Y-43992101D01*
X109562806Y-44000518D01*
X109567002Y-44009390D01*
X109570308Y-44018630D01*
X109572693Y-44028149D01*
X109574132Y-44037856D01*
X109574614Y-44047658D01*
X109574132Y-44057460D01*
X109572693Y-44067167D01*
X109570308Y-44076686D01*
X109567002Y-44085926D01*
X109562806Y-44094798D01*
X109557761Y-44103215D01*
X109551915Y-44111097D01*
X109545325Y-44118369D01*
X109403903Y-44259791D01*
X109396631Y-44266381D01*
X109388749Y-44272227D01*
X109380332Y-44277272D01*
X109371460Y-44281468D01*
X109362220Y-44284774D01*
X109352701Y-44287159D01*
X109342994Y-44288598D01*
X109333192Y-44289080D01*
X109323390Y-44288598D01*
X109313683Y-44287159D01*
X109304164Y-44284774D01*
X109294924Y-44281468D01*
X109286052Y-44277272D01*
X109277635Y-44272227D01*
X109269753Y-44266381D01*
X109262481Y-44259791D01*
X108290209Y-43287519D01*
X108283619Y-43280247D01*
X108277773Y-43272365D01*
X108272728Y-43263948D01*
X108268532Y-43255076D01*
X108265226Y-43245836D01*
X108262841Y-43236317D01*
X108261402Y-43226610D01*
X108260920Y-43216808D01*
X108261402Y-43207006D01*
X108262841Y-43197299D01*
X108265226Y-43187780D01*
X108268532Y-43178540D01*
X108272728Y-43169668D01*
X108277773Y-43161251D01*
X108283619Y-43153369D01*
X108290209Y-43146097D01*
X108431631Y-43004675D01*
X108438903Y-42998085D01*
X108446785Y-42992239D01*
X108455202Y-42987194D01*
X108464074Y-42982998D01*
X108473314Y-42979692D01*
X108482833Y-42977307D01*
X108492540Y-42975868D01*
X108502342Y-42975386D01*
X108512144Y-42975868D01*
G37*
G36*
X108865697Y-42622315D02*
G01*
X108875404Y-42623754D01*
X108884923Y-42626139D01*
X108894163Y-42629445D01*
X108903035Y-42633641D01*
X108911452Y-42638686D01*
X108919334Y-42644532D01*
X108926606Y-42651122D01*
X109898878Y-43623394D01*
X109905468Y-43630666D01*
X109911314Y-43638548D01*
X109916359Y-43646965D01*
X109920555Y-43655837D01*
X109923861Y-43665077D01*
X109926246Y-43674596D01*
X109927685Y-43684303D01*
X109928167Y-43694105D01*
X109927685Y-43703907D01*
X109926246Y-43713614D01*
X109923861Y-43723133D01*
X109920555Y-43732373D01*
X109916359Y-43741245D01*
X109911314Y-43749662D01*
X109905468Y-43757544D01*
X109898878Y-43764816D01*
X109757456Y-43906238D01*
X109750184Y-43912828D01*
X109742302Y-43918674D01*
X109733885Y-43923719D01*
X109725013Y-43927915D01*
X109715773Y-43931221D01*
X109706254Y-43933606D01*
X109696547Y-43935045D01*
X109686745Y-43935527D01*
X109676943Y-43935045D01*
X109667236Y-43933606D01*
X109657717Y-43931221D01*
X109648477Y-43927915D01*
X109639605Y-43923719D01*
X109631188Y-43918674D01*
X109623306Y-43912828D01*
X109616034Y-43906238D01*
X108643762Y-42933966D01*
X108637172Y-42926694D01*
X108631326Y-42918812D01*
X108626281Y-42910395D01*
X108622085Y-42901523D01*
X108618779Y-42892283D01*
X108616394Y-42882764D01*
X108614955Y-42873057D01*
X108614473Y-42863255D01*
X108614955Y-42853453D01*
X108616394Y-42843746D01*
X108618779Y-42834227D01*
X108622085Y-42824987D01*
X108626281Y-42816115D01*
X108631326Y-42807698D01*
X108637172Y-42799816D01*
X108643762Y-42792544D01*
X108785184Y-42651122D01*
X108792456Y-42644532D01*
X108800338Y-42638686D01*
X108808755Y-42633641D01*
X108817627Y-42629445D01*
X108826867Y-42626139D01*
X108836386Y-42623754D01*
X108846093Y-42622315D01*
X108855895Y-42621833D01*
X108865697Y-42622315D01*
G37*
G36*
X109219251Y-42268761D02*
G01*
X109228958Y-42270200D01*
X109238477Y-42272585D01*
X109247717Y-42275891D01*
X109256589Y-42280087D01*
X109265006Y-42285132D01*
X109272888Y-42290978D01*
X109280160Y-42297568D01*
X110252432Y-43269840D01*
X110259022Y-43277112D01*
X110264868Y-43284994D01*
X110269913Y-43293411D01*
X110274109Y-43302283D01*
X110277415Y-43311523D01*
X110279800Y-43321042D01*
X110281239Y-43330749D01*
X110281721Y-43340551D01*
X110281239Y-43350353D01*
X110279800Y-43360060D01*
X110277415Y-43369579D01*
X110274109Y-43378819D01*
X110269913Y-43387691D01*
X110264868Y-43396108D01*
X110259022Y-43403990D01*
X110252432Y-43411262D01*
X110111010Y-43552684D01*
X110103738Y-43559274D01*
X110095856Y-43565120D01*
X110087439Y-43570165D01*
X110078567Y-43574361D01*
X110069327Y-43577667D01*
X110059808Y-43580052D01*
X110050101Y-43581491D01*
X110040299Y-43581973D01*
X110030497Y-43581491D01*
X110020790Y-43580052D01*
X110011271Y-43577667D01*
X110002031Y-43574361D01*
X109993159Y-43570165D01*
X109984742Y-43565120D01*
X109976860Y-43559274D01*
X109969588Y-43552684D01*
X108997316Y-42580412D01*
X108990726Y-42573140D01*
X108984880Y-42565258D01*
X108979835Y-42556841D01*
X108975639Y-42547969D01*
X108972333Y-42538729D01*
X108969948Y-42529210D01*
X108968509Y-42519503D01*
X108968027Y-42509701D01*
X108968509Y-42499899D01*
X108969948Y-42490192D01*
X108972333Y-42480673D01*
X108975639Y-42471433D01*
X108979835Y-42462561D01*
X108984880Y-42454144D01*
X108990726Y-42446262D01*
X108997316Y-42438990D01*
X109138738Y-42297568D01*
X109146010Y-42290978D01*
X109153892Y-42285132D01*
X109162309Y-42280087D01*
X109171181Y-42275891D01*
X109180421Y-42272585D01*
X109189940Y-42270200D01*
X109199647Y-42268761D01*
X109209449Y-42268279D01*
X109219251Y-42268761D01*
G37*
G36*
X109572804Y-41915208D02*
G01*
X109582511Y-41916647D01*
X109592030Y-41919032D01*
X109601270Y-41922338D01*
X109610142Y-41926534D01*
X109618559Y-41931579D01*
X109626441Y-41937425D01*
X109633713Y-41944015D01*
X110605985Y-42916287D01*
X110612575Y-42923559D01*
X110618421Y-42931441D01*
X110623466Y-42939858D01*
X110627662Y-42948730D01*
X110630968Y-42957970D01*
X110633353Y-42967489D01*
X110634792Y-42977196D01*
X110635274Y-42986998D01*
X110634792Y-42996800D01*
X110633353Y-43006507D01*
X110630968Y-43016026D01*
X110627662Y-43025266D01*
X110623466Y-43034138D01*
X110618421Y-43042555D01*
X110612575Y-43050437D01*
X110605985Y-43057709D01*
X110464563Y-43199131D01*
X110457291Y-43205721D01*
X110449409Y-43211567D01*
X110440992Y-43216612D01*
X110432120Y-43220808D01*
X110422880Y-43224114D01*
X110413361Y-43226499D01*
X110403654Y-43227938D01*
X110393852Y-43228420D01*
X110384050Y-43227938D01*
X110374343Y-43226499D01*
X110364824Y-43224114D01*
X110355584Y-43220808D01*
X110346712Y-43216612D01*
X110338295Y-43211567D01*
X110330413Y-43205721D01*
X110323141Y-43199131D01*
X109350869Y-42226859D01*
X109344279Y-42219587D01*
X109338433Y-42211705D01*
X109333388Y-42203288D01*
X109329192Y-42194416D01*
X109325886Y-42185176D01*
X109323501Y-42175657D01*
X109322062Y-42165950D01*
X109321580Y-42156148D01*
X109322062Y-42146346D01*
X109323501Y-42136639D01*
X109325886Y-42127120D01*
X109329192Y-42117880D01*
X109333388Y-42109008D01*
X109338433Y-42100591D01*
X109344279Y-42092709D01*
X109350869Y-42085437D01*
X109492291Y-41944015D01*
X109499563Y-41937425D01*
X109507445Y-41931579D01*
X109515862Y-41926534D01*
X109524734Y-41922338D01*
X109533974Y-41919032D01*
X109543493Y-41916647D01*
X109553200Y-41915208D01*
X109563002Y-41914726D01*
X109572804Y-41915208D01*
G37*
G36*
X109926358Y-41561654D02*
G01*
X109936065Y-41563093D01*
X109945584Y-41565478D01*
X109954824Y-41568784D01*
X109963696Y-41572980D01*
X109972113Y-41578025D01*
X109979995Y-41583871D01*
X109987267Y-41590461D01*
X110959539Y-42562733D01*
X110966129Y-42570005D01*
X110971975Y-42577887D01*
X110977020Y-42586304D01*
X110981216Y-42595176D01*
X110984522Y-42604416D01*
X110986907Y-42613935D01*
X110988346Y-42623642D01*
X110988828Y-42633444D01*
X110988346Y-42643246D01*
X110986907Y-42652953D01*
X110984522Y-42662472D01*
X110981216Y-42671712D01*
X110977020Y-42680584D01*
X110971975Y-42689001D01*
X110966129Y-42696883D01*
X110959539Y-42704155D01*
X110818117Y-42845577D01*
X110810845Y-42852167D01*
X110802963Y-42858013D01*
X110794546Y-42863058D01*
X110785674Y-42867254D01*
X110776434Y-42870560D01*
X110766915Y-42872945D01*
X110757208Y-42874384D01*
X110747406Y-42874866D01*
X110737604Y-42874384D01*
X110727897Y-42872945D01*
X110718378Y-42870560D01*
X110709138Y-42867254D01*
X110700266Y-42863058D01*
X110691849Y-42858013D01*
X110683967Y-42852167D01*
X110676695Y-42845577D01*
X109704423Y-41873305D01*
X109697833Y-41866033D01*
X109691987Y-41858151D01*
X109686942Y-41849734D01*
X109682746Y-41840862D01*
X109679440Y-41831622D01*
X109677055Y-41822103D01*
X109675616Y-41812396D01*
X109675134Y-41802594D01*
X109675616Y-41792792D01*
X109677055Y-41783085D01*
X109679440Y-41773566D01*
X109682746Y-41764326D01*
X109686942Y-41755454D01*
X109691987Y-41747037D01*
X109697833Y-41739155D01*
X109704423Y-41731883D01*
X109845845Y-41590461D01*
X109853117Y-41583871D01*
X109860999Y-41578025D01*
X109869416Y-41572980D01*
X109878288Y-41568784D01*
X109887528Y-41565478D01*
X109897047Y-41563093D01*
X109906754Y-41561654D01*
X109916556Y-41561172D01*
X109926358Y-41561654D01*
G37*
G36*
X110757208Y-39564078D02*
G01*
X110766915Y-39565517D01*
X110776434Y-39567902D01*
X110785674Y-39571208D01*
X110794546Y-39575404D01*
X110802963Y-39580449D01*
X110810845Y-39586295D01*
X110818117Y-39592885D01*
X110959539Y-39734307D01*
X110966129Y-39741579D01*
X110971975Y-39749461D01*
X110977020Y-39757878D01*
X110981216Y-39766750D01*
X110984522Y-39775990D01*
X110986907Y-39785509D01*
X110988346Y-39795216D01*
X110988828Y-39805018D01*
X110988346Y-39814820D01*
X110986907Y-39824527D01*
X110984522Y-39834046D01*
X110981216Y-39843286D01*
X110977020Y-39852158D01*
X110971975Y-39860575D01*
X110966129Y-39868457D01*
X110959539Y-39875729D01*
X109987267Y-40848001D01*
X109979995Y-40854591D01*
X109972113Y-40860437D01*
X109963696Y-40865482D01*
X109954824Y-40869678D01*
X109945584Y-40872984D01*
X109936065Y-40875369D01*
X109926358Y-40876808D01*
X109916556Y-40877290D01*
X109906754Y-40876808D01*
X109897047Y-40875369D01*
X109887528Y-40872984D01*
X109878288Y-40869678D01*
X109869416Y-40865482D01*
X109860999Y-40860437D01*
X109853117Y-40854591D01*
X109845845Y-40848001D01*
X109704423Y-40706579D01*
X109697833Y-40699307D01*
X109691987Y-40691425D01*
X109686942Y-40683008D01*
X109682746Y-40674136D01*
X109679440Y-40664896D01*
X109677055Y-40655377D01*
X109675616Y-40645670D01*
X109675134Y-40635868D01*
X109675616Y-40626066D01*
X109677055Y-40616359D01*
X109679440Y-40606840D01*
X109682746Y-40597600D01*
X109686942Y-40588728D01*
X109691987Y-40580311D01*
X109697833Y-40572429D01*
X109704423Y-40565157D01*
X110676695Y-39592885D01*
X110683967Y-39586295D01*
X110691849Y-39580449D01*
X110700266Y-39575404D01*
X110709138Y-39571208D01*
X110718378Y-39567902D01*
X110727897Y-39565517D01*
X110737604Y-39564078D01*
X110747406Y-39563596D01*
X110757208Y-39564078D01*
G37*
G36*
X110403654Y-39210524D02*
G01*
X110413361Y-39211963D01*
X110422880Y-39214348D01*
X110432120Y-39217654D01*
X110440992Y-39221850D01*
X110449409Y-39226895D01*
X110457291Y-39232741D01*
X110464563Y-39239331D01*
X110605985Y-39380753D01*
X110612575Y-39388025D01*
X110618421Y-39395907D01*
X110623466Y-39404324D01*
X110627662Y-39413196D01*
X110630968Y-39422436D01*
X110633353Y-39431955D01*
X110634792Y-39441662D01*
X110635274Y-39451464D01*
X110634792Y-39461266D01*
X110633353Y-39470973D01*
X110630968Y-39480492D01*
X110627662Y-39489732D01*
X110623466Y-39498604D01*
X110618421Y-39507021D01*
X110612575Y-39514903D01*
X110605985Y-39522175D01*
X109633713Y-40494447D01*
X109626441Y-40501037D01*
X109618559Y-40506883D01*
X109610142Y-40511928D01*
X109601270Y-40516124D01*
X109592030Y-40519430D01*
X109582511Y-40521815D01*
X109572804Y-40523254D01*
X109563002Y-40523736D01*
X109553200Y-40523254D01*
X109543493Y-40521815D01*
X109533974Y-40519430D01*
X109524734Y-40516124D01*
X109515862Y-40511928D01*
X109507445Y-40506883D01*
X109499563Y-40501037D01*
X109492291Y-40494447D01*
X109350869Y-40353025D01*
X109344279Y-40345753D01*
X109338433Y-40337871D01*
X109333388Y-40329454D01*
X109329192Y-40320582D01*
X109325886Y-40311342D01*
X109323501Y-40301823D01*
X109322062Y-40292116D01*
X109321580Y-40282314D01*
X109322062Y-40272512D01*
X109323501Y-40262805D01*
X109325886Y-40253286D01*
X109329192Y-40244046D01*
X109333388Y-40235174D01*
X109338433Y-40226757D01*
X109344279Y-40218875D01*
X109350869Y-40211603D01*
X110323141Y-39239331D01*
X110330413Y-39232741D01*
X110338295Y-39226895D01*
X110346712Y-39221850D01*
X110355584Y-39217654D01*
X110364824Y-39214348D01*
X110374343Y-39211963D01*
X110384050Y-39210524D01*
X110393852Y-39210042D01*
X110403654Y-39210524D01*
G37*
G36*
X110050101Y-38856971D02*
G01*
X110059808Y-38858410D01*
X110069327Y-38860795D01*
X110078567Y-38864101D01*
X110087439Y-38868297D01*
X110095856Y-38873342D01*
X110103738Y-38879188D01*
X110111010Y-38885778D01*
X110252432Y-39027200D01*
X110259022Y-39034472D01*
X110264868Y-39042354D01*
X110269913Y-39050771D01*
X110274109Y-39059643D01*
X110277415Y-39068883D01*
X110279800Y-39078402D01*
X110281239Y-39088109D01*
X110281721Y-39097911D01*
X110281239Y-39107713D01*
X110279800Y-39117420D01*
X110277415Y-39126939D01*
X110274109Y-39136179D01*
X110269913Y-39145051D01*
X110264868Y-39153468D01*
X110259022Y-39161350D01*
X110252432Y-39168622D01*
X109280160Y-40140894D01*
X109272888Y-40147484D01*
X109265006Y-40153330D01*
X109256589Y-40158375D01*
X109247717Y-40162571D01*
X109238477Y-40165877D01*
X109228958Y-40168262D01*
X109219251Y-40169701D01*
X109209449Y-40170183D01*
X109199647Y-40169701D01*
X109189940Y-40168262D01*
X109180421Y-40165877D01*
X109171181Y-40162571D01*
X109162309Y-40158375D01*
X109153892Y-40153330D01*
X109146010Y-40147484D01*
X109138738Y-40140894D01*
X108997316Y-39999472D01*
X108990726Y-39992200D01*
X108984880Y-39984318D01*
X108979835Y-39975901D01*
X108975639Y-39967029D01*
X108972333Y-39957789D01*
X108969948Y-39948270D01*
X108968509Y-39938563D01*
X108968027Y-39928761D01*
X108968509Y-39918959D01*
X108969948Y-39909252D01*
X108972333Y-39899733D01*
X108975639Y-39890493D01*
X108979835Y-39881621D01*
X108984880Y-39873204D01*
X108990726Y-39865322D01*
X108997316Y-39858050D01*
X109969588Y-38885778D01*
X109976860Y-38879188D01*
X109984742Y-38873342D01*
X109993159Y-38868297D01*
X110002031Y-38864101D01*
X110011271Y-38860795D01*
X110020790Y-38858410D01*
X110030497Y-38856971D01*
X110040299Y-38856489D01*
X110050101Y-38856971D01*
G37*
G36*
X109696547Y-38503417D02*
G01*
X109706254Y-38504856D01*
X109715773Y-38507241D01*
X109725013Y-38510547D01*
X109733885Y-38514743D01*
X109742302Y-38519788D01*
X109750184Y-38525634D01*
X109757456Y-38532224D01*
X109898878Y-38673646D01*
X109905468Y-38680918D01*
X109911314Y-38688800D01*
X109916359Y-38697217D01*
X109920555Y-38706089D01*
X109923861Y-38715329D01*
X109926246Y-38724848D01*
X109927685Y-38734555D01*
X109928167Y-38744357D01*
X109927685Y-38754159D01*
X109926246Y-38763866D01*
X109923861Y-38773385D01*
X109920555Y-38782625D01*
X109916359Y-38791497D01*
X109911314Y-38799914D01*
X109905468Y-38807796D01*
X109898878Y-38815068D01*
X108926606Y-39787340D01*
X108919334Y-39793930D01*
X108911452Y-39799776D01*
X108903035Y-39804821D01*
X108894163Y-39809017D01*
X108884923Y-39812323D01*
X108875404Y-39814708D01*
X108865697Y-39816147D01*
X108855895Y-39816629D01*
X108846093Y-39816147D01*
X108836386Y-39814708D01*
X108826867Y-39812323D01*
X108817627Y-39809017D01*
X108808755Y-39804821D01*
X108800338Y-39799776D01*
X108792456Y-39793930D01*
X108785184Y-39787340D01*
X108643762Y-39645918D01*
X108637172Y-39638646D01*
X108631326Y-39630764D01*
X108626281Y-39622347D01*
X108622085Y-39613475D01*
X108618779Y-39604235D01*
X108616394Y-39594716D01*
X108614955Y-39585009D01*
X108614473Y-39575207D01*
X108614955Y-39565405D01*
X108616394Y-39555698D01*
X108618779Y-39546179D01*
X108622085Y-39536939D01*
X108626281Y-39528067D01*
X108631326Y-39519650D01*
X108637172Y-39511768D01*
X108643762Y-39504496D01*
X109616034Y-38532224D01*
X109623306Y-38525634D01*
X109631188Y-38519788D01*
X109639605Y-38514743D01*
X109648477Y-38510547D01*
X109657717Y-38507241D01*
X109667236Y-38504856D01*
X109676943Y-38503417D01*
X109686745Y-38502935D01*
X109696547Y-38503417D01*
G37*
G36*
X109342994Y-38149864D02*
G01*
X109352701Y-38151303D01*
X109362220Y-38153688D01*
X109371460Y-38156994D01*
X109380332Y-38161190D01*
X109388749Y-38166235D01*
X109396631Y-38172081D01*
X109403903Y-38178671D01*
X109545325Y-38320093D01*
X109551915Y-38327365D01*
X109557761Y-38335247D01*
X109562806Y-38343664D01*
X109567002Y-38352536D01*
X109570308Y-38361776D01*
X109572693Y-38371295D01*
X109574132Y-38381002D01*
X109574614Y-38390804D01*
X109574132Y-38400606D01*
X109572693Y-38410313D01*
X109570308Y-38419832D01*
X109567002Y-38429072D01*
X109562806Y-38437944D01*
X109557761Y-38446361D01*
X109551915Y-38454243D01*
X109545325Y-38461515D01*
X108573053Y-39433787D01*
X108565781Y-39440377D01*
X108557899Y-39446223D01*
X108549482Y-39451268D01*
X108540610Y-39455464D01*
X108531370Y-39458770D01*
X108521851Y-39461155D01*
X108512144Y-39462594D01*
X108502342Y-39463076D01*
X108492540Y-39462594D01*
X108482833Y-39461155D01*
X108473314Y-39458770D01*
X108464074Y-39455464D01*
X108455202Y-39451268D01*
X108446785Y-39446223D01*
X108438903Y-39440377D01*
X108431631Y-39433787D01*
X108290209Y-39292365D01*
X108283619Y-39285093D01*
X108277773Y-39277211D01*
X108272728Y-39268794D01*
X108268532Y-39259922D01*
X108265226Y-39250682D01*
X108262841Y-39241163D01*
X108261402Y-39231456D01*
X108260920Y-39221654D01*
X108261402Y-39211852D01*
X108262841Y-39202145D01*
X108265226Y-39192626D01*
X108268532Y-39183386D01*
X108272728Y-39174514D01*
X108277773Y-39166097D01*
X108283619Y-39158215D01*
X108290209Y-39150943D01*
X109262481Y-38178671D01*
X109269753Y-38172081D01*
X109277635Y-38166235D01*
X109286052Y-38161190D01*
X109294924Y-38156994D01*
X109304164Y-38153688D01*
X109313683Y-38151303D01*
X109323390Y-38149864D01*
X109333192Y-38149382D01*
X109342994Y-38149864D01*
G37*
G36*
X108989441Y-37796311D02*
G01*
X108999148Y-37797750D01*
X109008667Y-37800135D01*
X109017907Y-37803441D01*
X109026779Y-37807637D01*
X109035196Y-37812682D01*
X109043078Y-37818528D01*
X109050350Y-37825118D01*
X109191772Y-37966540D01*
X109198362Y-37973812D01*
X109204208Y-37981694D01*
X109209253Y-37990111D01*
X109213449Y-37998983D01*
X109216755Y-38008223D01*
X109219140Y-38017742D01*
X109220579Y-38027449D01*
X109221061Y-38037251D01*
X109220579Y-38047053D01*
X109219140Y-38056760D01*
X109216755Y-38066279D01*
X109213449Y-38075519D01*
X109209253Y-38084391D01*
X109204208Y-38092808D01*
X109198362Y-38100690D01*
X109191772Y-38107962D01*
X108219500Y-39080234D01*
X108212228Y-39086824D01*
X108204346Y-39092670D01*
X108195929Y-39097715D01*
X108187057Y-39101911D01*
X108177817Y-39105217D01*
X108168298Y-39107602D01*
X108158591Y-39109041D01*
X108148789Y-39109523D01*
X108138987Y-39109041D01*
X108129280Y-39107602D01*
X108119761Y-39105217D01*
X108110521Y-39101911D01*
X108101649Y-39097715D01*
X108093232Y-39092670D01*
X108085350Y-39086824D01*
X108078078Y-39080234D01*
X107936656Y-38938812D01*
X107930066Y-38931540D01*
X107924220Y-38923658D01*
X107919175Y-38915241D01*
X107914979Y-38906369D01*
X107911673Y-38897129D01*
X107909288Y-38887610D01*
X107907849Y-38877903D01*
X107907367Y-38868101D01*
X107907849Y-38858299D01*
X107909288Y-38848592D01*
X107911673Y-38839073D01*
X107914979Y-38829833D01*
X107919175Y-38820961D01*
X107924220Y-38812544D01*
X107930066Y-38804662D01*
X107936656Y-38797390D01*
X108908928Y-37825118D01*
X108916200Y-37818528D01*
X108924082Y-37812682D01*
X108932499Y-37807637D01*
X108941371Y-37803441D01*
X108950611Y-37800135D01*
X108960130Y-37797750D01*
X108969837Y-37796311D01*
X108979639Y-37795829D01*
X108989441Y-37796311D01*
G37*
G36*
X108635887Y-37442757D02*
G01*
X108645594Y-37444196D01*
X108655113Y-37446581D01*
X108664353Y-37449887D01*
X108673225Y-37454083D01*
X108681642Y-37459128D01*
X108689524Y-37464974D01*
X108696796Y-37471564D01*
X108838218Y-37612986D01*
X108844808Y-37620258D01*
X108850654Y-37628140D01*
X108855699Y-37636557D01*
X108859895Y-37645429D01*
X108863201Y-37654669D01*
X108865586Y-37664188D01*
X108867025Y-37673895D01*
X108867507Y-37683697D01*
X108867025Y-37693499D01*
X108865586Y-37703206D01*
X108863201Y-37712725D01*
X108859895Y-37721965D01*
X108855699Y-37730837D01*
X108850654Y-37739254D01*
X108844808Y-37747136D01*
X108838218Y-37754408D01*
X107865946Y-38726680D01*
X107858674Y-38733270D01*
X107850792Y-38739116D01*
X107842375Y-38744161D01*
X107833503Y-38748357D01*
X107824263Y-38751663D01*
X107814744Y-38754048D01*
X107805037Y-38755487D01*
X107795235Y-38755969D01*
X107785433Y-38755487D01*
X107775726Y-38754048D01*
X107766207Y-38751663D01*
X107756967Y-38748357D01*
X107748095Y-38744161D01*
X107739678Y-38739116D01*
X107731796Y-38733270D01*
X107724524Y-38726680D01*
X107583102Y-38585258D01*
X107576512Y-38577986D01*
X107570666Y-38570104D01*
X107565621Y-38561687D01*
X107561425Y-38552815D01*
X107558119Y-38543575D01*
X107555734Y-38534056D01*
X107554295Y-38524349D01*
X107553813Y-38514547D01*
X107554295Y-38504745D01*
X107555734Y-38495038D01*
X107558119Y-38485519D01*
X107561425Y-38476279D01*
X107565621Y-38467407D01*
X107570666Y-38458990D01*
X107576512Y-38451108D01*
X107583102Y-38443836D01*
X108555374Y-37471564D01*
X108562646Y-37464974D01*
X108570528Y-37459128D01*
X108578945Y-37454083D01*
X108587817Y-37449887D01*
X108597057Y-37446581D01*
X108606576Y-37444196D01*
X108616283Y-37442757D01*
X108626085Y-37442275D01*
X108635887Y-37442757D01*
G37*
G36*
X108282334Y-37089204D02*
G01*
X108292041Y-37090643D01*
X108301560Y-37093028D01*
X108310800Y-37096334D01*
X108319672Y-37100530D01*
X108328089Y-37105575D01*
X108335971Y-37111421D01*
X108343243Y-37118011D01*
X108484665Y-37259433D01*
X108491255Y-37266705D01*
X108497101Y-37274587D01*
X108502146Y-37283004D01*
X108506342Y-37291876D01*
X108509648Y-37301116D01*
X108512033Y-37310635D01*
X108513472Y-37320342D01*
X108513954Y-37330144D01*
X108513472Y-37339946D01*
X108512033Y-37349653D01*
X108509648Y-37359172D01*
X108506342Y-37368412D01*
X108502146Y-37377284D01*
X108497101Y-37385701D01*
X108491255Y-37393583D01*
X108484665Y-37400855D01*
X107512393Y-38373127D01*
X107505121Y-38379717D01*
X107497239Y-38385563D01*
X107488822Y-38390608D01*
X107479950Y-38394804D01*
X107470710Y-38398110D01*
X107461191Y-38400495D01*
X107451484Y-38401934D01*
X107441682Y-38402416D01*
X107431880Y-38401934D01*
X107422173Y-38400495D01*
X107412654Y-38398110D01*
X107403414Y-38394804D01*
X107394542Y-38390608D01*
X107386125Y-38385563D01*
X107378243Y-38379717D01*
X107370971Y-38373127D01*
X107229549Y-38231705D01*
X107222959Y-38224433D01*
X107217113Y-38216551D01*
X107212068Y-38208134D01*
X107207872Y-38199262D01*
X107204566Y-38190022D01*
X107202181Y-38180503D01*
X107200742Y-38170796D01*
X107200260Y-38160994D01*
X107200742Y-38151192D01*
X107202181Y-38141485D01*
X107204566Y-38131966D01*
X107207872Y-38122726D01*
X107212068Y-38113854D01*
X107217113Y-38105437D01*
X107222959Y-38097555D01*
X107229549Y-38090283D01*
X108201821Y-37118011D01*
X108209093Y-37111421D01*
X108216975Y-37105575D01*
X108225392Y-37100530D01*
X108234264Y-37096334D01*
X108243504Y-37093028D01*
X108253023Y-37090643D01*
X108262730Y-37089204D01*
X108272532Y-37088722D01*
X108282334Y-37089204D01*
G37*
G36*
X107928781Y-36735651D02*
G01*
X107938488Y-36737090D01*
X107948007Y-36739475D01*
X107957247Y-36742781D01*
X107966119Y-36746977D01*
X107974536Y-36752022D01*
X107982418Y-36757868D01*
X107989690Y-36764458D01*
X108131112Y-36905880D01*
X108137702Y-36913152D01*
X108143548Y-36921034D01*
X108148593Y-36929451D01*
X108152789Y-36938323D01*
X108156095Y-36947563D01*
X108158480Y-36957082D01*
X108159919Y-36966789D01*
X108160401Y-36976591D01*
X108159919Y-36986393D01*
X108158480Y-36996100D01*
X108156095Y-37005619D01*
X108152789Y-37014859D01*
X108148593Y-37023731D01*
X108143548Y-37032148D01*
X108137702Y-37040030D01*
X108131112Y-37047302D01*
X107158840Y-38019574D01*
X107151568Y-38026164D01*
X107143686Y-38032010D01*
X107135269Y-38037055D01*
X107126397Y-38041251D01*
X107117157Y-38044557D01*
X107107638Y-38046942D01*
X107097931Y-38048381D01*
X107088129Y-38048863D01*
X107078327Y-38048381D01*
X107068620Y-38046942D01*
X107059101Y-38044557D01*
X107049861Y-38041251D01*
X107040989Y-38037055D01*
X107032572Y-38032010D01*
X107024690Y-38026164D01*
X107017418Y-38019574D01*
X106875996Y-37878152D01*
X106869406Y-37870880D01*
X106863560Y-37862998D01*
X106858515Y-37854581D01*
X106854319Y-37845709D01*
X106851013Y-37836469D01*
X106848628Y-37826950D01*
X106847189Y-37817243D01*
X106846707Y-37807441D01*
X106847189Y-37797639D01*
X106848628Y-37787932D01*
X106851013Y-37778413D01*
X106854319Y-37769173D01*
X106858515Y-37760301D01*
X106863560Y-37751884D01*
X106869406Y-37744002D01*
X106875996Y-37736730D01*
X107848268Y-36764458D01*
X107855540Y-36757868D01*
X107863422Y-36752022D01*
X107871839Y-36746977D01*
X107880711Y-36742781D01*
X107889951Y-36739475D01*
X107899470Y-36737090D01*
X107909177Y-36735651D01*
X107918979Y-36735169D01*
X107928781Y-36735651D01*
G37*
G36*
X107575227Y-36382097D02*
G01*
X107584934Y-36383536D01*
X107594453Y-36385921D01*
X107603693Y-36389227D01*
X107612565Y-36393423D01*
X107620982Y-36398468D01*
X107628864Y-36404314D01*
X107636136Y-36410904D01*
X107777558Y-36552326D01*
X107784148Y-36559598D01*
X107789994Y-36567480D01*
X107795039Y-36575897D01*
X107799235Y-36584769D01*
X107802541Y-36594009D01*
X107804926Y-36603528D01*
X107806365Y-36613235D01*
X107806847Y-36623037D01*
X107806365Y-36632839D01*
X107804926Y-36642546D01*
X107802541Y-36652065D01*
X107799235Y-36661305D01*
X107795039Y-36670177D01*
X107789994Y-36678594D01*
X107784148Y-36686476D01*
X107777558Y-36693748D01*
X106805286Y-37666020D01*
X106798014Y-37672610D01*
X106790132Y-37678456D01*
X106781715Y-37683501D01*
X106772843Y-37687697D01*
X106763603Y-37691003D01*
X106754084Y-37693388D01*
X106744377Y-37694827D01*
X106734575Y-37695309D01*
X106724773Y-37694827D01*
X106715066Y-37693388D01*
X106705547Y-37691003D01*
X106696307Y-37687697D01*
X106687435Y-37683501D01*
X106679018Y-37678456D01*
X106671136Y-37672610D01*
X106663864Y-37666020D01*
X106522442Y-37524598D01*
X106515852Y-37517326D01*
X106510006Y-37509444D01*
X106504961Y-37501027D01*
X106500765Y-37492155D01*
X106497459Y-37482915D01*
X106495074Y-37473396D01*
X106493635Y-37463689D01*
X106493153Y-37453887D01*
X106493635Y-37444085D01*
X106495074Y-37434378D01*
X106497459Y-37424859D01*
X106500765Y-37415619D01*
X106504961Y-37406747D01*
X106510006Y-37398330D01*
X106515852Y-37390448D01*
X106522442Y-37383176D01*
X107494714Y-36410904D01*
X107501986Y-36404314D01*
X107509868Y-36398468D01*
X107518285Y-36393423D01*
X107527157Y-36389227D01*
X107536397Y-36385921D01*
X107545916Y-36383536D01*
X107555623Y-36382097D01*
X107565425Y-36381615D01*
X107575227Y-36382097D01*
G37*
G36*
X107221674Y-36028544D02*
G01*
X107231381Y-36029983D01*
X107240900Y-36032368D01*
X107250140Y-36035674D01*
X107259012Y-36039870D01*
X107267429Y-36044915D01*
X107275311Y-36050761D01*
X107282583Y-36057351D01*
X107424005Y-36198773D01*
X107430595Y-36206045D01*
X107436441Y-36213927D01*
X107441486Y-36222344D01*
X107445682Y-36231216D01*
X107448988Y-36240456D01*
X107451373Y-36249975D01*
X107452812Y-36259682D01*
X107453294Y-36269484D01*
X107452812Y-36279286D01*
X107451373Y-36288993D01*
X107448988Y-36298512D01*
X107445682Y-36307752D01*
X107441486Y-36316624D01*
X107436441Y-36325041D01*
X107430595Y-36332923D01*
X107424005Y-36340195D01*
X106451733Y-37312467D01*
X106444461Y-37319057D01*
X106436579Y-37324903D01*
X106428162Y-37329948D01*
X106419290Y-37334144D01*
X106410050Y-37337450D01*
X106400531Y-37339835D01*
X106390824Y-37341274D01*
X106381022Y-37341756D01*
X106371220Y-37341274D01*
X106361513Y-37339835D01*
X106351994Y-37337450D01*
X106342754Y-37334144D01*
X106333882Y-37329948D01*
X106325465Y-37324903D01*
X106317583Y-37319057D01*
X106310311Y-37312467D01*
X106168889Y-37171045D01*
X106162299Y-37163773D01*
X106156453Y-37155891D01*
X106151408Y-37147474D01*
X106147212Y-37138602D01*
X106143906Y-37129362D01*
X106141521Y-37119843D01*
X106140082Y-37110136D01*
X106139600Y-37100334D01*
X106140082Y-37090532D01*
X106141521Y-37080825D01*
X106143906Y-37071306D01*
X106147212Y-37062066D01*
X106151408Y-37053194D01*
X106156453Y-37044777D01*
X106162299Y-37036895D01*
X106168889Y-37029623D01*
X107141161Y-36057351D01*
X107148433Y-36050761D01*
X107156315Y-36044915D01*
X107164732Y-36039870D01*
X107173604Y-36035674D01*
X107182844Y-36032368D01*
X107192363Y-36029983D01*
X107202070Y-36028544D01*
X107211872Y-36028062D01*
X107221674Y-36028544D01*
G37*
G36*
X106868120Y-35674990D02*
G01*
X106877827Y-35676429D01*
X106887346Y-35678814D01*
X106896586Y-35682120D01*
X106905458Y-35686316D01*
X106913875Y-35691361D01*
X106921757Y-35697207D01*
X106929029Y-35703797D01*
X107070451Y-35845219D01*
X107077041Y-35852491D01*
X107082887Y-35860373D01*
X107087932Y-35868790D01*
X107092128Y-35877662D01*
X107095434Y-35886902D01*
X107097819Y-35896421D01*
X107099258Y-35906128D01*
X107099740Y-35915930D01*
X107099258Y-35925732D01*
X107097819Y-35935439D01*
X107095434Y-35944958D01*
X107092128Y-35954198D01*
X107087932Y-35963070D01*
X107082887Y-35971487D01*
X107077041Y-35979369D01*
X107070451Y-35986641D01*
X106098179Y-36958913D01*
X106090907Y-36965503D01*
X106083025Y-36971349D01*
X106074608Y-36976394D01*
X106065736Y-36980590D01*
X106056496Y-36983896D01*
X106046977Y-36986281D01*
X106037270Y-36987720D01*
X106027468Y-36988202D01*
X106017666Y-36987720D01*
X106007959Y-36986281D01*
X105998440Y-36983896D01*
X105989200Y-36980590D01*
X105980328Y-36976394D01*
X105971911Y-36971349D01*
X105964029Y-36965503D01*
X105956757Y-36958913D01*
X105815335Y-36817491D01*
X105808745Y-36810219D01*
X105802899Y-36802337D01*
X105797854Y-36793920D01*
X105793658Y-36785048D01*
X105790352Y-36775808D01*
X105787967Y-36766289D01*
X105786528Y-36756582D01*
X105786046Y-36746780D01*
X105786528Y-36736978D01*
X105787967Y-36727271D01*
X105790352Y-36717752D01*
X105793658Y-36708512D01*
X105797854Y-36699640D01*
X105802899Y-36691223D01*
X105808745Y-36683341D01*
X105815335Y-36676069D01*
X106787607Y-35703797D01*
X106794879Y-35697207D01*
X106802761Y-35691361D01*
X106811178Y-35686316D01*
X106820050Y-35682120D01*
X106829290Y-35678814D01*
X106838809Y-35676429D01*
X106848516Y-35674990D01*
X106858318Y-35674508D01*
X106868120Y-35674990D01*
G37*
G36*
X104039694Y-35674990D02*
G01*
X104049401Y-35676429D01*
X104058920Y-35678814D01*
X104068160Y-35682120D01*
X104077032Y-35686316D01*
X104085449Y-35691361D01*
X104093331Y-35697207D01*
X104100603Y-35703797D01*
X105072875Y-36676069D01*
X105079465Y-36683341D01*
X105085311Y-36691223D01*
X105090356Y-36699640D01*
X105094552Y-36708512D01*
X105097858Y-36717752D01*
X105100243Y-36727271D01*
X105101682Y-36736978D01*
X105102164Y-36746780D01*
X105101682Y-36756582D01*
X105100243Y-36766289D01*
X105097858Y-36775808D01*
X105094552Y-36785048D01*
X105090356Y-36793920D01*
X105085311Y-36802337D01*
X105079465Y-36810219D01*
X105072875Y-36817491D01*
X104931453Y-36958913D01*
X104924181Y-36965503D01*
X104916299Y-36971349D01*
X104907882Y-36976394D01*
X104899010Y-36980590D01*
X104889770Y-36983896D01*
X104880251Y-36986281D01*
X104870544Y-36987720D01*
X104860742Y-36988202D01*
X104850940Y-36987720D01*
X104841233Y-36986281D01*
X104831714Y-36983896D01*
X104822474Y-36980590D01*
X104813602Y-36976394D01*
X104805185Y-36971349D01*
X104797303Y-36965503D01*
X104790031Y-36958913D01*
X103817759Y-35986641D01*
X103811169Y-35979369D01*
X103805323Y-35971487D01*
X103800278Y-35963070D01*
X103796082Y-35954198D01*
X103792776Y-35944958D01*
X103790391Y-35935439D01*
X103788952Y-35925732D01*
X103788470Y-35915930D01*
X103788952Y-35906128D01*
X103790391Y-35896421D01*
X103792776Y-35886902D01*
X103796082Y-35877662D01*
X103800278Y-35868790D01*
X103805323Y-35860373D01*
X103811169Y-35852491D01*
X103817759Y-35845219D01*
X103959181Y-35703797D01*
X103966453Y-35697207D01*
X103974335Y-35691361D01*
X103982752Y-35686316D01*
X103991624Y-35682120D01*
X104000864Y-35678814D01*
X104010383Y-35676429D01*
X104020090Y-35674990D01*
X104029892Y-35674508D01*
X104039694Y-35674990D01*
G37*
G36*
X103686140Y-36028544D02*
G01*
X103695847Y-36029983D01*
X103705366Y-36032368D01*
X103714606Y-36035674D01*
X103723478Y-36039870D01*
X103731895Y-36044915D01*
X103739777Y-36050761D01*
X103747049Y-36057351D01*
X104719321Y-37029623D01*
X104725911Y-37036895D01*
X104731757Y-37044777D01*
X104736802Y-37053194D01*
X104740998Y-37062066D01*
X104744304Y-37071306D01*
X104746689Y-37080825D01*
X104748128Y-37090532D01*
X104748610Y-37100334D01*
X104748128Y-37110136D01*
X104746689Y-37119843D01*
X104744304Y-37129362D01*
X104740998Y-37138602D01*
X104736802Y-37147474D01*
X104731757Y-37155891D01*
X104725911Y-37163773D01*
X104719321Y-37171045D01*
X104577899Y-37312467D01*
X104570627Y-37319057D01*
X104562745Y-37324903D01*
X104554328Y-37329948D01*
X104545456Y-37334144D01*
X104536216Y-37337450D01*
X104526697Y-37339835D01*
X104516990Y-37341274D01*
X104507188Y-37341756D01*
X104497386Y-37341274D01*
X104487679Y-37339835D01*
X104478160Y-37337450D01*
X104468920Y-37334144D01*
X104460048Y-37329948D01*
X104451631Y-37324903D01*
X104443749Y-37319057D01*
X104436477Y-37312467D01*
X103464205Y-36340195D01*
X103457615Y-36332923D01*
X103451769Y-36325041D01*
X103446724Y-36316624D01*
X103442528Y-36307752D01*
X103439222Y-36298512D01*
X103436837Y-36288993D01*
X103435398Y-36279286D01*
X103434916Y-36269484D01*
X103435398Y-36259682D01*
X103436837Y-36249975D01*
X103439222Y-36240456D01*
X103442528Y-36231216D01*
X103446724Y-36222344D01*
X103451769Y-36213927D01*
X103457615Y-36206045D01*
X103464205Y-36198773D01*
X103605627Y-36057351D01*
X103612899Y-36050761D01*
X103620781Y-36044915D01*
X103629198Y-36039870D01*
X103638070Y-36035674D01*
X103647310Y-36032368D01*
X103656829Y-36029983D01*
X103666536Y-36028544D01*
X103676338Y-36028062D01*
X103686140Y-36028544D01*
G37*
G36*
X103332587Y-36382097D02*
G01*
X103342294Y-36383536D01*
X103351813Y-36385921D01*
X103361053Y-36389227D01*
X103369925Y-36393423D01*
X103378342Y-36398468D01*
X103386224Y-36404314D01*
X103393496Y-36410904D01*
X104365768Y-37383176D01*
X104372358Y-37390448D01*
X104378204Y-37398330D01*
X104383249Y-37406747D01*
X104387445Y-37415619D01*
X104390751Y-37424859D01*
X104393136Y-37434378D01*
X104394575Y-37444085D01*
X104395057Y-37453887D01*
X104394575Y-37463689D01*
X104393136Y-37473396D01*
X104390751Y-37482915D01*
X104387445Y-37492155D01*
X104383249Y-37501027D01*
X104378204Y-37509444D01*
X104372358Y-37517326D01*
X104365768Y-37524598D01*
X104224346Y-37666020D01*
X104217074Y-37672610D01*
X104209192Y-37678456D01*
X104200775Y-37683501D01*
X104191903Y-37687697D01*
X104182663Y-37691003D01*
X104173144Y-37693388D01*
X104163437Y-37694827D01*
X104153635Y-37695309D01*
X104143833Y-37694827D01*
X104134126Y-37693388D01*
X104124607Y-37691003D01*
X104115367Y-37687697D01*
X104106495Y-37683501D01*
X104098078Y-37678456D01*
X104090196Y-37672610D01*
X104082924Y-37666020D01*
X103110652Y-36693748D01*
X103104062Y-36686476D01*
X103098216Y-36678594D01*
X103093171Y-36670177D01*
X103088975Y-36661305D01*
X103085669Y-36652065D01*
X103083284Y-36642546D01*
X103081845Y-36632839D01*
X103081363Y-36623037D01*
X103081845Y-36613235D01*
X103083284Y-36603528D01*
X103085669Y-36594009D01*
X103088975Y-36584769D01*
X103093171Y-36575897D01*
X103098216Y-36567480D01*
X103104062Y-36559598D01*
X103110652Y-36552326D01*
X103252074Y-36410904D01*
X103259346Y-36404314D01*
X103267228Y-36398468D01*
X103275645Y-36393423D01*
X103284517Y-36389227D01*
X103293757Y-36385921D01*
X103303276Y-36383536D01*
X103312983Y-36382097D01*
X103322785Y-36381615D01*
X103332587Y-36382097D01*
G37*
G36*
X102979033Y-36735651D02*
G01*
X102988740Y-36737090D01*
X102998259Y-36739475D01*
X103007499Y-36742781D01*
X103016371Y-36746977D01*
X103024788Y-36752022D01*
X103032670Y-36757868D01*
X103039942Y-36764458D01*
X104012214Y-37736730D01*
X104018804Y-37744002D01*
X104024650Y-37751884D01*
X104029695Y-37760301D01*
X104033891Y-37769173D01*
X104037197Y-37778413D01*
X104039582Y-37787932D01*
X104041021Y-37797639D01*
X104041503Y-37807441D01*
X104041021Y-37817243D01*
X104039582Y-37826950D01*
X104037197Y-37836469D01*
X104033891Y-37845709D01*
X104029695Y-37854581D01*
X104024650Y-37862998D01*
X104018804Y-37870880D01*
X104012214Y-37878152D01*
X103870792Y-38019574D01*
X103863520Y-38026164D01*
X103855638Y-38032010D01*
X103847221Y-38037055D01*
X103838349Y-38041251D01*
X103829109Y-38044557D01*
X103819590Y-38046942D01*
X103809883Y-38048381D01*
X103800081Y-38048863D01*
X103790279Y-38048381D01*
X103780572Y-38046942D01*
X103771053Y-38044557D01*
X103761813Y-38041251D01*
X103752941Y-38037055D01*
X103744524Y-38032010D01*
X103736642Y-38026164D01*
X103729370Y-38019574D01*
X102757098Y-37047302D01*
X102750508Y-37040030D01*
X102744662Y-37032148D01*
X102739617Y-37023731D01*
X102735421Y-37014859D01*
X102732115Y-37005619D01*
X102729730Y-36996100D01*
X102728291Y-36986393D01*
X102727809Y-36976591D01*
X102728291Y-36966789D01*
X102729730Y-36957082D01*
X102732115Y-36947563D01*
X102735421Y-36938323D01*
X102739617Y-36929451D01*
X102744662Y-36921034D01*
X102750508Y-36913152D01*
X102757098Y-36905880D01*
X102898520Y-36764458D01*
X102905792Y-36757868D01*
X102913674Y-36752022D01*
X102922091Y-36746977D01*
X102930963Y-36742781D01*
X102940203Y-36739475D01*
X102949722Y-36737090D01*
X102959429Y-36735651D01*
X102969231Y-36735169D01*
X102979033Y-36735651D01*
G37*
G36*
X102625480Y-37089204D02*
G01*
X102635187Y-37090643D01*
X102644706Y-37093028D01*
X102653946Y-37096334D01*
X102662818Y-37100530D01*
X102671235Y-37105575D01*
X102679117Y-37111421D01*
X102686389Y-37118011D01*
X103658661Y-38090283D01*
X103665251Y-38097555D01*
X103671097Y-38105437D01*
X103676142Y-38113854D01*
X103680338Y-38122726D01*
X103683644Y-38131966D01*
X103686029Y-38141485D01*
X103687468Y-38151192D01*
X103687950Y-38160994D01*
X103687468Y-38170796D01*
X103686029Y-38180503D01*
X103683644Y-38190022D01*
X103680338Y-38199262D01*
X103676142Y-38208134D01*
X103671097Y-38216551D01*
X103665251Y-38224433D01*
X103658661Y-38231705D01*
X103517239Y-38373127D01*
X103509967Y-38379717D01*
X103502085Y-38385563D01*
X103493668Y-38390608D01*
X103484796Y-38394804D01*
X103475556Y-38398110D01*
X103466037Y-38400495D01*
X103456330Y-38401934D01*
X103446528Y-38402416D01*
X103436726Y-38401934D01*
X103427019Y-38400495D01*
X103417500Y-38398110D01*
X103408260Y-38394804D01*
X103399388Y-38390608D01*
X103390971Y-38385563D01*
X103383089Y-38379717D01*
X103375817Y-38373127D01*
X102403545Y-37400855D01*
X102396955Y-37393583D01*
X102391109Y-37385701D01*
X102386064Y-37377284D01*
X102381868Y-37368412D01*
X102378562Y-37359172D01*
X102376177Y-37349653D01*
X102374738Y-37339946D01*
X102374256Y-37330144D01*
X102374738Y-37320342D01*
X102376177Y-37310635D01*
X102378562Y-37301116D01*
X102381868Y-37291876D01*
X102386064Y-37283004D01*
X102391109Y-37274587D01*
X102396955Y-37266705D01*
X102403545Y-37259433D01*
X102544967Y-37118011D01*
X102552239Y-37111421D01*
X102560121Y-37105575D01*
X102568538Y-37100530D01*
X102577410Y-37096334D01*
X102586650Y-37093028D01*
X102596169Y-37090643D01*
X102605876Y-37089204D01*
X102615678Y-37088722D01*
X102625480Y-37089204D01*
G37*
G36*
X102271927Y-37442757D02*
G01*
X102281634Y-37444196D01*
X102291153Y-37446581D01*
X102300393Y-37449887D01*
X102309265Y-37454083D01*
X102317682Y-37459128D01*
X102325564Y-37464974D01*
X102332836Y-37471564D01*
X103305108Y-38443836D01*
X103311698Y-38451108D01*
X103317544Y-38458990D01*
X103322589Y-38467407D01*
X103326785Y-38476279D01*
X103330091Y-38485519D01*
X103332476Y-38495038D01*
X103333915Y-38504745D01*
X103334397Y-38514547D01*
X103333915Y-38524349D01*
X103332476Y-38534056D01*
X103330091Y-38543575D01*
X103326785Y-38552815D01*
X103322589Y-38561687D01*
X103317544Y-38570104D01*
X103311698Y-38577986D01*
X103305108Y-38585258D01*
X103163686Y-38726680D01*
X103156414Y-38733270D01*
X103148532Y-38739116D01*
X103140115Y-38744161D01*
X103131243Y-38748357D01*
X103122003Y-38751663D01*
X103112484Y-38754048D01*
X103102777Y-38755487D01*
X103092975Y-38755969D01*
X103083173Y-38755487D01*
X103073466Y-38754048D01*
X103063947Y-38751663D01*
X103054707Y-38748357D01*
X103045835Y-38744161D01*
X103037418Y-38739116D01*
X103029536Y-38733270D01*
X103022264Y-38726680D01*
X102049992Y-37754408D01*
X102043402Y-37747136D01*
X102037556Y-37739254D01*
X102032511Y-37730837D01*
X102028315Y-37721965D01*
X102025009Y-37712725D01*
X102022624Y-37703206D01*
X102021185Y-37693499D01*
X102020703Y-37683697D01*
X102021185Y-37673895D01*
X102022624Y-37664188D01*
X102025009Y-37654669D01*
X102028315Y-37645429D01*
X102032511Y-37636557D01*
X102037556Y-37628140D01*
X102043402Y-37620258D01*
X102049992Y-37612986D01*
X102191414Y-37471564D01*
X102198686Y-37464974D01*
X102206568Y-37459128D01*
X102214985Y-37454083D01*
X102223857Y-37449887D01*
X102233097Y-37446581D01*
X102242616Y-37444196D01*
X102252323Y-37442757D01*
X102262125Y-37442275D01*
X102271927Y-37442757D01*
G37*
G36*
X101918373Y-37796311D02*
G01*
X101928080Y-37797750D01*
X101937599Y-37800135D01*
X101946839Y-37803441D01*
X101955711Y-37807637D01*
X101964128Y-37812682D01*
X101972010Y-37818528D01*
X101979282Y-37825118D01*
X102951554Y-38797390D01*
X102958144Y-38804662D01*
X102963990Y-38812544D01*
X102969035Y-38820961D01*
X102973231Y-38829833D01*
X102976537Y-38839073D01*
X102978922Y-38848592D01*
X102980361Y-38858299D01*
X102980843Y-38868101D01*
X102980361Y-38877903D01*
X102978922Y-38887610D01*
X102976537Y-38897129D01*
X102973231Y-38906369D01*
X102969035Y-38915241D01*
X102963990Y-38923658D01*
X102958144Y-38931540D01*
X102951554Y-38938812D01*
X102810132Y-39080234D01*
X102802860Y-39086824D01*
X102794978Y-39092670D01*
X102786561Y-39097715D01*
X102777689Y-39101911D01*
X102768449Y-39105217D01*
X102758930Y-39107602D01*
X102749223Y-39109041D01*
X102739421Y-39109523D01*
X102729619Y-39109041D01*
X102719912Y-39107602D01*
X102710393Y-39105217D01*
X102701153Y-39101911D01*
X102692281Y-39097715D01*
X102683864Y-39092670D01*
X102675982Y-39086824D01*
X102668710Y-39080234D01*
X101696438Y-38107962D01*
X101689848Y-38100690D01*
X101684002Y-38092808D01*
X101678957Y-38084391D01*
X101674761Y-38075519D01*
X101671455Y-38066279D01*
X101669070Y-38056760D01*
X101667631Y-38047053D01*
X101667149Y-38037251D01*
X101667631Y-38027449D01*
X101669070Y-38017742D01*
X101671455Y-38008223D01*
X101674761Y-37998983D01*
X101678957Y-37990111D01*
X101684002Y-37981694D01*
X101689848Y-37973812D01*
X101696438Y-37966540D01*
X101837860Y-37825118D01*
X101845132Y-37818528D01*
X101853014Y-37812682D01*
X101861431Y-37807637D01*
X101870303Y-37803441D01*
X101879543Y-37800135D01*
X101889062Y-37797750D01*
X101898769Y-37796311D01*
X101908571Y-37795829D01*
X101918373Y-37796311D01*
G37*
G36*
X101564820Y-38149864D02*
G01*
X101574527Y-38151303D01*
X101584046Y-38153688D01*
X101593286Y-38156994D01*
X101602158Y-38161190D01*
X101610575Y-38166235D01*
X101618457Y-38172081D01*
X101625729Y-38178671D01*
X102598001Y-39150943D01*
X102604591Y-39158215D01*
X102610437Y-39166097D01*
X102615482Y-39174514D01*
X102619678Y-39183386D01*
X102622984Y-39192626D01*
X102625369Y-39202145D01*
X102626808Y-39211852D01*
X102627290Y-39221654D01*
X102626808Y-39231456D01*
X102625369Y-39241163D01*
X102622984Y-39250682D01*
X102619678Y-39259922D01*
X102615482Y-39268794D01*
X102610437Y-39277211D01*
X102604591Y-39285093D01*
X102598001Y-39292365D01*
X102456579Y-39433787D01*
X102449307Y-39440377D01*
X102441425Y-39446223D01*
X102433008Y-39451268D01*
X102424136Y-39455464D01*
X102414896Y-39458770D01*
X102405377Y-39461155D01*
X102395670Y-39462594D01*
X102385868Y-39463076D01*
X102376066Y-39462594D01*
X102366359Y-39461155D01*
X102356840Y-39458770D01*
X102347600Y-39455464D01*
X102338728Y-39451268D01*
X102330311Y-39446223D01*
X102322429Y-39440377D01*
X102315157Y-39433787D01*
X101342885Y-38461515D01*
X101336295Y-38454243D01*
X101330449Y-38446361D01*
X101325404Y-38437944D01*
X101321208Y-38429072D01*
X101317902Y-38419832D01*
X101315517Y-38410313D01*
X101314078Y-38400606D01*
X101313596Y-38390804D01*
X101314078Y-38381002D01*
X101315517Y-38371295D01*
X101317902Y-38361776D01*
X101321208Y-38352536D01*
X101325404Y-38343664D01*
X101330449Y-38335247D01*
X101336295Y-38327365D01*
X101342885Y-38320093D01*
X101484307Y-38178671D01*
X101491579Y-38172081D01*
X101499461Y-38166235D01*
X101507878Y-38161190D01*
X101516750Y-38156994D01*
X101525990Y-38153688D01*
X101535509Y-38151303D01*
X101545216Y-38149864D01*
X101555018Y-38149382D01*
X101564820Y-38149864D01*
G37*
G36*
X101211267Y-38503417D02*
G01*
X101220974Y-38504856D01*
X101230493Y-38507241D01*
X101239733Y-38510547D01*
X101248605Y-38514743D01*
X101257022Y-38519788D01*
X101264904Y-38525634D01*
X101272176Y-38532224D01*
X102244448Y-39504496D01*
X102251038Y-39511768D01*
X102256884Y-39519650D01*
X102261929Y-39528067D01*
X102266125Y-39536939D01*
X102269431Y-39546179D01*
X102271816Y-39555698D01*
X102273255Y-39565405D01*
X102273737Y-39575207D01*
X102273255Y-39585009D01*
X102271816Y-39594716D01*
X102269431Y-39604235D01*
X102266125Y-39613475D01*
X102261929Y-39622347D01*
X102256884Y-39630764D01*
X102251038Y-39638646D01*
X102244448Y-39645918D01*
X102103026Y-39787340D01*
X102095754Y-39793930D01*
X102087872Y-39799776D01*
X102079455Y-39804821D01*
X102070583Y-39809017D01*
X102061343Y-39812323D01*
X102051824Y-39814708D01*
X102042117Y-39816147D01*
X102032315Y-39816629D01*
X102022513Y-39816147D01*
X102012806Y-39814708D01*
X102003287Y-39812323D01*
X101994047Y-39809017D01*
X101985175Y-39804821D01*
X101976758Y-39799776D01*
X101968876Y-39793930D01*
X101961604Y-39787340D01*
X100989332Y-38815068D01*
X100982742Y-38807796D01*
X100976896Y-38799914D01*
X100971851Y-38791497D01*
X100967655Y-38782625D01*
X100964349Y-38773385D01*
X100961964Y-38763866D01*
X100960525Y-38754159D01*
X100960043Y-38744357D01*
X100960525Y-38734555D01*
X100961964Y-38724848D01*
X100964349Y-38715329D01*
X100967655Y-38706089D01*
X100971851Y-38697217D01*
X100976896Y-38688800D01*
X100982742Y-38680918D01*
X100989332Y-38673646D01*
X101130754Y-38532224D01*
X101138026Y-38525634D01*
X101145908Y-38519788D01*
X101154325Y-38514743D01*
X101163197Y-38510547D01*
X101172437Y-38507241D01*
X101181956Y-38504856D01*
X101191663Y-38503417D01*
X101201465Y-38502935D01*
X101211267Y-38503417D01*
G37*
G36*
X100857713Y-38856971D02*
G01*
X100867420Y-38858410D01*
X100876939Y-38860795D01*
X100886179Y-38864101D01*
X100895051Y-38868297D01*
X100903468Y-38873342D01*
X100911350Y-38879188D01*
X100918622Y-38885778D01*
X101890894Y-39858050D01*
X101897484Y-39865322D01*
X101903330Y-39873204D01*
X101908375Y-39881621D01*
X101912571Y-39890493D01*
X101915877Y-39899733D01*
X101918262Y-39909252D01*
X101919701Y-39918959D01*
X101920183Y-39928761D01*
X101919701Y-39938563D01*
X101918262Y-39948270D01*
X101915877Y-39957789D01*
X101912571Y-39967029D01*
X101908375Y-39975901D01*
X101903330Y-39984318D01*
X101897484Y-39992200D01*
X101890894Y-39999472D01*
X101749472Y-40140894D01*
X101742200Y-40147484D01*
X101734318Y-40153330D01*
X101725901Y-40158375D01*
X101717029Y-40162571D01*
X101707789Y-40165877D01*
X101698270Y-40168262D01*
X101688563Y-40169701D01*
X101678761Y-40170183D01*
X101668959Y-40169701D01*
X101659252Y-40168262D01*
X101649733Y-40165877D01*
X101640493Y-40162571D01*
X101631621Y-40158375D01*
X101623204Y-40153330D01*
X101615322Y-40147484D01*
X101608050Y-40140894D01*
X100635778Y-39168622D01*
X100629188Y-39161350D01*
X100623342Y-39153468D01*
X100618297Y-39145051D01*
X100614101Y-39136179D01*
X100610795Y-39126939D01*
X100608410Y-39117420D01*
X100606971Y-39107713D01*
X100606489Y-39097911D01*
X100606971Y-39088109D01*
X100608410Y-39078402D01*
X100610795Y-39068883D01*
X100614101Y-39059643D01*
X100618297Y-39050771D01*
X100623342Y-39042354D01*
X100629188Y-39034472D01*
X100635778Y-39027200D01*
X100777200Y-38885778D01*
X100784472Y-38879188D01*
X100792354Y-38873342D01*
X100800771Y-38868297D01*
X100809643Y-38864101D01*
X100818883Y-38860795D01*
X100828402Y-38858410D01*
X100838109Y-38856971D01*
X100847911Y-38856489D01*
X100857713Y-38856971D01*
G37*
G36*
X100504160Y-39210524D02*
G01*
X100513867Y-39211963D01*
X100523386Y-39214348D01*
X100532626Y-39217654D01*
X100541498Y-39221850D01*
X100549915Y-39226895D01*
X100557797Y-39232741D01*
X100565069Y-39239331D01*
X101537341Y-40211603D01*
X101543931Y-40218875D01*
X101549777Y-40226757D01*
X101554822Y-40235174D01*
X101559018Y-40244046D01*
X101562324Y-40253286D01*
X101564709Y-40262805D01*
X101566148Y-40272512D01*
X101566630Y-40282314D01*
X101566148Y-40292116D01*
X101564709Y-40301823D01*
X101562324Y-40311342D01*
X101559018Y-40320582D01*
X101554822Y-40329454D01*
X101549777Y-40337871D01*
X101543931Y-40345753D01*
X101537341Y-40353025D01*
X101395919Y-40494447D01*
X101388647Y-40501037D01*
X101380765Y-40506883D01*
X101372348Y-40511928D01*
X101363476Y-40516124D01*
X101354236Y-40519430D01*
X101344717Y-40521815D01*
X101335010Y-40523254D01*
X101325208Y-40523736D01*
X101315406Y-40523254D01*
X101305699Y-40521815D01*
X101296180Y-40519430D01*
X101286940Y-40516124D01*
X101278068Y-40511928D01*
X101269651Y-40506883D01*
X101261769Y-40501037D01*
X101254497Y-40494447D01*
X100282225Y-39522175D01*
X100275635Y-39514903D01*
X100269789Y-39507021D01*
X100264744Y-39498604D01*
X100260548Y-39489732D01*
X100257242Y-39480492D01*
X100254857Y-39470973D01*
X100253418Y-39461266D01*
X100252936Y-39451464D01*
X100253418Y-39441662D01*
X100254857Y-39431955D01*
X100257242Y-39422436D01*
X100260548Y-39413196D01*
X100264744Y-39404324D01*
X100269789Y-39395907D01*
X100275635Y-39388025D01*
X100282225Y-39380753D01*
X100423647Y-39239331D01*
X100430919Y-39232741D01*
X100438801Y-39226895D01*
X100447218Y-39221850D01*
X100456090Y-39217654D01*
X100465330Y-39214348D01*
X100474849Y-39211963D01*
X100484556Y-39210524D01*
X100494358Y-39210042D01*
X100504160Y-39210524D01*
G37*
G36*
X100150606Y-39564078D02*
G01*
X100160313Y-39565517D01*
X100169832Y-39567902D01*
X100179072Y-39571208D01*
X100187944Y-39575404D01*
X100196361Y-39580449D01*
X100204243Y-39586295D01*
X100211515Y-39592885D01*
X101183787Y-40565157D01*
X101190377Y-40572429D01*
X101196223Y-40580311D01*
X101201268Y-40588728D01*
X101205464Y-40597600D01*
X101208770Y-40606840D01*
X101211155Y-40616359D01*
X101212594Y-40626066D01*
X101213076Y-40635868D01*
X101212594Y-40645670D01*
X101211155Y-40655377D01*
X101208770Y-40664896D01*
X101205464Y-40674136D01*
X101201268Y-40683008D01*
X101196223Y-40691425D01*
X101190377Y-40699307D01*
X101183787Y-40706579D01*
X101042365Y-40848001D01*
X101035093Y-40854591D01*
X101027211Y-40860437D01*
X101018794Y-40865482D01*
X101009922Y-40869678D01*
X101000682Y-40872984D01*
X100991163Y-40875369D01*
X100981456Y-40876808D01*
X100971654Y-40877290D01*
X100961852Y-40876808D01*
X100952145Y-40875369D01*
X100942626Y-40872984D01*
X100933386Y-40869678D01*
X100924514Y-40865482D01*
X100916097Y-40860437D01*
X100908215Y-40854591D01*
X100900943Y-40848001D01*
X99928671Y-39875729D01*
X99922081Y-39868457D01*
X99916235Y-39860575D01*
X99911190Y-39852158D01*
X99906994Y-39843286D01*
X99903688Y-39834046D01*
X99901303Y-39824527D01*
X99899864Y-39814820D01*
X99899382Y-39805018D01*
X99899864Y-39795216D01*
X99901303Y-39785509D01*
X99903688Y-39775990D01*
X99906994Y-39766750D01*
X99911190Y-39757878D01*
X99916235Y-39749461D01*
X99922081Y-39741579D01*
X99928671Y-39734307D01*
X100070093Y-39592885D01*
X100077365Y-39586295D01*
X100085247Y-39580449D01*
X100093664Y-39575404D01*
X100102536Y-39571208D01*
X100111776Y-39567902D01*
X100121295Y-39565517D01*
X100131002Y-39564078D01*
X100140804Y-39563596D01*
X100150606Y-39564078D01*
G37*
G36*
X100981456Y-41561654D02*
G01*
X100991163Y-41563093D01*
X101000682Y-41565478D01*
X101009922Y-41568784D01*
X101018794Y-41572980D01*
X101027211Y-41578025D01*
X101035093Y-41583871D01*
X101042365Y-41590461D01*
X101183787Y-41731883D01*
X101190377Y-41739155D01*
X101196223Y-41747037D01*
X101201268Y-41755454D01*
X101205464Y-41764326D01*
X101208770Y-41773566D01*
X101211155Y-41783085D01*
X101212594Y-41792792D01*
X101213076Y-41802594D01*
X101212594Y-41812396D01*
X101211155Y-41822103D01*
X101208770Y-41831622D01*
X101205464Y-41840862D01*
X101201268Y-41849734D01*
X101196223Y-41858151D01*
X101190377Y-41866033D01*
X101183787Y-41873305D01*
X100211515Y-42845577D01*
X100204243Y-42852167D01*
X100196361Y-42858013D01*
X100187944Y-42863058D01*
X100179072Y-42867254D01*
X100169832Y-42870560D01*
X100160313Y-42872945D01*
X100150606Y-42874384D01*
X100140804Y-42874866D01*
X100131002Y-42874384D01*
X100121295Y-42872945D01*
X100111776Y-42870560D01*
X100102536Y-42867254D01*
X100093664Y-42863058D01*
X100085247Y-42858013D01*
X100077365Y-42852167D01*
X100070093Y-42845577D01*
X99928671Y-42704155D01*
X99922081Y-42696883D01*
X99916235Y-42689001D01*
X99911190Y-42680584D01*
X99906994Y-42671712D01*
X99903688Y-42662472D01*
X99901303Y-42652953D01*
X99899864Y-42643246D01*
X99899382Y-42633444D01*
X99899864Y-42623642D01*
X99901303Y-42613935D01*
X99903688Y-42604416D01*
X99906994Y-42595176D01*
X99911190Y-42586304D01*
X99916235Y-42577887D01*
X99922081Y-42570005D01*
X99928671Y-42562733D01*
X100900943Y-41590461D01*
X100908215Y-41583871D01*
X100916097Y-41578025D01*
X100924514Y-41572980D01*
X100933386Y-41568784D01*
X100942626Y-41565478D01*
X100952145Y-41563093D01*
X100961852Y-41561654D01*
X100971654Y-41561172D01*
X100981456Y-41561654D01*
G37*
G36*
X101335010Y-41915208D02*
G01*
X101344717Y-41916647D01*
X101354236Y-41919032D01*
X101363476Y-41922338D01*
X101372348Y-41926534D01*
X101380765Y-41931579D01*
X101388647Y-41937425D01*
X101395919Y-41944015D01*
X101537341Y-42085437D01*
X101543931Y-42092709D01*
X101549777Y-42100591D01*
X101554822Y-42109008D01*
X101559018Y-42117880D01*
X101562324Y-42127120D01*
X101564709Y-42136639D01*
X101566148Y-42146346D01*
X101566630Y-42156148D01*
X101566148Y-42165950D01*
X101564709Y-42175657D01*
X101562324Y-42185176D01*
X101559018Y-42194416D01*
X101554822Y-42203288D01*
X101549777Y-42211705D01*
X101543931Y-42219587D01*
X101537341Y-42226859D01*
X100565069Y-43199131D01*
X100557797Y-43205721D01*
X100549915Y-43211567D01*
X100541498Y-43216612D01*
X100532626Y-43220808D01*
X100523386Y-43224114D01*
X100513867Y-43226499D01*
X100504160Y-43227938D01*
X100494358Y-43228420D01*
X100484556Y-43227938D01*
X100474849Y-43226499D01*
X100465330Y-43224114D01*
X100456090Y-43220808D01*
X100447218Y-43216612D01*
X100438801Y-43211567D01*
X100430919Y-43205721D01*
X100423647Y-43199131D01*
X100282225Y-43057709D01*
X100275635Y-43050437D01*
X100269789Y-43042555D01*
X100264744Y-43034138D01*
X100260548Y-43025266D01*
X100257242Y-43016026D01*
X100254857Y-43006507D01*
X100253418Y-42996800D01*
X100252936Y-42986998D01*
X100253418Y-42977196D01*
X100254857Y-42967489D01*
X100257242Y-42957970D01*
X100260548Y-42948730D01*
X100264744Y-42939858D01*
X100269789Y-42931441D01*
X100275635Y-42923559D01*
X100282225Y-42916287D01*
X101254497Y-41944015D01*
X101261769Y-41937425D01*
X101269651Y-41931579D01*
X101278068Y-41926534D01*
X101286940Y-41922338D01*
X101296180Y-41919032D01*
X101305699Y-41916647D01*
X101315406Y-41915208D01*
X101325208Y-41914726D01*
X101335010Y-41915208D01*
G37*
G36*
X101688563Y-42268761D02*
G01*
X101698270Y-42270200D01*
X101707789Y-42272585D01*
X101717029Y-42275891D01*
X101725901Y-42280087D01*
X101734318Y-42285132D01*
X101742200Y-42290978D01*
X101749472Y-42297568D01*
X101890894Y-42438990D01*
X101897484Y-42446262D01*
X101903330Y-42454144D01*
X101908375Y-42462561D01*
X101912571Y-42471433D01*
X101915877Y-42480673D01*
X101918262Y-42490192D01*
X101919701Y-42499899D01*
X101920183Y-42509701D01*
X101919701Y-42519503D01*
X101918262Y-42529210D01*
X101915877Y-42538729D01*
X101912571Y-42547969D01*
X101908375Y-42556841D01*
X101903330Y-42565258D01*
X101897484Y-42573140D01*
X101890894Y-42580412D01*
X100918622Y-43552684D01*
X100911350Y-43559274D01*
X100903468Y-43565120D01*
X100895051Y-43570165D01*
X100886179Y-43574361D01*
X100876939Y-43577667D01*
X100867420Y-43580052D01*
X100857713Y-43581491D01*
X100847911Y-43581973D01*
X100838109Y-43581491D01*
X100828402Y-43580052D01*
X100818883Y-43577667D01*
X100809643Y-43574361D01*
X100800771Y-43570165D01*
X100792354Y-43565120D01*
X100784472Y-43559274D01*
X100777200Y-43552684D01*
X100635778Y-43411262D01*
X100629188Y-43403990D01*
X100623342Y-43396108D01*
X100618297Y-43387691D01*
X100614101Y-43378819D01*
X100610795Y-43369579D01*
X100608410Y-43360060D01*
X100606971Y-43350353D01*
X100606489Y-43340551D01*
X100606971Y-43330749D01*
X100608410Y-43321042D01*
X100610795Y-43311523D01*
X100614101Y-43302283D01*
X100618297Y-43293411D01*
X100623342Y-43284994D01*
X100629188Y-43277112D01*
X100635778Y-43269840D01*
X101608050Y-42297568D01*
X101615322Y-42290978D01*
X101623204Y-42285132D01*
X101631621Y-42280087D01*
X101640493Y-42275891D01*
X101649733Y-42272585D01*
X101659252Y-42270200D01*
X101668959Y-42268761D01*
X101678761Y-42268279D01*
X101688563Y-42268761D01*
G37*
G36*
X102042117Y-42622315D02*
G01*
X102051824Y-42623754D01*
X102061343Y-42626139D01*
X102070583Y-42629445D01*
X102079455Y-42633641D01*
X102087872Y-42638686D01*
X102095754Y-42644532D01*
X102103026Y-42651122D01*
X102244448Y-42792544D01*
X102251038Y-42799816D01*
X102256884Y-42807698D01*
X102261929Y-42816115D01*
X102266125Y-42824987D01*
X102269431Y-42834227D01*
X102271816Y-42843746D01*
X102273255Y-42853453D01*
X102273737Y-42863255D01*
X102273255Y-42873057D01*
X102271816Y-42882764D01*
X102269431Y-42892283D01*
X102266125Y-42901523D01*
X102261929Y-42910395D01*
X102256884Y-42918812D01*
X102251038Y-42926694D01*
X102244448Y-42933966D01*
X101272176Y-43906238D01*
X101264904Y-43912828D01*
X101257022Y-43918674D01*
X101248605Y-43923719D01*
X101239733Y-43927915D01*
X101230493Y-43931221D01*
X101220974Y-43933606D01*
X101211267Y-43935045D01*
X101201465Y-43935527D01*
X101191663Y-43935045D01*
X101181956Y-43933606D01*
X101172437Y-43931221D01*
X101163197Y-43927915D01*
X101154325Y-43923719D01*
X101145908Y-43918674D01*
X101138026Y-43912828D01*
X101130754Y-43906238D01*
X100989332Y-43764816D01*
X100982742Y-43757544D01*
X100976896Y-43749662D01*
X100971851Y-43741245D01*
X100967655Y-43732373D01*
X100964349Y-43723133D01*
X100961964Y-43713614D01*
X100960525Y-43703907D01*
X100960043Y-43694105D01*
X100960525Y-43684303D01*
X100961964Y-43674596D01*
X100964349Y-43665077D01*
X100967655Y-43655837D01*
X100971851Y-43646965D01*
X100976896Y-43638548D01*
X100982742Y-43630666D01*
X100989332Y-43623394D01*
X101961604Y-42651122D01*
X101968876Y-42644532D01*
X101976758Y-42638686D01*
X101985175Y-42633641D01*
X101994047Y-42629445D01*
X102003287Y-42626139D01*
X102012806Y-42623754D01*
X102022513Y-42622315D01*
X102032315Y-42621833D01*
X102042117Y-42622315D01*
G37*
G36*
X102395670Y-42975868D02*
G01*
X102405377Y-42977307D01*
X102414896Y-42979692D01*
X102424136Y-42982998D01*
X102433008Y-42987194D01*
X102441425Y-42992239D01*
X102449307Y-42998085D01*
X102456579Y-43004675D01*
X102598001Y-43146097D01*
X102604591Y-43153369D01*
X102610437Y-43161251D01*
X102615482Y-43169668D01*
X102619678Y-43178540D01*
X102622984Y-43187780D01*
X102625369Y-43197299D01*
X102626808Y-43207006D01*
X102627290Y-43216808D01*
X102626808Y-43226610D01*
X102625369Y-43236317D01*
X102622984Y-43245836D01*
X102619678Y-43255076D01*
X102615482Y-43263948D01*
X102610437Y-43272365D01*
X102604591Y-43280247D01*
X102598001Y-43287519D01*
X101625729Y-44259791D01*
X101618457Y-44266381D01*
X101610575Y-44272227D01*
X101602158Y-44277272D01*
X101593286Y-44281468D01*
X101584046Y-44284774D01*
X101574527Y-44287159D01*
X101564820Y-44288598D01*
X101555018Y-44289080D01*
X101545216Y-44288598D01*
X101535509Y-44287159D01*
X101525990Y-44284774D01*
X101516750Y-44281468D01*
X101507878Y-44277272D01*
X101499461Y-44272227D01*
X101491579Y-44266381D01*
X101484307Y-44259791D01*
X101342885Y-44118369D01*
X101336295Y-44111097D01*
X101330449Y-44103215D01*
X101325404Y-44094798D01*
X101321208Y-44085926D01*
X101317902Y-44076686D01*
X101315517Y-44067167D01*
X101314078Y-44057460D01*
X101313596Y-44047658D01*
X101314078Y-44037856D01*
X101315517Y-44028149D01*
X101317902Y-44018630D01*
X101321208Y-44009390D01*
X101325404Y-44000518D01*
X101330449Y-43992101D01*
X101336295Y-43984219D01*
X101342885Y-43976947D01*
X102315157Y-43004675D01*
X102322429Y-42998085D01*
X102330311Y-42992239D01*
X102338728Y-42987194D01*
X102347600Y-42982998D01*
X102356840Y-42979692D01*
X102366359Y-42977307D01*
X102376066Y-42975868D01*
X102385868Y-42975386D01*
X102395670Y-42975868D01*
G37*
G36*
X102749223Y-43329421D02*
G01*
X102758930Y-43330860D01*
X102768449Y-43333245D01*
X102777689Y-43336551D01*
X102786561Y-43340747D01*
X102794978Y-43345792D01*
X102802860Y-43351638D01*
X102810132Y-43358228D01*
X102951554Y-43499650D01*
X102958144Y-43506922D01*
X102963990Y-43514804D01*
X102969035Y-43523221D01*
X102973231Y-43532093D01*
X102976537Y-43541333D01*
X102978922Y-43550852D01*
X102980361Y-43560559D01*
X102980843Y-43570361D01*
X102980361Y-43580163D01*
X102978922Y-43589870D01*
X102976537Y-43599389D01*
X102973231Y-43608629D01*
X102969035Y-43617501D01*
X102963990Y-43625918D01*
X102958144Y-43633800D01*
X102951554Y-43641072D01*
X101979282Y-44613344D01*
X101972010Y-44619934D01*
X101964128Y-44625780D01*
X101955711Y-44630825D01*
X101946839Y-44635021D01*
X101937599Y-44638327D01*
X101928080Y-44640712D01*
X101918373Y-44642151D01*
X101908571Y-44642633D01*
X101898769Y-44642151D01*
X101889062Y-44640712D01*
X101879543Y-44638327D01*
X101870303Y-44635021D01*
X101861431Y-44630825D01*
X101853014Y-44625780D01*
X101845132Y-44619934D01*
X101837860Y-44613344D01*
X101696438Y-44471922D01*
X101689848Y-44464650D01*
X101684002Y-44456768D01*
X101678957Y-44448351D01*
X101674761Y-44439479D01*
X101671455Y-44430239D01*
X101669070Y-44420720D01*
X101667631Y-44411013D01*
X101667149Y-44401211D01*
X101667631Y-44391409D01*
X101669070Y-44381702D01*
X101671455Y-44372183D01*
X101674761Y-44362943D01*
X101678957Y-44354071D01*
X101684002Y-44345654D01*
X101689848Y-44337772D01*
X101696438Y-44330500D01*
X102668710Y-43358228D01*
X102675982Y-43351638D01*
X102683864Y-43345792D01*
X102692281Y-43340747D01*
X102701153Y-43336551D01*
X102710393Y-43333245D01*
X102719912Y-43330860D01*
X102729619Y-43329421D01*
X102739421Y-43328939D01*
X102749223Y-43329421D01*
G37*
G36*
X103102777Y-43682975D02*
G01*
X103112484Y-43684414D01*
X103122003Y-43686799D01*
X103131243Y-43690105D01*
X103140115Y-43694301D01*
X103148532Y-43699346D01*
X103156414Y-43705192D01*
X103163686Y-43711782D01*
X103305108Y-43853204D01*
X103311698Y-43860476D01*
X103317544Y-43868358D01*
X103322589Y-43876775D01*
X103326785Y-43885647D01*
X103330091Y-43894887D01*
X103332476Y-43904406D01*
X103333915Y-43914113D01*
X103334397Y-43923915D01*
X103333915Y-43933717D01*
X103332476Y-43943424D01*
X103330091Y-43952943D01*
X103326785Y-43962183D01*
X103322589Y-43971055D01*
X103317544Y-43979472D01*
X103311698Y-43987354D01*
X103305108Y-43994626D01*
X102332836Y-44966898D01*
X102325564Y-44973488D01*
X102317682Y-44979334D01*
X102309265Y-44984379D01*
X102300393Y-44988575D01*
X102291153Y-44991881D01*
X102281634Y-44994266D01*
X102271927Y-44995705D01*
X102262125Y-44996187D01*
X102252323Y-44995705D01*
X102242616Y-44994266D01*
X102233097Y-44991881D01*
X102223857Y-44988575D01*
X102214985Y-44984379D01*
X102206568Y-44979334D01*
X102198686Y-44973488D01*
X102191414Y-44966898D01*
X102049992Y-44825476D01*
X102043402Y-44818204D01*
X102037556Y-44810322D01*
X102032511Y-44801905D01*
X102028315Y-44793033D01*
X102025009Y-44783793D01*
X102022624Y-44774274D01*
X102021185Y-44764567D01*
X102020703Y-44754765D01*
X102021185Y-44744963D01*
X102022624Y-44735256D01*
X102025009Y-44725737D01*
X102028315Y-44716497D01*
X102032511Y-44707625D01*
X102037556Y-44699208D01*
X102043402Y-44691326D01*
X102049992Y-44684054D01*
X103022264Y-43711782D01*
X103029536Y-43705192D01*
X103037418Y-43699346D01*
X103045835Y-43694301D01*
X103054707Y-43690105D01*
X103063947Y-43686799D01*
X103073466Y-43684414D01*
X103083173Y-43682975D01*
X103092975Y-43682493D01*
X103102777Y-43682975D01*
G37*
G36*
X103456330Y-44036528D02*
G01*
X103466037Y-44037967D01*
X103475556Y-44040352D01*
X103484796Y-44043658D01*
X103493668Y-44047854D01*
X103502085Y-44052899D01*
X103509967Y-44058745D01*
X103517239Y-44065335D01*
X103658661Y-44206757D01*
X103665251Y-44214029D01*
X103671097Y-44221911D01*
X103676142Y-44230328D01*
X103680338Y-44239200D01*
X103683644Y-44248440D01*
X103686029Y-44257959D01*
X103687468Y-44267666D01*
X103687950Y-44277468D01*
X103687468Y-44287270D01*
X103686029Y-44296977D01*
X103683644Y-44306496D01*
X103680338Y-44315736D01*
X103676142Y-44324608D01*
X103671097Y-44333025D01*
X103665251Y-44340907D01*
X103658661Y-44348179D01*
X102686389Y-45320451D01*
X102679117Y-45327041D01*
X102671235Y-45332887D01*
X102662818Y-45337932D01*
X102653946Y-45342128D01*
X102644706Y-45345434D01*
X102635187Y-45347819D01*
X102625480Y-45349258D01*
X102615678Y-45349740D01*
X102605876Y-45349258D01*
X102596169Y-45347819D01*
X102586650Y-45345434D01*
X102577410Y-45342128D01*
X102568538Y-45337932D01*
X102560121Y-45332887D01*
X102552239Y-45327041D01*
X102544967Y-45320451D01*
X102403545Y-45179029D01*
X102396955Y-45171757D01*
X102391109Y-45163875D01*
X102386064Y-45155458D01*
X102381868Y-45146586D01*
X102378562Y-45137346D01*
X102376177Y-45127827D01*
X102374738Y-45118120D01*
X102374256Y-45108318D01*
X102374738Y-45098516D01*
X102376177Y-45088809D01*
X102378562Y-45079290D01*
X102381868Y-45070050D01*
X102386064Y-45061178D01*
X102391109Y-45052761D01*
X102396955Y-45044879D01*
X102403545Y-45037607D01*
X103375817Y-44065335D01*
X103383089Y-44058745D01*
X103390971Y-44052899D01*
X103399388Y-44047854D01*
X103408260Y-44043658D01*
X103417500Y-44040352D01*
X103427019Y-44037967D01*
X103436726Y-44036528D01*
X103446528Y-44036046D01*
X103456330Y-44036528D01*
G37*
G36*
X103809883Y-44390081D02*
G01*
X103819590Y-44391520D01*
X103829109Y-44393905D01*
X103838349Y-44397211D01*
X103847221Y-44401407D01*
X103855638Y-44406452D01*
X103863520Y-44412298D01*
X103870792Y-44418888D01*
X104012214Y-44560310D01*
X104018804Y-44567582D01*
X104024650Y-44575464D01*
X104029695Y-44583881D01*
X104033891Y-44592753D01*
X104037197Y-44601993D01*
X104039582Y-44611512D01*
X104041021Y-44621219D01*
X104041503Y-44631021D01*
X104041021Y-44640823D01*
X104039582Y-44650530D01*
X104037197Y-44660049D01*
X104033891Y-44669289D01*
X104029695Y-44678161D01*
X104024650Y-44686578D01*
X104018804Y-44694460D01*
X104012214Y-44701732D01*
X103039942Y-45674004D01*
X103032670Y-45680594D01*
X103024788Y-45686440D01*
X103016371Y-45691485D01*
X103007499Y-45695681D01*
X102998259Y-45698987D01*
X102988740Y-45701372D01*
X102979033Y-45702811D01*
X102969231Y-45703293D01*
X102959429Y-45702811D01*
X102949722Y-45701372D01*
X102940203Y-45698987D01*
X102930963Y-45695681D01*
X102922091Y-45691485D01*
X102913674Y-45686440D01*
X102905792Y-45680594D01*
X102898520Y-45674004D01*
X102757098Y-45532582D01*
X102750508Y-45525310D01*
X102744662Y-45517428D01*
X102739617Y-45509011D01*
X102735421Y-45500139D01*
X102732115Y-45490899D01*
X102729730Y-45481380D01*
X102728291Y-45471673D01*
X102727809Y-45461871D01*
X102728291Y-45452069D01*
X102729730Y-45442362D01*
X102732115Y-45432843D01*
X102735421Y-45423603D01*
X102739617Y-45414731D01*
X102744662Y-45406314D01*
X102750508Y-45398432D01*
X102757098Y-45391160D01*
X103729370Y-44418888D01*
X103736642Y-44412298D01*
X103744524Y-44406452D01*
X103752941Y-44401407D01*
X103761813Y-44397211D01*
X103771053Y-44393905D01*
X103780572Y-44391520D01*
X103790279Y-44390081D01*
X103800081Y-44389599D01*
X103809883Y-44390081D01*
G37*
G36*
X104163437Y-44743635D02*
G01*
X104173144Y-44745074D01*
X104182663Y-44747459D01*
X104191903Y-44750765D01*
X104200775Y-44754961D01*
X104209192Y-44760006D01*
X104217074Y-44765852D01*
X104224346Y-44772442D01*
X104365768Y-44913864D01*
X104372358Y-44921136D01*
X104378204Y-44929018D01*
X104383249Y-44937435D01*
X104387445Y-44946307D01*
X104390751Y-44955547D01*
X104393136Y-44965066D01*
X104394575Y-44974773D01*
X104395057Y-44984575D01*
X104394575Y-44994377D01*
X104393136Y-45004084D01*
X104390751Y-45013603D01*
X104387445Y-45022843D01*
X104383249Y-45031715D01*
X104378204Y-45040132D01*
X104372358Y-45048014D01*
X104365768Y-45055286D01*
X103393496Y-46027558D01*
X103386224Y-46034148D01*
X103378342Y-46039994D01*
X103369925Y-46045039D01*
X103361053Y-46049235D01*
X103351813Y-46052541D01*
X103342294Y-46054926D01*
X103332587Y-46056365D01*
X103322785Y-46056847D01*
X103312983Y-46056365D01*
X103303276Y-46054926D01*
X103293757Y-46052541D01*
X103284517Y-46049235D01*
X103275645Y-46045039D01*
X103267228Y-46039994D01*
X103259346Y-46034148D01*
X103252074Y-46027558D01*
X103110652Y-45886136D01*
X103104062Y-45878864D01*
X103098216Y-45870982D01*
X103093171Y-45862565D01*
X103088975Y-45853693D01*
X103085669Y-45844453D01*
X103083284Y-45834934D01*
X103081845Y-45825227D01*
X103081363Y-45815425D01*
X103081845Y-45805623D01*
X103083284Y-45795916D01*
X103085669Y-45786397D01*
X103088975Y-45777157D01*
X103093171Y-45768285D01*
X103098216Y-45759868D01*
X103104062Y-45751986D01*
X103110652Y-45744714D01*
X104082924Y-44772442D01*
X104090196Y-44765852D01*
X104098078Y-44760006D01*
X104106495Y-44754961D01*
X104115367Y-44750765D01*
X104124607Y-44747459D01*
X104134126Y-44745074D01*
X104143833Y-44743635D01*
X104153635Y-44743153D01*
X104163437Y-44743635D01*
G37*
G36*
X104516990Y-45097188D02*
G01*
X104526697Y-45098627D01*
X104536216Y-45101012D01*
X104545456Y-45104318D01*
X104554328Y-45108514D01*
X104562745Y-45113559D01*
X104570627Y-45119405D01*
X104577899Y-45125995D01*
X104719321Y-45267417D01*
X104725911Y-45274689D01*
X104731757Y-45282571D01*
X104736802Y-45290988D01*
X104740998Y-45299860D01*
X104744304Y-45309100D01*
X104746689Y-45318619D01*
X104748128Y-45328326D01*
X104748610Y-45338128D01*
X104748128Y-45347930D01*
X104746689Y-45357637D01*
X104744304Y-45367156D01*
X104740998Y-45376396D01*
X104736802Y-45385268D01*
X104731757Y-45393685D01*
X104725911Y-45401567D01*
X104719321Y-45408839D01*
X103747049Y-46381111D01*
X103739777Y-46387701D01*
X103731895Y-46393547D01*
X103723478Y-46398592D01*
X103714606Y-46402788D01*
X103705366Y-46406094D01*
X103695847Y-46408479D01*
X103686140Y-46409918D01*
X103676338Y-46410400D01*
X103666536Y-46409918D01*
X103656829Y-46408479D01*
X103647310Y-46406094D01*
X103638070Y-46402788D01*
X103629198Y-46398592D01*
X103620781Y-46393547D01*
X103612899Y-46387701D01*
X103605627Y-46381111D01*
X103464205Y-46239689D01*
X103457615Y-46232417D01*
X103451769Y-46224535D01*
X103446724Y-46216118D01*
X103442528Y-46207246D01*
X103439222Y-46198006D01*
X103436837Y-46188487D01*
X103435398Y-46178780D01*
X103434916Y-46168978D01*
X103435398Y-46159176D01*
X103436837Y-46149469D01*
X103439222Y-46139950D01*
X103442528Y-46130710D01*
X103446724Y-46121838D01*
X103451769Y-46113421D01*
X103457615Y-46105539D01*
X103464205Y-46098267D01*
X104436477Y-45125995D01*
X104443749Y-45119405D01*
X104451631Y-45113559D01*
X104460048Y-45108514D01*
X104468920Y-45104318D01*
X104478160Y-45101012D01*
X104487679Y-45098627D01*
X104497386Y-45097188D01*
X104507188Y-45096706D01*
X104516990Y-45097188D01*
G37*
G36*
X104870544Y-45450742D02*
G01*
X104880251Y-45452181D01*
X104889770Y-45454566D01*
X104899010Y-45457872D01*
X104907882Y-45462068D01*
X104916299Y-45467113D01*
X104924181Y-45472959D01*
X104931453Y-45479549D01*
X105072875Y-45620971D01*
X105079465Y-45628243D01*
X105085311Y-45636125D01*
X105090356Y-45644542D01*
X105094552Y-45653414D01*
X105097858Y-45662654D01*
X105100243Y-45672173D01*
X105101682Y-45681880D01*
X105102164Y-45691682D01*
X105101682Y-45701484D01*
X105100243Y-45711191D01*
X105097858Y-45720710D01*
X105094552Y-45729950D01*
X105090356Y-45738822D01*
X105085311Y-45747239D01*
X105079465Y-45755121D01*
X105072875Y-45762393D01*
X104100603Y-46734665D01*
X104093331Y-46741255D01*
X104085449Y-46747101D01*
X104077032Y-46752146D01*
X104068160Y-46756342D01*
X104058920Y-46759648D01*
X104049401Y-46762033D01*
X104039694Y-46763472D01*
X104029892Y-46763954D01*
X104020090Y-46763472D01*
X104010383Y-46762033D01*
X104000864Y-46759648D01*
X103991624Y-46756342D01*
X103982752Y-46752146D01*
X103974335Y-46747101D01*
X103966453Y-46741255D01*
X103959181Y-46734665D01*
X103817759Y-46593243D01*
X103811169Y-46585971D01*
X103805323Y-46578089D01*
X103800278Y-46569672D01*
X103796082Y-46560800D01*
X103792776Y-46551560D01*
X103790391Y-46542041D01*
X103788952Y-46532334D01*
X103788470Y-46522532D01*
X103788952Y-46512730D01*
X103790391Y-46503023D01*
X103792776Y-46493504D01*
X103796082Y-46484264D01*
X103800278Y-46475392D01*
X103805323Y-46466975D01*
X103811169Y-46459093D01*
X103817759Y-46451821D01*
X104790031Y-45479549D01*
X104797303Y-45472959D01*
X104805185Y-45467113D01*
X104813602Y-45462068D01*
X104822474Y-45457872D01*
X104831714Y-45454566D01*
X104841233Y-45452181D01*
X104850940Y-45450742D01*
X104860742Y-45450260D01*
X104870544Y-45450742D01*
G37*
G36*
X91205142Y-48226174D02*
G01*
X91228803Y-48229684D01*
X91252007Y-48235496D01*
X91274529Y-48243554D01*
X91296153Y-48253782D01*
X91316670Y-48266079D01*
X91335883Y-48280329D01*
X91353607Y-48296393D01*
X91369671Y-48314117D01*
X91383921Y-48333330D01*
X91396218Y-48353847D01*
X91406446Y-48375471D01*
X91414504Y-48397993D01*
X91420316Y-48421197D01*
X91423826Y-48444858D01*
X91425000Y-48468750D01*
X91425000Y-49031250D01*
X91423826Y-49055142D01*
X91420316Y-49078803D01*
X91414504Y-49102007D01*
X91406446Y-49124529D01*
X91396218Y-49146153D01*
X91383921Y-49166670D01*
X91369671Y-49185883D01*
X91353607Y-49203607D01*
X91335883Y-49219671D01*
X91316670Y-49233921D01*
X91296153Y-49246218D01*
X91274529Y-49256446D01*
X91252007Y-49264504D01*
X91228803Y-49270316D01*
X91205142Y-49273826D01*
X91181250Y-49275000D01*
X90693750Y-49275000D01*
X90669858Y-49273826D01*
X90646197Y-49270316D01*
X90622993Y-49264504D01*
X90600471Y-49256446D01*
X90578847Y-49246218D01*
X90558330Y-49233921D01*
X90539117Y-49219671D01*
X90521393Y-49203607D01*
X90505329Y-49185883D01*
X90491079Y-49166670D01*
X90478782Y-49146153D01*
X90468554Y-49124529D01*
X90460496Y-49102007D01*
X90454684Y-49078803D01*
X90451174Y-49055142D01*
X90450000Y-49031250D01*
X90450000Y-48468750D01*
X90451174Y-48444858D01*
X90454684Y-48421197D01*
X90460496Y-48397993D01*
X90468554Y-48375471D01*
X90478782Y-48353847D01*
X90491079Y-48333330D01*
X90505329Y-48314117D01*
X90521393Y-48296393D01*
X90539117Y-48280329D01*
X90558330Y-48266079D01*
X90578847Y-48253782D01*
X90600471Y-48243554D01*
X90622993Y-48235496D01*
X90646197Y-48229684D01*
X90669858Y-48226174D01*
X90693750Y-48225000D01*
X91181250Y-48225000D01*
X91205142Y-48226174D01*
G37*
G36*
X89630142Y-48226174D02*
G01*
X89653803Y-48229684D01*
X89677007Y-48235496D01*
X89699529Y-48243554D01*
X89721153Y-48253782D01*
X89741670Y-48266079D01*
X89760883Y-48280329D01*
X89778607Y-48296393D01*
X89794671Y-48314117D01*
X89808921Y-48333330D01*
X89821218Y-48353847D01*
X89831446Y-48375471D01*
X89839504Y-48397993D01*
X89845316Y-48421197D01*
X89848826Y-48444858D01*
X89850000Y-48468750D01*
X89850000Y-49031250D01*
X89848826Y-49055142D01*
X89845316Y-49078803D01*
X89839504Y-49102007D01*
X89831446Y-49124529D01*
X89821218Y-49146153D01*
X89808921Y-49166670D01*
X89794671Y-49185883D01*
X89778607Y-49203607D01*
X89760883Y-49219671D01*
X89741670Y-49233921D01*
X89721153Y-49246218D01*
X89699529Y-49256446D01*
X89677007Y-49264504D01*
X89653803Y-49270316D01*
X89630142Y-49273826D01*
X89606250Y-49275000D01*
X89118750Y-49275000D01*
X89094858Y-49273826D01*
X89071197Y-49270316D01*
X89047993Y-49264504D01*
X89025471Y-49256446D01*
X89003847Y-49246218D01*
X88983330Y-49233921D01*
X88964117Y-49219671D01*
X88946393Y-49203607D01*
X88930329Y-49185883D01*
X88916079Y-49166670D01*
X88903782Y-49146153D01*
X88893554Y-49124529D01*
X88885496Y-49102007D01*
X88879684Y-49078803D01*
X88876174Y-49055142D01*
X88875000Y-49031250D01*
X88875000Y-48468750D01*
X88876174Y-48444858D01*
X88879684Y-48421197D01*
X88885496Y-48397993D01*
X88893554Y-48375471D01*
X88903782Y-48353847D01*
X88916079Y-48333330D01*
X88930329Y-48314117D01*
X88946393Y-48296393D01*
X88964117Y-48280329D01*
X88983330Y-48266079D01*
X89003847Y-48253782D01*
X89025471Y-48243554D01*
X89047993Y-48235496D01*
X89071197Y-48229684D01*
X89094858Y-48226174D01*
X89118750Y-48225000D01*
X89606250Y-48225000D01*
X89630142Y-48226174D01*
G37*
G36*
X89617642Y-45226174D02*
G01*
X89641303Y-45229684D01*
X89664507Y-45235496D01*
X89687029Y-45243554D01*
X89708653Y-45253782D01*
X89729170Y-45266079D01*
X89748383Y-45280329D01*
X89766107Y-45296393D01*
X89782171Y-45314117D01*
X89796421Y-45333330D01*
X89808718Y-45353847D01*
X89818946Y-45375471D01*
X89827004Y-45397993D01*
X89832816Y-45421197D01*
X89836326Y-45444858D01*
X89837500Y-45468750D01*
X89837500Y-46031250D01*
X89836326Y-46055142D01*
X89832816Y-46078803D01*
X89827004Y-46102007D01*
X89818946Y-46124529D01*
X89808718Y-46146153D01*
X89796421Y-46166670D01*
X89782171Y-46185883D01*
X89766107Y-46203607D01*
X89748383Y-46219671D01*
X89729170Y-46233921D01*
X89708653Y-46246218D01*
X89687029Y-46256446D01*
X89664507Y-46264504D01*
X89641303Y-46270316D01*
X89617642Y-46273826D01*
X89593750Y-46275000D01*
X89106250Y-46275000D01*
X89082358Y-46273826D01*
X89058697Y-46270316D01*
X89035493Y-46264504D01*
X89012971Y-46256446D01*
X88991347Y-46246218D01*
X88970830Y-46233921D01*
X88951617Y-46219671D01*
X88933893Y-46203607D01*
X88917829Y-46185883D01*
X88903579Y-46166670D01*
X88891282Y-46146153D01*
X88881054Y-46124529D01*
X88872996Y-46102007D01*
X88867184Y-46078803D01*
X88863674Y-46055142D01*
X88862500Y-46031250D01*
X88862500Y-45468750D01*
X88863674Y-45444858D01*
X88867184Y-45421197D01*
X88872996Y-45397993D01*
X88881054Y-45375471D01*
X88891282Y-45353847D01*
X88903579Y-45333330D01*
X88917829Y-45314117D01*
X88933893Y-45296393D01*
X88951617Y-45280329D01*
X88970830Y-45266079D01*
X88991347Y-45253782D01*
X89012971Y-45243554D01*
X89035493Y-45235496D01*
X89058697Y-45229684D01*
X89082358Y-45226174D01*
X89106250Y-45225000D01*
X89593750Y-45225000D01*
X89617642Y-45226174D01*
G37*
G36*
X91192642Y-45226174D02*
G01*
X91216303Y-45229684D01*
X91239507Y-45235496D01*
X91262029Y-45243554D01*
X91283653Y-45253782D01*
X91304170Y-45266079D01*
X91323383Y-45280329D01*
X91341107Y-45296393D01*
X91357171Y-45314117D01*
X91371421Y-45333330D01*
X91383718Y-45353847D01*
X91393946Y-45375471D01*
X91402004Y-45397993D01*
X91407816Y-45421197D01*
X91411326Y-45444858D01*
X91412500Y-45468750D01*
X91412500Y-46031250D01*
X91411326Y-46055142D01*
X91407816Y-46078803D01*
X91402004Y-46102007D01*
X91393946Y-46124529D01*
X91383718Y-46146153D01*
X91371421Y-46166670D01*
X91357171Y-46185883D01*
X91341107Y-46203607D01*
X91323383Y-46219671D01*
X91304170Y-46233921D01*
X91283653Y-46246218D01*
X91262029Y-46256446D01*
X91239507Y-46264504D01*
X91216303Y-46270316D01*
X91192642Y-46273826D01*
X91168750Y-46275000D01*
X90681250Y-46275000D01*
X90657358Y-46273826D01*
X90633697Y-46270316D01*
X90610493Y-46264504D01*
X90587971Y-46256446D01*
X90566347Y-46246218D01*
X90545830Y-46233921D01*
X90526617Y-46219671D01*
X90508893Y-46203607D01*
X90492829Y-46185883D01*
X90478579Y-46166670D01*
X90466282Y-46146153D01*
X90456054Y-46124529D01*
X90447996Y-46102007D01*
X90442184Y-46078803D01*
X90438674Y-46055142D01*
X90437500Y-46031250D01*
X90437500Y-45468750D01*
X90438674Y-45444858D01*
X90442184Y-45421197D01*
X90447996Y-45397993D01*
X90456054Y-45375471D01*
X90466282Y-45353847D01*
X90478579Y-45333330D01*
X90492829Y-45314117D01*
X90508893Y-45296393D01*
X90526617Y-45280329D01*
X90545830Y-45266079D01*
X90566347Y-45253782D01*
X90587971Y-45243554D01*
X90610493Y-45235496D01*
X90633697Y-45229684D01*
X90657358Y-45226174D01*
X90681250Y-45225000D01*
X91168750Y-45225000D01*
X91192642Y-45226174D01*
G37*
G36*
X91617642Y-37876174D02*
G01*
X91641303Y-37879684D01*
X91664507Y-37885496D01*
X91687029Y-37893554D01*
X91708653Y-37903782D01*
X91729170Y-37916079D01*
X91748383Y-37930329D01*
X91766107Y-37946393D01*
X91782171Y-37964117D01*
X91796421Y-37983330D01*
X91808718Y-38003847D01*
X91818946Y-38025471D01*
X91827004Y-38047993D01*
X91832816Y-38071197D01*
X91836326Y-38094858D01*
X91837500Y-38118750D01*
X91837500Y-38681250D01*
X91836326Y-38705142D01*
X91832816Y-38728803D01*
X91827004Y-38752007D01*
X91818946Y-38774529D01*
X91808718Y-38796153D01*
X91796421Y-38816670D01*
X91782171Y-38835883D01*
X91766107Y-38853607D01*
X91748383Y-38869671D01*
X91729170Y-38883921D01*
X91708653Y-38896218D01*
X91687029Y-38906446D01*
X91664507Y-38914504D01*
X91641303Y-38920316D01*
X91617642Y-38923826D01*
X91593750Y-38925000D01*
X91106250Y-38925000D01*
X91082358Y-38923826D01*
X91058697Y-38920316D01*
X91035493Y-38914504D01*
X91012971Y-38906446D01*
X90991347Y-38896218D01*
X90970830Y-38883921D01*
X90951617Y-38869671D01*
X90933893Y-38853607D01*
X90917829Y-38835883D01*
X90903579Y-38816670D01*
X90891282Y-38796153D01*
X90881054Y-38774529D01*
X90872996Y-38752007D01*
X90867184Y-38728803D01*
X90863674Y-38705142D01*
X90862500Y-38681250D01*
X90862500Y-38118750D01*
X90863674Y-38094858D01*
X90867184Y-38071197D01*
X90872996Y-38047993D01*
X90881054Y-38025471D01*
X90891282Y-38003847D01*
X90903579Y-37983330D01*
X90917829Y-37964117D01*
X90933893Y-37946393D01*
X90951617Y-37930329D01*
X90970830Y-37916079D01*
X90991347Y-37903782D01*
X91012971Y-37893554D01*
X91035493Y-37885496D01*
X91058697Y-37879684D01*
X91082358Y-37876174D01*
X91106250Y-37875000D01*
X91593750Y-37875000D01*
X91617642Y-37876174D01*
G37*
G36*
X90042642Y-37876174D02*
G01*
X90066303Y-37879684D01*
X90089507Y-37885496D01*
X90112029Y-37893554D01*
X90133653Y-37903782D01*
X90154170Y-37916079D01*
X90173383Y-37930329D01*
X90191107Y-37946393D01*
X90207171Y-37964117D01*
X90221421Y-37983330D01*
X90233718Y-38003847D01*
X90243946Y-38025471D01*
X90252004Y-38047993D01*
X90257816Y-38071197D01*
X90261326Y-38094858D01*
X90262500Y-38118750D01*
X90262500Y-38681250D01*
X90261326Y-38705142D01*
X90257816Y-38728803D01*
X90252004Y-38752007D01*
X90243946Y-38774529D01*
X90233718Y-38796153D01*
X90221421Y-38816670D01*
X90207171Y-38835883D01*
X90191107Y-38853607D01*
X90173383Y-38869671D01*
X90154170Y-38883921D01*
X90133653Y-38896218D01*
X90112029Y-38906446D01*
X90089507Y-38914504D01*
X90066303Y-38920316D01*
X90042642Y-38923826D01*
X90018750Y-38925000D01*
X89531250Y-38925000D01*
X89507358Y-38923826D01*
X89483697Y-38920316D01*
X89460493Y-38914504D01*
X89437971Y-38906446D01*
X89416347Y-38896218D01*
X89395830Y-38883921D01*
X89376617Y-38869671D01*
X89358893Y-38853607D01*
X89342829Y-38835883D01*
X89328579Y-38816670D01*
X89316282Y-38796153D01*
X89306054Y-38774529D01*
X89297996Y-38752007D01*
X89292184Y-38728803D01*
X89288674Y-38705142D01*
X89287500Y-38681250D01*
X89287500Y-38118750D01*
X89288674Y-38094858D01*
X89292184Y-38071197D01*
X89297996Y-38047993D01*
X89306054Y-38025471D01*
X89316282Y-38003847D01*
X89328579Y-37983330D01*
X89342829Y-37964117D01*
X89358893Y-37946393D01*
X89376617Y-37930329D01*
X89395830Y-37916079D01*
X89416347Y-37903782D01*
X89437971Y-37893554D01*
X89460493Y-37885496D01*
X89483697Y-37879684D01*
X89507358Y-37876174D01*
X89531250Y-37875000D01*
X90018750Y-37875000D01*
X90042642Y-37876174D01*
G37*
G36*
X96317642Y-41076174D02*
G01*
X96341303Y-41079684D01*
X96364507Y-41085496D01*
X96387029Y-41093554D01*
X96408653Y-41103782D01*
X96429170Y-41116079D01*
X96448383Y-41130329D01*
X96466107Y-41146393D01*
X96482171Y-41164117D01*
X96496421Y-41183330D01*
X96508718Y-41203847D01*
X96518946Y-41225471D01*
X96527004Y-41247993D01*
X96532816Y-41271197D01*
X96536326Y-41294858D01*
X96537500Y-41318750D01*
X96537500Y-41881250D01*
X96536326Y-41905142D01*
X96532816Y-41928803D01*
X96527004Y-41952007D01*
X96518946Y-41974529D01*
X96508718Y-41996153D01*
X96496421Y-42016670D01*
X96482171Y-42035883D01*
X96466107Y-42053607D01*
X96448383Y-42069671D01*
X96429170Y-42083921D01*
X96408653Y-42096218D01*
X96387029Y-42106446D01*
X96364507Y-42114504D01*
X96341303Y-42120316D01*
X96317642Y-42123826D01*
X96293750Y-42125000D01*
X95806250Y-42125000D01*
X95782358Y-42123826D01*
X95758697Y-42120316D01*
X95735493Y-42114504D01*
X95712971Y-42106446D01*
X95691347Y-42096218D01*
X95670830Y-42083921D01*
X95651617Y-42069671D01*
X95633893Y-42053607D01*
X95617829Y-42035883D01*
X95603579Y-42016670D01*
X95591282Y-41996153D01*
X95581054Y-41974529D01*
X95572996Y-41952007D01*
X95567184Y-41928803D01*
X95563674Y-41905142D01*
X95562500Y-41881250D01*
X95562500Y-41318750D01*
X95563674Y-41294858D01*
X95567184Y-41271197D01*
X95572996Y-41247993D01*
X95581054Y-41225471D01*
X95591282Y-41203847D01*
X95603579Y-41183330D01*
X95617829Y-41164117D01*
X95633893Y-41146393D01*
X95651617Y-41130329D01*
X95670830Y-41116079D01*
X95691347Y-41103782D01*
X95712971Y-41093554D01*
X95735493Y-41085496D01*
X95758697Y-41079684D01*
X95782358Y-41076174D01*
X95806250Y-41075000D01*
X96293750Y-41075000D01*
X96317642Y-41076174D01*
G37*
G36*
X97892642Y-41076174D02*
G01*
X97916303Y-41079684D01*
X97939507Y-41085496D01*
X97962029Y-41093554D01*
X97983653Y-41103782D01*
X98004170Y-41116079D01*
X98023383Y-41130329D01*
X98041107Y-41146393D01*
X98057171Y-41164117D01*
X98071421Y-41183330D01*
X98083718Y-41203847D01*
X98093946Y-41225471D01*
X98102004Y-41247993D01*
X98107816Y-41271197D01*
X98111326Y-41294858D01*
X98112500Y-41318750D01*
X98112500Y-41881250D01*
X98111326Y-41905142D01*
X98107816Y-41928803D01*
X98102004Y-41952007D01*
X98093946Y-41974529D01*
X98083718Y-41996153D01*
X98071421Y-42016670D01*
X98057171Y-42035883D01*
X98041107Y-42053607D01*
X98023383Y-42069671D01*
X98004170Y-42083921D01*
X97983653Y-42096218D01*
X97962029Y-42106446D01*
X97939507Y-42114504D01*
X97916303Y-42120316D01*
X97892642Y-42123826D01*
X97868750Y-42125000D01*
X97381250Y-42125000D01*
X97357358Y-42123826D01*
X97333697Y-42120316D01*
X97310493Y-42114504D01*
X97287971Y-42106446D01*
X97266347Y-42096218D01*
X97245830Y-42083921D01*
X97226617Y-42069671D01*
X97208893Y-42053607D01*
X97192829Y-42035883D01*
X97178579Y-42016670D01*
X97166282Y-41996153D01*
X97156054Y-41974529D01*
X97147996Y-41952007D01*
X97142184Y-41928803D01*
X97138674Y-41905142D01*
X97137500Y-41881250D01*
X97137500Y-41318750D01*
X97138674Y-41294858D01*
X97142184Y-41271197D01*
X97147996Y-41247993D01*
X97156054Y-41225471D01*
X97166282Y-41203847D01*
X97178579Y-41183330D01*
X97192829Y-41164117D01*
X97208893Y-41146393D01*
X97226617Y-41130329D01*
X97245830Y-41116079D01*
X97266347Y-41103782D01*
X97287971Y-41093554D01*
X97310493Y-41085496D01*
X97333697Y-41079684D01*
X97357358Y-41076174D01*
X97381250Y-41075000D01*
X97868750Y-41075000D01*
X97892642Y-41076174D01*
G37*
G36*
X97917642Y-38176174D02*
G01*
X97941303Y-38179684D01*
X97964507Y-38185496D01*
X97987029Y-38193554D01*
X98008653Y-38203782D01*
X98029170Y-38216079D01*
X98048383Y-38230329D01*
X98066107Y-38246393D01*
X98082171Y-38264117D01*
X98096421Y-38283330D01*
X98108718Y-38303847D01*
X98118946Y-38325471D01*
X98127004Y-38347993D01*
X98132816Y-38371197D01*
X98136326Y-38394858D01*
X98137500Y-38418750D01*
X98137500Y-38981250D01*
X98136326Y-39005142D01*
X98132816Y-39028803D01*
X98127004Y-39052007D01*
X98118946Y-39074529D01*
X98108718Y-39096153D01*
X98096421Y-39116670D01*
X98082171Y-39135883D01*
X98066107Y-39153607D01*
X98048383Y-39169671D01*
X98029170Y-39183921D01*
X98008653Y-39196218D01*
X97987029Y-39206446D01*
X97964507Y-39214504D01*
X97941303Y-39220316D01*
X97917642Y-39223826D01*
X97893750Y-39225000D01*
X97406250Y-39225000D01*
X97382358Y-39223826D01*
X97358697Y-39220316D01*
X97335493Y-39214504D01*
X97312971Y-39206446D01*
X97291347Y-39196218D01*
X97270830Y-39183921D01*
X97251617Y-39169671D01*
X97233893Y-39153607D01*
X97217829Y-39135883D01*
X97203579Y-39116670D01*
X97191282Y-39096153D01*
X97181054Y-39074529D01*
X97172996Y-39052007D01*
X97167184Y-39028803D01*
X97163674Y-39005142D01*
X97162500Y-38981250D01*
X97162500Y-38418750D01*
X97163674Y-38394858D01*
X97167184Y-38371197D01*
X97172996Y-38347993D01*
X97181054Y-38325471D01*
X97191282Y-38303847D01*
X97203579Y-38283330D01*
X97217829Y-38264117D01*
X97233893Y-38246393D01*
X97251617Y-38230329D01*
X97270830Y-38216079D01*
X97291347Y-38203782D01*
X97312971Y-38193554D01*
X97335493Y-38185496D01*
X97358697Y-38179684D01*
X97382358Y-38176174D01*
X97406250Y-38175000D01*
X97893750Y-38175000D01*
X97917642Y-38176174D01*
G37*
G36*
X96342642Y-38176174D02*
G01*
X96366303Y-38179684D01*
X96389507Y-38185496D01*
X96412029Y-38193554D01*
X96433653Y-38203782D01*
X96454170Y-38216079D01*
X96473383Y-38230329D01*
X96491107Y-38246393D01*
X96507171Y-38264117D01*
X96521421Y-38283330D01*
X96533718Y-38303847D01*
X96543946Y-38325471D01*
X96552004Y-38347993D01*
X96557816Y-38371197D01*
X96561326Y-38394858D01*
X96562500Y-38418750D01*
X96562500Y-38981250D01*
X96561326Y-39005142D01*
X96557816Y-39028803D01*
X96552004Y-39052007D01*
X96543946Y-39074529D01*
X96533718Y-39096153D01*
X96521421Y-39116670D01*
X96507171Y-39135883D01*
X96491107Y-39153607D01*
X96473383Y-39169671D01*
X96454170Y-39183921D01*
X96433653Y-39196218D01*
X96412029Y-39206446D01*
X96389507Y-39214504D01*
X96366303Y-39220316D01*
X96342642Y-39223826D01*
X96318750Y-39225000D01*
X95831250Y-39225000D01*
X95807358Y-39223826D01*
X95783697Y-39220316D01*
X95760493Y-39214504D01*
X95737971Y-39206446D01*
X95716347Y-39196218D01*
X95695830Y-39183921D01*
X95676617Y-39169671D01*
X95658893Y-39153607D01*
X95642829Y-39135883D01*
X95628579Y-39116670D01*
X95616282Y-39096153D01*
X95606054Y-39074529D01*
X95597996Y-39052007D01*
X95592184Y-39028803D01*
X95588674Y-39005142D01*
X95587500Y-38981250D01*
X95587500Y-38418750D01*
X95588674Y-38394858D01*
X95592184Y-38371197D01*
X95597996Y-38347993D01*
X95606054Y-38325471D01*
X95616282Y-38303847D01*
X95628579Y-38283330D01*
X95642829Y-38264117D01*
X95658893Y-38246393D01*
X95676617Y-38230329D01*
X95695830Y-38216079D01*
X95716347Y-38203782D01*
X95737971Y-38193554D01*
X95760493Y-38185496D01*
X95783697Y-38179684D01*
X95807358Y-38176174D01*
X95831250Y-38175000D01*
X96318750Y-38175000D01*
X96342642Y-38176174D01*
G37*
G36*
X109717642Y-48226174D02*
G01*
X109741303Y-48229684D01*
X109764507Y-48235496D01*
X109787029Y-48243554D01*
X109808653Y-48253782D01*
X109829170Y-48266079D01*
X109848383Y-48280329D01*
X109866107Y-48296393D01*
X109882171Y-48314117D01*
X109896421Y-48333330D01*
X109908718Y-48353847D01*
X109918946Y-48375471D01*
X109927004Y-48397993D01*
X109932816Y-48421197D01*
X109936326Y-48444858D01*
X109937500Y-48468750D01*
X109937500Y-49031250D01*
X109936326Y-49055142D01*
X109932816Y-49078803D01*
X109927004Y-49102007D01*
X109918946Y-49124529D01*
X109908718Y-49146153D01*
X109896421Y-49166670D01*
X109882171Y-49185883D01*
X109866107Y-49203607D01*
X109848383Y-49219671D01*
X109829170Y-49233921D01*
X109808653Y-49246218D01*
X109787029Y-49256446D01*
X109764507Y-49264504D01*
X109741303Y-49270316D01*
X109717642Y-49273826D01*
X109693750Y-49275000D01*
X109206250Y-49275000D01*
X109182358Y-49273826D01*
X109158697Y-49270316D01*
X109135493Y-49264504D01*
X109112971Y-49256446D01*
X109091347Y-49246218D01*
X109070830Y-49233921D01*
X109051617Y-49219671D01*
X109033893Y-49203607D01*
X109017829Y-49185883D01*
X109003579Y-49166670D01*
X108991282Y-49146153D01*
X108981054Y-49124529D01*
X108972996Y-49102007D01*
X108967184Y-49078803D01*
X108963674Y-49055142D01*
X108962500Y-49031250D01*
X108962500Y-48468750D01*
X108963674Y-48444858D01*
X108967184Y-48421197D01*
X108972996Y-48397993D01*
X108981054Y-48375471D01*
X108991282Y-48353847D01*
X109003579Y-48333330D01*
X109017829Y-48314117D01*
X109033893Y-48296393D01*
X109051617Y-48280329D01*
X109070830Y-48266079D01*
X109091347Y-48253782D01*
X109112971Y-48243554D01*
X109135493Y-48235496D01*
X109158697Y-48229684D01*
X109182358Y-48226174D01*
X109206250Y-48225000D01*
X109693750Y-48225000D01*
X109717642Y-48226174D01*
G37*
G36*
X111292642Y-48226174D02*
G01*
X111316303Y-48229684D01*
X111339507Y-48235496D01*
X111362029Y-48243554D01*
X111383653Y-48253782D01*
X111404170Y-48266079D01*
X111423383Y-48280329D01*
X111441107Y-48296393D01*
X111457171Y-48314117D01*
X111471421Y-48333330D01*
X111483718Y-48353847D01*
X111493946Y-48375471D01*
X111502004Y-48397993D01*
X111507816Y-48421197D01*
X111511326Y-48444858D01*
X111512500Y-48468750D01*
X111512500Y-49031250D01*
X111511326Y-49055142D01*
X111507816Y-49078803D01*
X111502004Y-49102007D01*
X111493946Y-49124529D01*
X111483718Y-49146153D01*
X111471421Y-49166670D01*
X111457171Y-49185883D01*
X111441107Y-49203607D01*
X111423383Y-49219671D01*
X111404170Y-49233921D01*
X111383653Y-49246218D01*
X111362029Y-49256446D01*
X111339507Y-49264504D01*
X111316303Y-49270316D01*
X111292642Y-49273826D01*
X111268750Y-49275000D01*
X110781250Y-49275000D01*
X110757358Y-49273826D01*
X110733697Y-49270316D01*
X110710493Y-49264504D01*
X110687971Y-49256446D01*
X110666347Y-49246218D01*
X110645830Y-49233921D01*
X110626617Y-49219671D01*
X110608893Y-49203607D01*
X110592829Y-49185883D01*
X110578579Y-49166670D01*
X110566282Y-49146153D01*
X110556054Y-49124529D01*
X110547996Y-49102007D01*
X110542184Y-49078803D01*
X110538674Y-49055142D01*
X110537500Y-49031250D01*
X110537500Y-48468750D01*
X110538674Y-48444858D01*
X110542184Y-48421197D01*
X110547996Y-48397993D01*
X110556054Y-48375471D01*
X110566282Y-48353847D01*
X110578579Y-48333330D01*
X110592829Y-48314117D01*
X110608893Y-48296393D01*
X110626617Y-48280329D01*
X110645830Y-48266079D01*
X110666347Y-48253782D01*
X110687971Y-48243554D01*
X110710493Y-48235496D01*
X110733697Y-48229684D01*
X110757358Y-48226174D01*
X110781250Y-48225000D01*
X111268750Y-48225000D01*
X111292642Y-48226174D01*
G37*
G36*
X117617642Y-39276174D02*
G01*
X117641303Y-39279684D01*
X117664507Y-39285496D01*
X117687029Y-39293554D01*
X117708653Y-39303782D01*
X117729170Y-39316079D01*
X117748383Y-39330329D01*
X117766107Y-39346393D01*
X117782171Y-39364117D01*
X117796421Y-39383330D01*
X117808718Y-39403847D01*
X117818946Y-39425471D01*
X117827004Y-39447993D01*
X117832816Y-39471197D01*
X117836326Y-39494858D01*
X117837500Y-39518750D01*
X117837500Y-40081250D01*
X117836326Y-40105142D01*
X117832816Y-40128803D01*
X117827004Y-40152007D01*
X117818946Y-40174529D01*
X117808718Y-40196153D01*
X117796421Y-40216670D01*
X117782171Y-40235883D01*
X117766107Y-40253607D01*
X117748383Y-40269671D01*
X117729170Y-40283921D01*
X117708653Y-40296218D01*
X117687029Y-40306446D01*
X117664507Y-40314504D01*
X117641303Y-40320316D01*
X117617642Y-40323826D01*
X117593750Y-40325000D01*
X117106250Y-40325000D01*
X117082358Y-40323826D01*
X117058697Y-40320316D01*
X117035493Y-40314504D01*
X117012971Y-40306446D01*
X116991347Y-40296218D01*
X116970830Y-40283921D01*
X116951617Y-40269671D01*
X116933893Y-40253607D01*
X116917829Y-40235883D01*
X116903579Y-40216670D01*
X116891282Y-40196153D01*
X116881054Y-40174529D01*
X116872996Y-40152007D01*
X116867184Y-40128803D01*
X116863674Y-40105142D01*
X116862500Y-40081250D01*
X116862500Y-39518750D01*
X116863674Y-39494858D01*
X116867184Y-39471197D01*
X116872996Y-39447993D01*
X116881054Y-39425471D01*
X116891282Y-39403847D01*
X116903579Y-39383330D01*
X116917829Y-39364117D01*
X116933893Y-39346393D01*
X116951617Y-39330329D01*
X116970830Y-39316079D01*
X116991347Y-39303782D01*
X117012971Y-39293554D01*
X117035493Y-39285496D01*
X117058697Y-39279684D01*
X117082358Y-39276174D01*
X117106250Y-39275000D01*
X117593750Y-39275000D01*
X117617642Y-39276174D01*
G37*
G36*
X119192642Y-39276174D02*
G01*
X119216303Y-39279684D01*
X119239507Y-39285496D01*
X119262029Y-39293554D01*
X119283653Y-39303782D01*
X119304170Y-39316079D01*
X119323383Y-39330329D01*
X119341107Y-39346393D01*
X119357171Y-39364117D01*
X119371421Y-39383330D01*
X119383718Y-39403847D01*
X119393946Y-39425471D01*
X119402004Y-39447993D01*
X119407816Y-39471197D01*
X119411326Y-39494858D01*
X119412500Y-39518750D01*
X119412500Y-40081250D01*
X119411326Y-40105142D01*
X119407816Y-40128803D01*
X119402004Y-40152007D01*
X119393946Y-40174529D01*
X119383718Y-40196153D01*
X119371421Y-40216670D01*
X119357171Y-40235883D01*
X119341107Y-40253607D01*
X119323383Y-40269671D01*
X119304170Y-40283921D01*
X119283653Y-40296218D01*
X119262029Y-40306446D01*
X119239507Y-40314504D01*
X119216303Y-40320316D01*
X119192642Y-40323826D01*
X119168750Y-40325000D01*
X118681250Y-40325000D01*
X118657358Y-40323826D01*
X118633697Y-40320316D01*
X118610493Y-40314504D01*
X118587971Y-40306446D01*
X118566347Y-40296218D01*
X118545830Y-40283921D01*
X118526617Y-40269671D01*
X118508893Y-40253607D01*
X118492829Y-40235883D01*
X118478579Y-40216670D01*
X118466282Y-40196153D01*
X118456054Y-40174529D01*
X118447996Y-40152007D01*
X118442184Y-40128803D01*
X118438674Y-40105142D01*
X118437500Y-40081250D01*
X118437500Y-39518750D01*
X118438674Y-39494858D01*
X118442184Y-39471197D01*
X118447996Y-39447993D01*
X118456054Y-39425471D01*
X118466282Y-39403847D01*
X118478579Y-39383330D01*
X118492829Y-39364117D01*
X118508893Y-39346393D01*
X118526617Y-39330329D01*
X118545830Y-39316079D01*
X118566347Y-39303782D01*
X118587971Y-39293554D01*
X118610493Y-39285496D01*
X118633697Y-39279684D01*
X118657358Y-39276174D01*
X118681250Y-39275000D01*
X119168750Y-39275000D01*
X119192642Y-39276174D01*
G37*
G36*
X119205142Y-42376174D02*
G01*
X119228803Y-42379684D01*
X119252007Y-42385496D01*
X119274529Y-42393554D01*
X119296153Y-42403782D01*
X119316670Y-42416079D01*
X119335883Y-42430329D01*
X119353607Y-42446393D01*
X119369671Y-42464117D01*
X119383921Y-42483330D01*
X119396218Y-42503847D01*
X119406446Y-42525471D01*
X119414504Y-42547993D01*
X119420316Y-42571197D01*
X119423826Y-42594858D01*
X119425000Y-42618750D01*
X119425000Y-43181250D01*
X119423826Y-43205142D01*
X119420316Y-43228803D01*
X119414504Y-43252007D01*
X119406446Y-43274529D01*
X119396218Y-43296153D01*
X119383921Y-43316670D01*
X119369671Y-43335883D01*
X119353607Y-43353607D01*
X119335883Y-43369671D01*
X119316670Y-43383921D01*
X119296153Y-43396218D01*
X119274529Y-43406446D01*
X119252007Y-43414504D01*
X119228803Y-43420316D01*
X119205142Y-43423826D01*
X119181250Y-43425000D01*
X118693750Y-43425000D01*
X118669858Y-43423826D01*
X118646197Y-43420316D01*
X118622993Y-43414504D01*
X118600471Y-43406446D01*
X118578847Y-43396218D01*
X118558330Y-43383921D01*
X118539117Y-43369671D01*
X118521393Y-43353607D01*
X118505329Y-43335883D01*
X118491079Y-43316670D01*
X118478782Y-43296153D01*
X118468554Y-43274529D01*
X118460496Y-43252007D01*
X118454684Y-43228803D01*
X118451174Y-43205142D01*
X118450000Y-43181250D01*
X118450000Y-42618750D01*
X118451174Y-42594858D01*
X118454684Y-42571197D01*
X118460496Y-42547993D01*
X118468554Y-42525471D01*
X118478782Y-42503847D01*
X118491079Y-42483330D01*
X118505329Y-42464117D01*
X118521393Y-42446393D01*
X118539117Y-42430329D01*
X118558330Y-42416079D01*
X118578847Y-42403782D01*
X118600471Y-42393554D01*
X118622993Y-42385496D01*
X118646197Y-42379684D01*
X118669858Y-42376174D01*
X118693750Y-42375000D01*
X119181250Y-42375000D01*
X119205142Y-42376174D01*
G37*
G36*
X117630142Y-42376174D02*
G01*
X117653803Y-42379684D01*
X117677007Y-42385496D01*
X117699529Y-42393554D01*
X117721153Y-42403782D01*
X117741670Y-42416079D01*
X117760883Y-42430329D01*
X117778607Y-42446393D01*
X117794671Y-42464117D01*
X117808921Y-42483330D01*
X117821218Y-42503847D01*
X117831446Y-42525471D01*
X117839504Y-42547993D01*
X117845316Y-42571197D01*
X117848826Y-42594858D01*
X117850000Y-42618750D01*
X117850000Y-43181250D01*
X117848826Y-43205142D01*
X117845316Y-43228803D01*
X117839504Y-43252007D01*
X117831446Y-43274529D01*
X117821218Y-43296153D01*
X117808921Y-43316670D01*
X117794671Y-43335883D01*
X117778607Y-43353607D01*
X117760883Y-43369671D01*
X117741670Y-43383921D01*
X117721153Y-43396218D01*
X117699529Y-43406446D01*
X117677007Y-43414504D01*
X117653803Y-43420316D01*
X117630142Y-43423826D01*
X117606250Y-43425000D01*
X117118750Y-43425000D01*
X117094858Y-43423826D01*
X117071197Y-43420316D01*
X117047993Y-43414504D01*
X117025471Y-43406446D01*
X117003847Y-43396218D01*
X116983330Y-43383921D01*
X116964117Y-43369671D01*
X116946393Y-43353607D01*
X116930329Y-43335883D01*
X116916079Y-43316670D01*
X116903782Y-43296153D01*
X116893554Y-43274529D01*
X116885496Y-43252007D01*
X116879684Y-43228803D01*
X116876174Y-43205142D01*
X116875000Y-43181250D01*
X116875000Y-42618750D01*
X116876174Y-42594858D01*
X116879684Y-42571197D01*
X116885496Y-42547993D01*
X116893554Y-42525471D01*
X116903782Y-42503847D01*
X116916079Y-42483330D01*
X116930329Y-42464117D01*
X116946393Y-42446393D01*
X116964117Y-42430329D01*
X116983330Y-42416079D01*
X117003847Y-42403782D01*
X117025471Y-42393554D01*
X117047993Y-42385496D01*
X117071197Y-42379684D01*
X117094858Y-42376174D01*
X117118750Y-42375000D01*
X117606250Y-42375000D01*
X117630142Y-42376174D01*
G37*
G36*
X115017642Y-36276174D02*
G01*
X115041303Y-36279684D01*
X115064507Y-36285496D01*
X115087029Y-36293554D01*
X115108653Y-36303782D01*
X115129170Y-36316079D01*
X115148383Y-36330329D01*
X115166107Y-36346393D01*
X115182171Y-36364117D01*
X115196421Y-36383330D01*
X115208718Y-36403847D01*
X115218946Y-36425471D01*
X115227004Y-36447993D01*
X115232816Y-36471197D01*
X115236326Y-36494858D01*
X115237500Y-36518750D01*
X115237500Y-37081250D01*
X115236326Y-37105142D01*
X115232816Y-37128803D01*
X115227004Y-37152007D01*
X115218946Y-37174529D01*
X115208718Y-37196153D01*
X115196421Y-37216670D01*
X115182171Y-37235883D01*
X115166107Y-37253607D01*
X115148383Y-37269671D01*
X115129170Y-37283921D01*
X115108653Y-37296218D01*
X115087029Y-37306446D01*
X115064507Y-37314504D01*
X115041303Y-37320316D01*
X115017642Y-37323826D01*
X114993750Y-37325000D01*
X114506250Y-37325000D01*
X114482358Y-37323826D01*
X114458697Y-37320316D01*
X114435493Y-37314504D01*
X114412971Y-37306446D01*
X114391347Y-37296218D01*
X114370830Y-37283921D01*
X114351617Y-37269671D01*
X114333893Y-37253607D01*
X114317829Y-37235883D01*
X114303579Y-37216670D01*
X114291282Y-37196153D01*
X114281054Y-37174529D01*
X114272996Y-37152007D01*
X114267184Y-37128803D01*
X114263674Y-37105142D01*
X114262500Y-37081250D01*
X114262500Y-36518750D01*
X114263674Y-36494858D01*
X114267184Y-36471197D01*
X114272996Y-36447993D01*
X114281054Y-36425471D01*
X114291282Y-36403847D01*
X114303579Y-36383330D01*
X114317829Y-36364117D01*
X114333893Y-36346393D01*
X114351617Y-36330329D01*
X114370830Y-36316079D01*
X114391347Y-36303782D01*
X114412971Y-36293554D01*
X114435493Y-36285496D01*
X114458697Y-36279684D01*
X114482358Y-36276174D01*
X114506250Y-36275000D01*
X114993750Y-36275000D01*
X115017642Y-36276174D01*
G37*
G36*
X113442642Y-36276174D02*
G01*
X113466303Y-36279684D01*
X113489507Y-36285496D01*
X113512029Y-36293554D01*
X113533653Y-36303782D01*
X113554170Y-36316079D01*
X113573383Y-36330329D01*
X113591107Y-36346393D01*
X113607171Y-36364117D01*
X113621421Y-36383330D01*
X113633718Y-36403847D01*
X113643946Y-36425471D01*
X113652004Y-36447993D01*
X113657816Y-36471197D01*
X113661326Y-36494858D01*
X113662500Y-36518750D01*
X113662500Y-37081250D01*
X113661326Y-37105142D01*
X113657816Y-37128803D01*
X113652004Y-37152007D01*
X113643946Y-37174529D01*
X113633718Y-37196153D01*
X113621421Y-37216670D01*
X113607171Y-37235883D01*
X113591107Y-37253607D01*
X113573383Y-37269671D01*
X113554170Y-37283921D01*
X113533653Y-37296218D01*
X113512029Y-37306446D01*
X113489507Y-37314504D01*
X113466303Y-37320316D01*
X113442642Y-37323826D01*
X113418750Y-37325000D01*
X112931250Y-37325000D01*
X112907358Y-37323826D01*
X112883697Y-37320316D01*
X112860493Y-37314504D01*
X112837971Y-37306446D01*
X112816347Y-37296218D01*
X112795830Y-37283921D01*
X112776617Y-37269671D01*
X112758893Y-37253607D01*
X112742829Y-37235883D01*
X112728579Y-37216670D01*
X112716282Y-37196153D01*
X112706054Y-37174529D01*
X112697996Y-37152007D01*
X112692184Y-37128803D01*
X112688674Y-37105142D01*
X112687500Y-37081250D01*
X112687500Y-36518750D01*
X112688674Y-36494858D01*
X112692184Y-36471197D01*
X112697996Y-36447993D01*
X112706054Y-36425471D01*
X112716282Y-36403847D01*
X112728579Y-36383330D01*
X112742829Y-36364117D01*
X112758893Y-36346393D01*
X112776617Y-36330329D01*
X112795830Y-36316079D01*
X112816347Y-36303782D01*
X112837971Y-36293554D01*
X112860493Y-36285496D01*
X112883697Y-36279684D01*
X112907358Y-36276174D01*
X112931250Y-36275000D01*
X113418750Y-36275000D01*
X113442642Y-36276174D01*
G37*
G36*
X101042642Y-48276174D02*
G01*
X101066303Y-48279684D01*
X101089507Y-48285496D01*
X101112029Y-48293554D01*
X101133653Y-48303782D01*
X101154170Y-48316079D01*
X101173383Y-48330329D01*
X101191107Y-48346393D01*
X101207171Y-48364117D01*
X101221421Y-48383330D01*
X101233718Y-48403847D01*
X101243946Y-48425471D01*
X101252004Y-48447993D01*
X101257816Y-48471197D01*
X101261326Y-48494858D01*
X101262500Y-48518750D01*
X101262500Y-49081250D01*
X101261326Y-49105142D01*
X101257816Y-49128803D01*
X101252004Y-49152007D01*
X101243946Y-49174529D01*
X101233718Y-49196153D01*
X101221421Y-49216670D01*
X101207171Y-49235883D01*
X101191107Y-49253607D01*
X101173383Y-49269671D01*
X101154170Y-49283921D01*
X101133653Y-49296218D01*
X101112029Y-49306446D01*
X101089507Y-49314504D01*
X101066303Y-49320316D01*
X101042642Y-49323826D01*
X101018750Y-49325000D01*
X100531250Y-49325000D01*
X100507358Y-49323826D01*
X100483697Y-49320316D01*
X100460493Y-49314504D01*
X100437971Y-49306446D01*
X100416347Y-49296218D01*
X100395830Y-49283921D01*
X100376617Y-49269671D01*
X100358893Y-49253607D01*
X100342829Y-49235883D01*
X100328579Y-49216670D01*
X100316282Y-49196153D01*
X100306054Y-49174529D01*
X100297996Y-49152007D01*
X100292184Y-49128803D01*
X100288674Y-49105142D01*
X100287500Y-49081250D01*
X100287500Y-48518750D01*
X100288674Y-48494858D01*
X100292184Y-48471197D01*
X100297996Y-48447993D01*
X100306054Y-48425471D01*
X100316282Y-48403847D01*
X100328579Y-48383330D01*
X100342829Y-48364117D01*
X100358893Y-48346393D01*
X100376617Y-48330329D01*
X100395830Y-48316079D01*
X100416347Y-48303782D01*
X100437971Y-48293554D01*
X100460493Y-48285496D01*
X100483697Y-48279684D01*
X100507358Y-48276174D01*
X100531250Y-48275000D01*
X101018750Y-48275000D01*
X101042642Y-48276174D01*
G37*
G36*
X102617642Y-48276174D02*
G01*
X102641303Y-48279684D01*
X102664507Y-48285496D01*
X102687029Y-48293554D01*
X102708653Y-48303782D01*
X102729170Y-48316079D01*
X102748383Y-48330329D01*
X102766107Y-48346393D01*
X102782171Y-48364117D01*
X102796421Y-48383330D01*
X102808718Y-48403847D01*
X102818946Y-48425471D01*
X102827004Y-48447993D01*
X102832816Y-48471197D01*
X102836326Y-48494858D01*
X102837500Y-48518750D01*
X102837500Y-49081250D01*
X102836326Y-49105142D01*
X102832816Y-49128803D01*
X102827004Y-49152007D01*
X102818946Y-49174529D01*
X102808718Y-49196153D01*
X102796421Y-49216670D01*
X102782171Y-49235883D01*
X102766107Y-49253607D01*
X102748383Y-49269671D01*
X102729170Y-49283921D01*
X102708653Y-49296218D01*
X102687029Y-49306446D01*
X102664507Y-49314504D01*
X102641303Y-49320316D01*
X102617642Y-49323826D01*
X102593750Y-49325000D01*
X102106250Y-49325000D01*
X102082358Y-49323826D01*
X102058697Y-49320316D01*
X102035493Y-49314504D01*
X102012971Y-49306446D01*
X101991347Y-49296218D01*
X101970830Y-49283921D01*
X101951617Y-49269671D01*
X101933893Y-49253607D01*
X101917829Y-49235883D01*
X101903579Y-49216670D01*
X101891282Y-49196153D01*
X101881054Y-49174529D01*
X101872996Y-49152007D01*
X101867184Y-49128803D01*
X101863674Y-49105142D01*
X101862500Y-49081250D01*
X101862500Y-48518750D01*
X101863674Y-48494858D01*
X101867184Y-48471197D01*
X101872996Y-48447993D01*
X101881054Y-48425471D01*
X101891282Y-48403847D01*
X101903579Y-48383330D01*
X101917829Y-48364117D01*
X101933893Y-48346393D01*
X101951617Y-48330329D01*
X101970830Y-48316079D01*
X101991347Y-48303782D01*
X102012971Y-48293554D01*
X102035493Y-48285496D01*
X102058697Y-48279684D01*
X102082358Y-48276174D01*
X102106250Y-48275000D01*
X102593750Y-48275000D01*
X102617642Y-48276174D01*
G37*
D13*
X127800000Y-42900000D03*
X127800000Y-40360000D03*
X127800000Y-37820000D03*
D14*
X127800000Y-35280000D03*
X90450000Y-34500000D03*
D13*
X92990000Y-34500000D03*
X95530000Y-34500000D03*
X98070000Y-34500000D03*
D15*
X83900000Y-35800000D03*
X83900000Y-47200000D03*
D16*
X83900000Y-39200000D03*
X83900000Y-43800000D03*
D11*
G36*
X96317642Y-44976174D02*
G01*
X96341303Y-44979684D01*
X96364507Y-44985496D01*
X96387029Y-44993554D01*
X96408653Y-45003782D01*
X96429170Y-45016079D01*
X96448383Y-45030329D01*
X96466107Y-45046393D01*
X96482171Y-45064117D01*
X96496421Y-45083330D01*
X96508718Y-45103847D01*
X96518946Y-45125471D01*
X96527004Y-45147993D01*
X96532816Y-45171197D01*
X96536326Y-45194858D01*
X96537500Y-45218750D01*
X96537500Y-45781250D01*
X96536326Y-45805142D01*
X96532816Y-45828803D01*
X96527004Y-45852007D01*
X96518946Y-45874529D01*
X96508718Y-45896153D01*
X96496421Y-45916670D01*
X96482171Y-45935883D01*
X96466107Y-45953607D01*
X96448383Y-45969671D01*
X96429170Y-45983921D01*
X96408653Y-45996218D01*
X96387029Y-46006446D01*
X96364507Y-46014504D01*
X96341303Y-46020316D01*
X96317642Y-46023826D01*
X96293750Y-46025000D01*
X95806250Y-46025000D01*
X95782358Y-46023826D01*
X95758697Y-46020316D01*
X95735493Y-46014504D01*
X95712971Y-46006446D01*
X95691347Y-45996218D01*
X95670830Y-45983921D01*
X95651617Y-45969671D01*
X95633893Y-45953607D01*
X95617829Y-45935883D01*
X95603579Y-45916670D01*
X95591282Y-45896153D01*
X95581054Y-45874529D01*
X95572996Y-45852007D01*
X95567184Y-45828803D01*
X95563674Y-45805142D01*
X95562500Y-45781250D01*
X95562500Y-45218750D01*
X95563674Y-45194858D01*
X95567184Y-45171197D01*
X95572996Y-45147993D01*
X95581054Y-45125471D01*
X95591282Y-45103847D01*
X95603579Y-45083330D01*
X95617829Y-45064117D01*
X95633893Y-45046393D01*
X95651617Y-45030329D01*
X95670830Y-45016079D01*
X95691347Y-45003782D01*
X95712971Y-44993554D01*
X95735493Y-44985496D01*
X95758697Y-44979684D01*
X95782358Y-44976174D01*
X95806250Y-44975000D01*
X96293750Y-44975000D01*
X96317642Y-44976174D01*
G37*
G36*
X97892642Y-44976174D02*
G01*
X97916303Y-44979684D01*
X97939507Y-44985496D01*
X97962029Y-44993554D01*
X97983653Y-45003782D01*
X98004170Y-45016079D01*
X98023383Y-45030329D01*
X98041107Y-45046393D01*
X98057171Y-45064117D01*
X98071421Y-45083330D01*
X98083718Y-45103847D01*
X98093946Y-45125471D01*
X98102004Y-45147993D01*
X98107816Y-45171197D01*
X98111326Y-45194858D01*
X98112500Y-45218750D01*
X98112500Y-45781250D01*
X98111326Y-45805142D01*
X98107816Y-45828803D01*
X98102004Y-45852007D01*
X98093946Y-45874529D01*
X98083718Y-45896153D01*
X98071421Y-45916670D01*
X98057171Y-45935883D01*
X98041107Y-45953607D01*
X98023383Y-45969671D01*
X98004170Y-45983921D01*
X97983653Y-45996218D01*
X97962029Y-46006446D01*
X97939507Y-46014504D01*
X97916303Y-46020316D01*
X97892642Y-46023826D01*
X97868750Y-46025000D01*
X97381250Y-46025000D01*
X97357358Y-46023826D01*
X97333697Y-46020316D01*
X97310493Y-46014504D01*
X97287971Y-46006446D01*
X97266347Y-45996218D01*
X97245830Y-45983921D01*
X97226617Y-45969671D01*
X97208893Y-45953607D01*
X97192829Y-45935883D01*
X97178579Y-45916670D01*
X97166282Y-45896153D01*
X97156054Y-45874529D01*
X97147996Y-45852007D01*
X97142184Y-45828803D01*
X97138674Y-45805142D01*
X97137500Y-45781250D01*
X97137500Y-45218750D01*
X97138674Y-45194858D01*
X97142184Y-45171197D01*
X97147996Y-45147993D01*
X97156054Y-45125471D01*
X97166282Y-45103847D01*
X97178579Y-45083330D01*
X97192829Y-45064117D01*
X97208893Y-45046393D01*
X97226617Y-45030329D01*
X97245830Y-45016079D01*
X97266347Y-45003782D01*
X97287971Y-44993554D01*
X97310493Y-44985496D01*
X97333697Y-44979684D01*
X97357358Y-44976174D01*
X97381250Y-44975000D01*
X97868750Y-44975000D01*
X97892642Y-44976174D01*
G37*
G36*
X113442642Y-42376174D02*
G01*
X113466303Y-42379684D01*
X113489507Y-42385496D01*
X113512029Y-42393554D01*
X113533653Y-42403782D01*
X113554170Y-42416079D01*
X113573383Y-42430329D01*
X113591107Y-42446393D01*
X113607171Y-42464117D01*
X113621421Y-42483330D01*
X113633718Y-42503847D01*
X113643946Y-42525471D01*
X113652004Y-42547993D01*
X113657816Y-42571197D01*
X113661326Y-42594858D01*
X113662500Y-42618750D01*
X113662500Y-43181250D01*
X113661326Y-43205142D01*
X113657816Y-43228803D01*
X113652004Y-43252007D01*
X113643946Y-43274529D01*
X113633718Y-43296153D01*
X113621421Y-43316670D01*
X113607171Y-43335883D01*
X113591107Y-43353607D01*
X113573383Y-43369671D01*
X113554170Y-43383921D01*
X113533653Y-43396218D01*
X113512029Y-43406446D01*
X113489507Y-43414504D01*
X113466303Y-43420316D01*
X113442642Y-43423826D01*
X113418750Y-43425000D01*
X112931250Y-43425000D01*
X112907358Y-43423826D01*
X112883697Y-43420316D01*
X112860493Y-43414504D01*
X112837971Y-43406446D01*
X112816347Y-43396218D01*
X112795830Y-43383921D01*
X112776617Y-43369671D01*
X112758893Y-43353607D01*
X112742829Y-43335883D01*
X112728579Y-43316670D01*
X112716282Y-43296153D01*
X112706054Y-43274529D01*
X112697996Y-43252007D01*
X112692184Y-43228803D01*
X112688674Y-43205142D01*
X112687500Y-43181250D01*
X112687500Y-42618750D01*
X112688674Y-42594858D01*
X112692184Y-42571197D01*
X112697996Y-42547993D01*
X112706054Y-42525471D01*
X112716282Y-42503847D01*
X112728579Y-42483330D01*
X112742829Y-42464117D01*
X112758893Y-42446393D01*
X112776617Y-42430329D01*
X112795830Y-42416079D01*
X112816347Y-42403782D01*
X112837971Y-42393554D01*
X112860493Y-42385496D01*
X112883697Y-42379684D01*
X112907358Y-42376174D01*
X112931250Y-42375000D01*
X113418750Y-42375000D01*
X113442642Y-42376174D01*
G37*
G36*
X115017642Y-42376174D02*
G01*
X115041303Y-42379684D01*
X115064507Y-42385496D01*
X115087029Y-42393554D01*
X115108653Y-42403782D01*
X115129170Y-42416079D01*
X115148383Y-42430329D01*
X115166107Y-42446393D01*
X115182171Y-42464117D01*
X115196421Y-42483330D01*
X115208718Y-42503847D01*
X115218946Y-42525471D01*
X115227004Y-42547993D01*
X115232816Y-42571197D01*
X115236326Y-42594858D01*
X115237500Y-42618750D01*
X115237500Y-43181250D01*
X115236326Y-43205142D01*
X115232816Y-43228803D01*
X115227004Y-43252007D01*
X115218946Y-43274529D01*
X115208718Y-43296153D01*
X115196421Y-43316670D01*
X115182171Y-43335883D01*
X115166107Y-43353607D01*
X115148383Y-43369671D01*
X115129170Y-43383921D01*
X115108653Y-43396218D01*
X115087029Y-43406446D01*
X115064507Y-43414504D01*
X115041303Y-43420316D01*
X115017642Y-43423826D01*
X114993750Y-43425000D01*
X114506250Y-43425000D01*
X114482358Y-43423826D01*
X114458697Y-43420316D01*
X114435493Y-43414504D01*
X114412971Y-43406446D01*
X114391347Y-43396218D01*
X114370830Y-43383921D01*
X114351617Y-43369671D01*
X114333893Y-43353607D01*
X114317829Y-43335883D01*
X114303579Y-43316670D01*
X114291282Y-43296153D01*
X114281054Y-43274529D01*
X114272996Y-43252007D01*
X114267184Y-43228803D01*
X114263674Y-43205142D01*
X114262500Y-43181250D01*
X114262500Y-42618750D01*
X114263674Y-42594858D01*
X114267184Y-42571197D01*
X114272996Y-42547993D01*
X114281054Y-42525471D01*
X114291282Y-42503847D01*
X114303579Y-42483330D01*
X114317829Y-42464117D01*
X114333893Y-42446393D01*
X114351617Y-42430329D01*
X114370830Y-42416079D01*
X114391347Y-42403782D01*
X114412971Y-42393554D01*
X114435493Y-42385496D01*
X114458697Y-42379684D01*
X114482358Y-42376174D01*
X114506250Y-42375000D01*
X114993750Y-42375000D01*
X115017642Y-42376174D01*
G37*
G36*
X122530142Y-39276174D02*
G01*
X122553803Y-39279684D01*
X122577007Y-39285496D01*
X122599529Y-39293554D01*
X122621153Y-39303782D01*
X122641670Y-39316079D01*
X122660883Y-39330329D01*
X122678607Y-39346393D01*
X122694671Y-39364117D01*
X122708921Y-39383330D01*
X122721218Y-39403847D01*
X122731446Y-39425471D01*
X122739504Y-39447993D01*
X122745316Y-39471197D01*
X122748826Y-39494858D01*
X122750000Y-39518750D01*
X122750000Y-40081250D01*
X122748826Y-40105142D01*
X122745316Y-40128803D01*
X122739504Y-40152007D01*
X122731446Y-40174529D01*
X122721218Y-40196153D01*
X122708921Y-40216670D01*
X122694671Y-40235883D01*
X122678607Y-40253607D01*
X122660883Y-40269671D01*
X122641670Y-40283921D01*
X122621153Y-40296218D01*
X122599529Y-40306446D01*
X122577007Y-40314504D01*
X122553803Y-40320316D01*
X122530142Y-40323826D01*
X122506250Y-40325000D01*
X122018750Y-40325000D01*
X121994858Y-40323826D01*
X121971197Y-40320316D01*
X121947993Y-40314504D01*
X121925471Y-40306446D01*
X121903847Y-40296218D01*
X121883330Y-40283921D01*
X121864117Y-40269671D01*
X121846393Y-40253607D01*
X121830329Y-40235883D01*
X121816079Y-40216670D01*
X121803782Y-40196153D01*
X121793554Y-40174529D01*
X121785496Y-40152007D01*
X121779684Y-40128803D01*
X121776174Y-40105142D01*
X121775000Y-40081250D01*
X121775000Y-39518750D01*
X121776174Y-39494858D01*
X121779684Y-39471197D01*
X121785496Y-39447993D01*
X121793554Y-39425471D01*
X121803782Y-39403847D01*
X121816079Y-39383330D01*
X121830329Y-39364117D01*
X121846393Y-39346393D01*
X121864117Y-39330329D01*
X121883330Y-39316079D01*
X121903847Y-39303782D01*
X121925471Y-39293554D01*
X121947993Y-39285496D01*
X121971197Y-39279684D01*
X121994858Y-39276174D01*
X122018750Y-39275000D01*
X122506250Y-39275000D01*
X122530142Y-39276174D01*
G37*
G36*
X124105142Y-39276174D02*
G01*
X124128803Y-39279684D01*
X124152007Y-39285496D01*
X124174529Y-39293554D01*
X124196153Y-39303782D01*
X124216670Y-39316079D01*
X124235883Y-39330329D01*
X124253607Y-39346393D01*
X124269671Y-39364117D01*
X124283921Y-39383330D01*
X124296218Y-39403847D01*
X124306446Y-39425471D01*
X124314504Y-39447993D01*
X124320316Y-39471197D01*
X124323826Y-39494858D01*
X124325000Y-39518750D01*
X124325000Y-40081250D01*
X124323826Y-40105142D01*
X124320316Y-40128803D01*
X124314504Y-40152007D01*
X124306446Y-40174529D01*
X124296218Y-40196153D01*
X124283921Y-40216670D01*
X124269671Y-40235883D01*
X124253607Y-40253607D01*
X124235883Y-40269671D01*
X124216670Y-40283921D01*
X124196153Y-40296218D01*
X124174529Y-40306446D01*
X124152007Y-40314504D01*
X124128803Y-40320316D01*
X124105142Y-40323826D01*
X124081250Y-40325000D01*
X123593750Y-40325000D01*
X123569858Y-40323826D01*
X123546197Y-40320316D01*
X123522993Y-40314504D01*
X123500471Y-40306446D01*
X123478847Y-40296218D01*
X123458330Y-40283921D01*
X123439117Y-40269671D01*
X123421393Y-40253607D01*
X123405329Y-40235883D01*
X123391079Y-40216670D01*
X123378782Y-40196153D01*
X123368554Y-40174529D01*
X123360496Y-40152007D01*
X123354684Y-40128803D01*
X123351174Y-40105142D01*
X123350000Y-40081250D01*
X123350000Y-39518750D01*
X123351174Y-39494858D01*
X123354684Y-39471197D01*
X123360496Y-39447993D01*
X123368554Y-39425471D01*
X123378782Y-39403847D01*
X123391079Y-39383330D01*
X123405329Y-39364117D01*
X123421393Y-39346393D01*
X123439117Y-39330329D01*
X123458330Y-39316079D01*
X123478847Y-39303782D01*
X123500471Y-39293554D01*
X123522993Y-39285496D01*
X123546197Y-39279684D01*
X123569858Y-39276174D01*
X123593750Y-39275000D01*
X124081250Y-39275000D01*
X124105142Y-39276174D01*
G37*
G36*
X124105142Y-42376174D02*
G01*
X124128803Y-42379684D01*
X124152007Y-42385496D01*
X124174529Y-42393554D01*
X124196153Y-42403782D01*
X124216670Y-42416079D01*
X124235883Y-42430329D01*
X124253607Y-42446393D01*
X124269671Y-42464117D01*
X124283921Y-42483330D01*
X124296218Y-42503847D01*
X124306446Y-42525471D01*
X124314504Y-42547993D01*
X124320316Y-42571197D01*
X124323826Y-42594858D01*
X124325000Y-42618750D01*
X124325000Y-43181250D01*
X124323826Y-43205142D01*
X124320316Y-43228803D01*
X124314504Y-43252007D01*
X124306446Y-43274529D01*
X124296218Y-43296153D01*
X124283921Y-43316670D01*
X124269671Y-43335883D01*
X124253607Y-43353607D01*
X124235883Y-43369671D01*
X124216670Y-43383921D01*
X124196153Y-43396218D01*
X124174529Y-43406446D01*
X124152007Y-43414504D01*
X124128803Y-43420316D01*
X124105142Y-43423826D01*
X124081250Y-43425000D01*
X123593750Y-43425000D01*
X123569858Y-43423826D01*
X123546197Y-43420316D01*
X123522993Y-43414504D01*
X123500471Y-43406446D01*
X123478847Y-43396218D01*
X123458330Y-43383921D01*
X123439117Y-43369671D01*
X123421393Y-43353607D01*
X123405329Y-43335883D01*
X123391079Y-43316670D01*
X123378782Y-43296153D01*
X123368554Y-43274529D01*
X123360496Y-43252007D01*
X123354684Y-43228803D01*
X123351174Y-43205142D01*
X123350000Y-43181250D01*
X123350000Y-42618750D01*
X123351174Y-42594858D01*
X123354684Y-42571197D01*
X123360496Y-42547993D01*
X123368554Y-42525471D01*
X123378782Y-42503847D01*
X123391079Y-42483330D01*
X123405329Y-42464117D01*
X123421393Y-42446393D01*
X123439117Y-42430329D01*
X123458330Y-42416079D01*
X123478847Y-42403782D01*
X123500471Y-42393554D01*
X123522993Y-42385496D01*
X123546197Y-42379684D01*
X123569858Y-42376174D01*
X123593750Y-42375000D01*
X124081250Y-42375000D01*
X124105142Y-42376174D01*
G37*
G36*
X122530142Y-42376174D02*
G01*
X122553803Y-42379684D01*
X122577007Y-42385496D01*
X122599529Y-42393554D01*
X122621153Y-42403782D01*
X122641670Y-42416079D01*
X122660883Y-42430329D01*
X122678607Y-42446393D01*
X122694671Y-42464117D01*
X122708921Y-42483330D01*
X122721218Y-42503847D01*
X122731446Y-42525471D01*
X122739504Y-42547993D01*
X122745316Y-42571197D01*
X122748826Y-42594858D01*
X122750000Y-42618750D01*
X122750000Y-43181250D01*
X122748826Y-43205142D01*
X122745316Y-43228803D01*
X122739504Y-43252007D01*
X122731446Y-43274529D01*
X122721218Y-43296153D01*
X122708921Y-43316670D01*
X122694671Y-43335883D01*
X122678607Y-43353607D01*
X122660883Y-43369671D01*
X122641670Y-43383921D01*
X122621153Y-43396218D01*
X122599529Y-43406446D01*
X122577007Y-43414504D01*
X122553803Y-43420316D01*
X122530142Y-43423826D01*
X122506250Y-43425000D01*
X122018750Y-43425000D01*
X121994858Y-43423826D01*
X121971197Y-43420316D01*
X121947993Y-43414504D01*
X121925471Y-43406446D01*
X121903847Y-43396218D01*
X121883330Y-43383921D01*
X121864117Y-43369671D01*
X121846393Y-43353607D01*
X121830329Y-43335883D01*
X121816079Y-43316670D01*
X121803782Y-43296153D01*
X121793554Y-43274529D01*
X121785496Y-43252007D01*
X121779684Y-43228803D01*
X121776174Y-43205142D01*
X121775000Y-43181250D01*
X121775000Y-42618750D01*
X121776174Y-42594858D01*
X121779684Y-42571197D01*
X121785496Y-42547993D01*
X121793554Y-42525471D01*
X121803782Y-42503847D01*
X121816079Y-42483330D01*
X121830329Y-42464117D01*
X121846393Y-42446393D01*
X121864117Y-42430329D01*
X121883330Y-42416079D01*
X121903847Y-42403782D01*
X121925471Y-42393554D01*
X121947993Y-42385496D01*
X121971197Y-42379684D01*
X121994858Y-42376174D01*
X122018750Y-42375000D01*
X122506250Y-42375000D01*
X122530142Y-42376174D01*
G37*
G36*
X113442642Y-39276174D02*
G01*
X113466303Y-39279684D01*
X113489507Y-39285496D01*
X113512029Y-39293554D01*
X113533653Y-39303782D01*
X113554170Y-39316079D01*
X113573383Y-39330329D01*
X113591107Y-39346393D01*
X113607171Y-39364117D01*
X113621421Y-39383330D01*
X113633718Y-39403847D01*
X113643946Y-39425471D01*
X113652004Y-39447993D01*
X113657816Y-39471197D01*
X113661326Y-39494858D01*
X113662500Y-39518750D01*
X113662500Y-40081250D01*
X113661326Y-40105142D01*
X113657816Y-40128803D01*
X113652004Y-40152007D01*
X113643946Y-40174529D01*
X113633718Y-40196153D01*
X113621421Y-40216670D01*
X113607171Y-40235883D01*
X113591107Y-40253607D01*
X113573383Y-40269671D01*
X113554170Y-40283921D01*
X113533653Y-40296218D01*
X113512029Y-40306446D01*
X113489507Y-40314504D01*
X113466303Y-40320316D01*
X113442642Y-40323826D01*
X113418750Y-40325000D01*
X112931250Y-40325000D01*
X112907358Y-40323826D01*
X112883697Y-40320316D01*
X112860493Y-40314504D01*
X112837971Y-40306446D01*
X112816347Y-40296218D01*
X112795830Y-40283921D01*
X112776617Y-40269671D01*
X112758893Y-40253607D01*
X112742829Y-40235883D01*
X112728579Y-40216670D01*
X112716282Y-40196153D01*
X112706054Y-40174529D01*
X112697996Y-40152007D01*
X112692184Y-40128803D01*
X112688674Y-40105142D01*
X112687500Y-40081250D01*
X112687500Y-39518750D01*
X112688674Y-39494858D01*
X112692184Y-39471197D01*
X112697996Y-39447993D01*
X112706054Y-39425471D01*
X112716282Y-39403847D01*
X112728579Y-39383330D01*
X112742829Y-39364117D01*
X112758893Y-39346393D01*
X112776617Y-39330329D01*
X112795830Y-39316079D01*
X112816347Y-39303782D01*
X112837971Y-39293554D01*
X112860493Y-39285496D01*
X112883697Y-39279684D01*
X112907358Y-39276174D01*
X112931250Y-39275000D01*
X113418750Y-39275000D01*
X113442642Y-39276174D01*
G37*
G36*
X115017642Y-39276174D02*
G01*
X115041303Y-39279684D01*
X115064507Y-39285496D01*
X115087029Y-39293554D01*
X115108653Y-39303782D01*
X115129170Y-39316079D01*
X115148383Y-39330329D01*
X115166107Y-39346393D01*
X115182171Y-39364117D01*
X115196421Y-39383330D01*
X115208718Y-39403847D01*
X115218946Y-39425471D01*
X115227004Y-39447993D01*
X115232816Y-39471197D01*
X115236326Y-39494858D01*
X115237500Y-39518750D01*
X115237500Y-40081250D01*
X115236326Y-40105142D01*
X115232816Y-40128803D01*
X115227004Y-40152007D01*
X115218946Y-40174529D01*
X115208718Y-40196153D01*
X115196421Y-40216670D01*
X115182171Y-40235883D01*
X115166107Y-40253607D01*
X115148383Y-40269671D01*
X115129170Y-40283921D01*
X115108653Y-40296218D01*
X115087029Y-40306446D01*
X115064507Y-40314504D01*
X115041303Y-40320316D01*
X115017642Y-40323826D01*
X114993750Y-40325000D01*
X114506250Y-40325000D01*
X114482358Y-40323826D01*
X114458697Y-40320316D01*
X114435493Y-40314504D01*
X114412971Y-40306446D01*
X114391347Y-40296218D01*
X114370830Y-40283921D01*
X114351617Y-40269671D01*
X114333893Y-40253607D01*
X114317829Y-40235883D01*
X114303579Y-40216670D01*
X114291282Y-40196153D01*
X114281054Y-40174529D01*
X114272996Y-40152007D01*
X114267184Y-40128803D01*
X114263674Y-40105142D01*
X114262500Y-40081250D01*
X114262500Y-39518750D01*
X114263674Y-39494858D01*
X114267184Y-39471197D01*
X114272996Y-39447993D01*
X114281054Y-39425471D01*
X114291282Y-39403847D01*
X114303579Y-39383330D01*
X114317829Y-39364117D01*
X114333893Y-39346393D01*
X114351617Y-39330329D01*
X114370830Y-39316079D01*
X114391347Y-39303782D01*
X114412971Y-39293554D01*
X114435493Y-39285496D01*
X114458697Y-39279684D01*
X114482358Y-39276174D01*
X114506250Y-39275000D01*
X114993750Y-39275000D01*
X115017642Y-39276174D01*
G37*
G36*
X96342642Y-48276174D02*
G01*
X96366303Y-48279684D01*
X96389507Y-48285496D01*
X96412029Y-48293554D01*
X96433653Y-48303782D01*
X96454170Y-48316079D01*
X96473383Y-48330329D01*
X96491107Y-48346393D01*
X96507171Y-48364117D01*
X96521421Y-48383330D01*
X96533718Y-48403847D01*
X96543946Y-48425471D01*
X96552004Y-48447993D01*
X96557816Y-48471197D01*
X96561326Y-48494858D01*
X96562500Y-48518750D01*
X96562500Y-49081250D01*
X96561326Y-49105142D01*
X96557816Y-49128803D01*
X96552004Y-49152007D01*
X96543946Y-49174529D01*
X96533718Y-49196153D01*
X96521421Y-49216670D01*
X96507171Y-49235883D01*
X96491107Y-49253607D01*
X96473383Y-49269671D01*
X96454170Y-49283921D01*
X96433653Y-49296218D01*
X96412029Y-49306446D01*
X96389507Y-49314504D01*
X96366303Y-49320316D01*
X96342642Y-49323826D01*
X96318750Y-49325000D01*
X95831250Y-49325000D01*
X95807358Y-49323826D01*
X95783697Y-49320316D01*
X95760493Y-49314504D01*
X95737971Y-49306446D01*
X95716347Y-49296218D01*
X95695830Y-49283921D01*
X95676617Y-49269671D01*
X95658893Y-49253607D01*
X95642829Y-49235883D01*
X95628579Y-49216670D01*
X95616282Y-49196153D01*
X95606054Y-49174529D01*
X95597996Y-49152007D01*
X95592184Y-49128803D01*
X95588674Y-49105142D01*
X95587500Y-49081250D01*
X95587500Y-48518750D01*
X95588674Y-48494858D01*
X95592184Y-48471197D01*
X95597996Y-48447993D01*
X95606054Y-48425471D01*
X95616282Y-48403847D01*
X95628579Y-48383330D01*
X95642829Y-48364117D01*
X95658893Y-48346393D01*
X95676617Y-48330329D01*
X95695830Y-48316079D01*
X95716347Y-48303782D01*
X95737971Y-48293554D01*
X95760493Y-48285496D01*
X95783697Y-48279684D01*
X95807358Y-48276174D01*
X95831250Y-48275000D01*
X96318750Y-48275000D01*
X96342642Y-48276174D01*
G37*
G36*
X97917642Y-48276174D02*
G01*
X97941303Y-48279684D01*
X97964507Y-48285496D01*
X97987029Y-48293554D01*
X98008653Y-48303782D01*
X98029170Y-48316079D01*
X98048383Y-48330329D01*
X98066107Y-48346393D01*
X98082171Y-48364117D01*
X98096421Y-48383330D01*
X98108718Y-48403847D01*
X98118946Y-48425471D01*
X98127004Y-48447993D01*
X98132816Y-48471197D01*
X98136326Y-48494858D01*
X98137500Y-48518750D01*
X98137500Y-49081250D01*
X98136326Y-49105142D01*
X98132816Y-49128803D01*
X98127004Y-49152007D01*
X98118946Y-49174529D01*
X98108718Y-49196153D01*
X98096421Y-49216670D01*
X98082171Y-49235883D01*
X98066107Y-49253607D01*
X98048383Y-49269671D01*
X98029170Y-49283921D01*
X98008653Y-49296218D01*
X97987029Y-49306446D01*
X97964507Y-49314504D01*
X97941303Y-49320316D01*
X97917642Y-49323826D01*
X97893750Y-49325000D01*
X97406250Y-49325000D01*
X97382358Y-49323826D01*
X97358697Y-49320316D01*
X97335493Y-49314504D01*
X97312971Y-49306446D01*
X97291347Y-49296218D01*
X97270830Y-49283921D01*
X97251617Y-49269671D01*
X97233893Y-49253607D01*
X97217829Y-49235883D01*
X97203579Y-49216670D01*
X97191282Y-49196153D01*
X97181054Y-49174529D01*
X97172996Y-49152007D01*
X97167184Y-49128803D01*
X97163674Y-49105142D01*
X97162500Y-49081250D01*
X97162500Y-48518750D01*
X97163674Y-48494858D01*
X97167184Y-48471197D01*
X97172996Y-48447993D01*
X97181054Y-48425471D01*
X97191282Y-48403847D01*
X97203579Y-48383330D01*
X97217829Y-48364117D01*
X97233893Y-48346393D01*
X97251617Y-48330329D01*
X97270830Y-48316079D01*
X97291347Y-48303782D01*
X97312971Y-48293554D01*
X97335493Y-48285496D01*
X97358697Y-48279684D01*
X97382358Y-48276174D01*
X97406250Y-48275000D01*
X97893750Y-48275000D01*
X97917642Y-48276174D01*
G37*
D17*
X91350000Y-42700000D03*
X91350000Y-40800000D03*
X89350000Y-41750000D03*
D18*
X122050000Y-34625000D03*
X122050000Y-35275000D03*
X122050000Y-35925000D03*
X122050000Y-36575000D03*
X124100000Y-36575000D03*
X124100000Y-35925000D03*
X124100000Y-35275000D03*
X124100000Y-34625000D03*
D19*
X113850000Y-47500000D03*
X123030000Y-47500000D03*
M02*
