M48
; DRILL file {KiCad (5.1.5)-3} date 16.06.2021 23:04:39
; FORMAT={-:-/ absolute / metric / decimal}
; #@! TF.CreationDate,2021-06-16T23:04:39+07:00
; #@! TF.GenerationSoftware,Kicad,Pcbnew,(5.1.5)-3
; #@! TF.FileFunction,Plated,1,2,PTH
FMAT,2
METRIC
T1C0.400
T2C0.900
T3C1.000
%
G90
G05
T1
X87.85Y-36.0
X93.35Y-45.5
X98.85Y-43.9
X100.05Y-38.3
X101.5Y-41.2
X103.35Y-42.95
X103.9Y-43.625
X105.4Y-37.4
X105.45Y-45.2
X108.25Y-42.2
X111.25Y-41.2
X119.35Y-34.65
X120.275Y-35.275
X121.5Y-41.0
X122.75Y-33.75
X125.5Y-41.75
T3
X127.8Y-35.28
X127.8Y-37.82
X127.8Y-40.36
X127.8Y-42.9
X90.45Y-34.5
X92.99Y-34.5
X95.53Y-34.5
X98.07Y-34.5
T2
X84.7Y-35.8G85X83.1Y-35.8
G05
X84.7Y-47.2G85X83.1Y-47.2
G05
T0
M30
